G75*
%MOIN*%
%OFA0B0*%
%FSLAX25Y25*%
%IPPOS*%
%LPD*%
%AMOC8*
5,1,8,0,0,1.08239X$1,22.5*
%
%ADD10C,0.01600*%
%ADD11C,0.07677*%
%ADD12OC8,0.07400*%
%ADD13C,0.07400*%
%ADD14C,0.05200*%
%ADD15C,0.06500*%
%ADD16C,0.06000*%
%ADD17C,0.00000*%
%ADD18R,0.06500X0.06500*%
%ADD19C,0.07800*%
%ADD20R,0.06000X0.06000*%
%ADD21OC8,0.06000*%
%ADD22C,0.00600*%
%ADD23C,0.00840*%
D10*
X0063516Y0008338D02*
X0259516Y0008338D01*
X0259516Y0203338D01*
X0063516Y0203338D01*
X0063516Y0008338D01*
X0066316Y0011138D02*
X0256716Y0011138D01*
X0256716Y0200538D01*
X0066316Y0200538D01*
X0066316Y0011138D01*
X0066316Y0011665D02*
X0097336Y0011665D01*
X0097563Y0011438D02*
X0168469Y0011438D01*
X0190837Y0033806D01*
X0191001Y0033738D01*
X0198031Y0033738D01*
X0198195Y0033806D01*
X0210816Y0021186D01*
X0212163Y0019838D01*
X0236763Y0019838D01*
X0238816Y0017786D01*
X0238816Y0017204D01*
X0239684Y0015109D01*
X0241287Y0013506D01*
X0243382Y0012638D01*
X0245650Y0012638D01*
X0247745Y0013506D01*
X0249348Y0015109D01*
X0250216Y0017204D01*
X0250216Y0019472D01*
X0249348Y0021567D01*
X0247745Y0023170D01*
X0247340Y0023338D01*
X0247745Y0023506D01*
X0249348Y0025109D01*
X0250216Y0027204D01*
X0250216Y0029472D01*
X0249348Y0031567D01*
X0247745Y0033170D01*
X0247340Y0033338D01*
X0247745Y0033506D01*
X0249348Y0035109D01*
X0250216Y0037204D01*
X0250216Y0039472D01*
X0249348Y0041567D01*
X0247745Y0043170D01*
X0247340Y0043338D01*
X0247745Y0043506D01*
X0249348Y0045109D01*
X0250216Y0047204D01*
X0250216Y0049472D01*
X0249348Y0051567D01*
X0247745Y0053170D01*
X0247340Y0053338D01*
X0247745Y0053506D01*
X0249348Y0055109D01*
X0250216Y0057204D01*
X0250216Y0059472D01*
X0249348Y0061567D01*
X0247745Y0063170D01*
X0247340Y0063338D01*
X0247745Y0063506D01*
X0249348Y0065109D01*
X0250216Y0067204D01*
X0250216Y0069472D01*
X0249348Y0071567D01*
X0247745Y0073170D01*
X0247340Y0073338D01*
X0247745Y0073506D01*
X0249348Y0075109D01*
X0250216Y0077204D01*
X0256716Y0077204D01*
X0256716Y0075606D02*
X0249554Y0075606D01*
X0250216Y0077204D02*
X0250216Y0079472D01*
X0249348Y0081567D01*
X0247745Y0083170D01*
X0247340Y0083338D01*
X0247745Y0083506D01*
X0249348Y0085109D01*
X0250216Y0087204D01*
X0250216Y0089472D01*
X0249348Y0091567D01*
X0247745Y0093170D01*
X0247340Y0093338D01*
X0247745Y0093506D01*
X0249348Y0095109D01*
X0250216Y0097204D01*
X0250216Y0099472D01*
X0249348Y0101567D01*
X0247745Y0103170D01*
X0247340Y0103338D01*
X0247745Y0103506D01*
X0249348Y0105109D01*
X0250216Y0107204D01*
X0250216Y0109472D01*
X0249348Y0111567D01*
X0247745Y0113170D01*
X0247340Y0113338D01*
X0247745Y0113506D01*
X0249348Y0115109D01*
X0250216Y0117204D01*
X0250216Y0119472D01*
X0249348Y0121567D01*
X0247745Y0123170D01*
X0247340Y0123338D01*
X0247745Y0123506D01*
X0249348Y0125109D01*
X0250216Y0127204D01*
X0250216Y0129472D01*
X0249348Y0131567D01*
X0247745Y0133170D01*
X0247340Y0133338D01*
X0247745Y0133506D01*
X0249348Y0135109D01*
X0250216Y0137204D01*
X0250216Y0139472D01*
X0249348Y0141567D01*
X0247745Y0143170D01*
X0247340Y0143338D01*
X0247745Y0143506D01*
X0249348Y0145109D01*
X0250216Y0147204D01*
X0250216Y0149472D01*
X0249348Y0151567D01*
X0247745Y0153170D01*
X0247340Y0153338D01*
X0247745Y0153506D01*
X0249348Y0155109D01*
X0250216Y0157204D01*
X0250216Y0159472D01*
X0249348Y0161567D01*
X0247745Y0163170D01*
X0247052Y0163457D01*
X0247399Y0163634D01*
X0248099Y0164143D01*
X0248711Y0164755D01*
X0249220Y0165456D01*
X0249613Y0166227D01*
X0249881Y0167050D01*
X0250016Y0167905D01*
X0250016Y0168138D01*
X0244716Y0168138D01*
X0244716Y0168538D01*
X0250016Y0168538D01*
X0250016Y0168771D01*
X0249881Y0169626D01*
X0249613Y0170449D01*
X0249220Y0171221D01*
X0248711Y0171921D01*
X0248099Y0172533D01*
X0247399Y0173042D01*
X0246627Y0173435D01*
X0245804Y0173703D01*
X0244949Y0173838D01*
X0244716Y0173838D01*
X0244716Y0168538D01*
X0244316Y0168538D01*
X0244316Y0168138D01*
X0239016Y0168138D01*
X0239016Y0167905D01*
X0239151Y0167050D01*
X0239419Y0166227D01*
X0239812Y0165456D01*
X0240321Y0164755D01*
X0240933Y0164143D01*
X0241633Y0163634D01*
X0241980Y0163457D01*
X0241287Y0163170D01*
X0241112Y0162995D01*
X0238669Y0165438D01*
X0233269Y0165438D01*
X0231589Y0167117D01*
X0231716Y0167423D01*
X0231716Y0169253D01*
X0231016Y0170944D01*
X0229722Y0172238D01*
X0228031Y0172938D01*
X0221001Y0172938D01*
X0219310Y0172238D01*
X0218016Y0170944D01*
X0217316Y0169253D01*
X0217316Y0167423D01*
X0218016Y0165733D01*
X0219310Y0164439D01*
X0221001Y0163738D01*
X0228031Y0163738D01*
X0228337Y0163865D01*
X0230016Y0162186D01*
X0231363Y0160838D01*
X0236763Y0160838D01*
X0238816Y0158786D01*
X0238816Y0157204D01*
X0239684Y0155109D01*
X0241287Y0153506D01*
X0241692Y0153338D01*
X0241287Y0153170D01*
X0240712Y0152595D01*
X0239269Y0154038D01*
X0234469Y0154038D01*
X0231531Y0156976D01*
X0231716Y0157423D01*
X0231716Y0159253D01*
X0231016Y0160944D01*
X0229722Y0162238D01*
X0228031Y0162938D01*
X0221001Y0162938D01*
X0219310Y0162238D01*
X0218016Y0160944D01*
X0217316Y0159253D01*
X0217316Y0157423D01*
X0218016Y0155733D01*
X0219310Y0154439D01*
X0221001Y0153738D01*
X0228031Y0153738D01*
X0228195Y0153806D01*
X0231216Y0150786D01*
X0232563Y0149438D01*
X0237363Y0149438D01*
X0238816Y0147986D01*
X0238816Y0147204D01*
X0239684Y0145109D01*
X0241287Y0143506D01*
X0241692Y0143338D01*
X0241287Y0143170D01*
X0240612Y0142495D01*
X0238669Y0144438D01*
X0233869Y0144438D01*
X0231472Y0146835D01*
X0231716Y0147423D01*
X0231716Y0149253D01*
X0231016Y0150944D01*
X0229722Y0152238D01*
X0228031Y0152938D01*
X0221001Y0152938D01*
X0219310Y0152238D01*
X0218016Y0150944D01*
X0217316Y0149253D01*
X0217316Y0147423D01*
X0218016Y0145733D01*
X0219310Y0144439D01*
X0221001Y0143738D01*
X0228031Y0143738D01*
X0228054Y0143748D01*
X0229452Y0142350D01*
X0228031Y0142938D01*
X0221001Y0142938D01*
X0219310Y0142238D01*
X0218016Y0140944D01*
X0217316Y0139253D01*
X0217316Y0137423D01*
X0218016Y0135733D01*
X0219310Y0134439D01*
X0221001Y0133738D01*
X0228031Y0133738D01*
X0228337Y0133865D01*
X0230016Y0132186D01*
X0231363Y0130838D01*
X0236763Y0130838D01*
X0238816Y0128786D01*
X0238816Y0127204D01*
X0239684Y0125109D01*
X0241287Y0123506D01*
X0241692Y0123338D01*
X0241287Y0123170D01*
X0240712Y0122595D01*
X0239269Y0124038D01*
X0234469Y0124038D01*
X0231531Y0126976D01*
X0231716Y0127423D01*
X0231716Y0129253D01*
X0231016Y0130944D01*
X0229722Y0132238D01*
X0228031Y0132938D01*
X0221001Y0132938D01*
X0219310Y0132238D01*
X0218016Y0130944D01*
X0217316Y0129253D01*
X0217316Y0127423D01*
X0218016Y0125733D01*
X0219310Y0124439D01*
X0221001Y0123738D01*
X0228031Y0123738D01*
X0228195Y0123806D01*
X0231216Y0120786D01*
X0232563Y0119438D01*
X0237363Y0119438D01*
X0238816Y0117986D01*
X0238816Y0117204D01*
X0239684Y0115109D01*
X0241287Y0113506D01*
X0241692Y0113338D01*
X0241287Y0113170D01*
X0240612Y0112495D01*
X0238669Y0114438D01*
X0233869Y0114438D01*
X0231472Y0116835D01*
X0231716Y0117423D01*
X0231716Y0119253D01*
X0231016Y0120944D01*
X0229722Y0122238D01*
X0228031Y0122938D01*
X0221001Y0122938D01*
X0219310Y0122238D01*
X0218016Y0120944D01*
X0217316Y0119253D01*
X0217316Y0117423D01*
X0218016Y0115733D01*
X0219310Y0114439D01*
X0221001Y0113738D01*
X0228031Y0113738D01*
X0228054Y0113748D01*
X0230616Y0111186D01*
X0231963Y0109838D01*
X0236763Y0109838D01*
X0238816Y0107786D01*
X0238816Y0107204D01*
X0239684Y0105109D01*
X0241287Y0103506D01*
X0241692Y0103338D01*
X0241287Y0103170D01*
X0241112Y0102995D01*
X0238669Y0105438D01*
X0230763Y0105438D01*
X0229416Y0104091D01*
X0228195Y0102870D01*
X0228031Y0102938D01*
X0221001Y0102938D01*
X0219310Y0102238D01*
X0218016Y0100944D01*
X0217316Y0099253D01*
X0217316Y0097423D01*
X0218016Y0095733D01*
X0219310Y0094439D01*
X0221001Y0093738D01*
X0228031Y0093738D01*
X0229722Y0094439D01*
X0231016Y0095733D01*
X0231716Y0097423D01*
X0231716Y0099253D01*
X0231531Y0099700D01*
X0232669Y0100838D01*
X0236763Y0100838D01*
X0238816Y0098786D01*
X0238816Y0097204D01*
X0239684Y0095109D01*
X0241287Y0093506D01*
X0241692Y0093338D01*
X0241287Y0093170D01*
X0239684Y0091567D01*
X0238816Y0089472D01*
X0238816Y0087204D01*
X0239684Y0085109D01*
X0241287Y0083506D01*
X0241692Y0083338D01*
X0241287Y0083170D01*
X0239684Y0081567D01*
X0238816Y0079472D01*
X0238816Y0078091D01*
X0236763Y0076038D01*
X0232487Y0076038D01*
X0232197Y0076158D01*
X0231192Y0076158D01*
X0231716Y0077423D01*
X0231716Y0079253D01*
X0231016Y0080944D01*
X0229722Y0082238D01*
X0228031Y0082938D01*
X0221001Y0082938D01*
X0219310Y0082238D01*
X0218016Y0080944D01*
X0217316Y0079253D01*
X0217316Y0077423D01*
X0217443Y0077117D01*
X0217435Y0077110D01*
X0217145Y0076990D01*
X0216464Y0076309D01*
X0216344Y0076019D01*
X0206163Y0065838D01*
X0202487Y0065838D01*
X0202197Y0065958D01*
X0201109Y0065958D01*
X0201716Y0067423D01*
X0201716Y0069253D01*
X0201016Y0070944D01*
X0199722Y0072238D01*
X0198031Y0072938D01*
X0191001Y0072938D01*
X0189310Y0072238D01*
X0188016Y0070944D01*
X0187316Y0069253D01*
X0187316Y0067423D01*
X0187963Y0065860D01*
X0185400Y0064798D01*
X0185400Y0064798D01*
X0183256Y0062655D01*
X0183256Y0062655D01*
X0182096Y0059854D01*
X0182096Y0058820D01*
X0182096Y0058820D01*
X0182096Y0056258D01*
X0181920Y0056258D01*
X0181816Y0056509D01*
X0181816Y0056691D01*
X0181687Y0056819D01*
X0181568Y0057109D01*
X0180887Y0057790D01*
X0180597Y0057910D01*
X0174469Y0064038D01*
X0166069Y0064038D01*
X0144016Y0086091D01*
X0144016Y0130491D01*
X0142669Y0131838D01*
X0134363Y0140144D01*
X0135216Y0142204D01*
X0135216Y0143786D01*
X0143869Y0152438D01*
X0159469Y0152438D01*
X0163316Y0156286D01*
X0168363Y0151238D01*
X0169266Y0151238D01*
X0169266Y0149260D01*
X0170438Y0148088D01*
X0178594Y0148088D01*
X0179766Y0149260D01*
X0179766Y0157417D01*
X0178594Y0158588D01*
X0176767Y0158588D01*
X0177490Y0158887D01*
X0178967Y0160364D01*
X0178987Y0160414D01*
X0182616Y0156786D01*
X0182616Y0114786D01*
X0187560Y0109842D01*
X0187316Y0109253D01*
X0187316Y0107423D01*
X0188016Y0105733D01*
X0189310Y0104439D01*
X0191001Y0103738D01*
X0198031Y0103738D01*
X0198337Y0103865D01*
X0200763Y0101438D01*
X0205563Y0101438D01*
X0217443Y0089559D01*
X0217316Y0089253D01*
X0217316Y0087423D01*
X0218016Y0085733D01*
X0219310Y0084439D01*
X0221001Y0083738D01*
X0228031Y0083738D01*
X0229722Y0084439D01*
X0231016Y0085733D01*
X0231716Y0087423D01*
X0231716Y0089253D01*
X0231016Y0090944D01*
X0229722Y0092238D01*
X0228031Y0092938D01*
X0221001Y0092938D01*
X0220695Y0092812D01*
X0208816Y0104691D01*
X0207469Y0106038D01*
X0202669Y0106038D01*
X0201589Y0107117D01*
X0201716Y0107423D01*
X0201716Y0109253D01*
X0201016Y0110944D01*
X0199722Y0112238D01*
X0198031Y0112938D01*
X0191001Y0112938D01*
X0190978Y0112929D01*
X0189580Y0114327D01*
X0191001Y0113738D01*
X0198031Y0113738D01*
X0199722Y0114439D01*
X0201016Y0115733D01*
X0201716Y0117423D01*
X0201716Y0119253D01*
X0201589Y0119559D01*
X0217216Y0135186D01*
X0217216Y0175986D01*
X0218869Y0177638D01*
X0220650Y0177638D01*
X0222745Y0178506D01*
X0224348Y0180109D01*
X0224516Y0180514D01*
X0224684Y0180109D01*
X0226287Y0178506D01*
X0228382Y0177638D01*
X0230650Y0177638D01*
X0232745Y0178506D01*
X0234348Y0180109D01*
X0234516Y0180514D01*
X0234684Y0180109D01*
X0236287Y0178506D01*
X0238382Y0177638D01*
X0240650Y0177638D01*
X0242745Y0178506D01*
X0244348Y0180109D01*
X0244516Y0180514D01*
X0244684Y0180109D01*
X0246287Y0178506D01*
X0248382Y0177638D01*
X0250650Y0177638D01*
X0252745Y0178506D01*
X0254348Y0180109D01*
X0255216Y0182204D01*
X0255216Y0184472D01*
X0254348Y0186567D01*
X0252745Y0188170D01*
X0250650Y0189038D01*
X0248382Y0189038D01*
X0246287Y0188170D01*
X0244684Y0186567D01*
X0244516Y0186162D01*
X0244348Y0186567D01*
X0242745Y0188170D01*
X0240650Y0189038D01*
X0238382Y0189038D01*
X0236287Y0188170D01*
X0234684Y0186567D01*
X0234516Y0186162D01*
X0234348Y0186567D01*
X0232745Y0188170D01*
X0230650Y0189038D01*
X0228382Y0189038D01*
X0226287Y0188170D01*
X0224684Y0186567D01*
X0224516Y0186162D01*
X0224348Y0186567D01*
X0222745Y0188170D01*
X0220650Y0189038D01*
X0218382Y0189038D01*
X0216287Y0188170D01*
X0214684Y0186567D01*
X0214516Y0186162D01*
X0214348Y0186567D01*
X0212745Y0188170D01*
X0210650Y0189038D01*
X0208382Y0189038D01*
X0206287Y0188170D01*
X0204684Y0186567D01*
X0204516Y0186162D01*
X0204348Y0186567D01*
X0202745Y0188170D01*
X0200650Y0189038D01*
X0198382Y0189038D01*
X0196287Y0188170D01*
X0194684Y0186567D01*
X0194516Y0186162D01*
X0194348Y0186567D01*
X0192745Y0188170D01*
X0190650Y0189038D01*
X0188382Y0189038D01*
X0186287Y0188170D01*
X0184684Y0186567D01*
X0184516Y0186162D01*
X0184348Y0186567D01*
X0182745Y0188170D01*
X0180650Y0189038D01*
X0178382Y0189038D01*
X0176287Y0188170D01*
X0174684Y0186567D01*
X0173816Y0184472D01*
X0173816Y0182204D01*
X0174684Y0180109D01*
X0176287Y0178506D01*
X0178382Y0177638D01*
X0179763Y0177638D01*
X0182016Y0175386D01*
X0182016Y0165186D01*
X0183363Y0163838D01*
X0187501Y0159700D01*
X0187316Y0159253D01*
X0187316Y0157423D01*
X0188016Y0155733D01*
X0189310Y0154439D01*
X0191001Y0153738D01*
X0198031Y0153738D01*
X0199722Y0154439D01*
X0201016Y0155733D01*
X0201216Y0156216D01*
X0201216Y0155691D01*
X0198337Y0152812D01*
X0198031Y0152938D01*
X0191001Y0152938D01*
X0189310Y0152238D01*
X0188016Y0150944D01*
X0187316Y0149253D01*
X0187316Y0147423D01*
X0188016Y0145733D01*
X0189310Y0144439D01*
X0191001Y0143738D01*
X0198031Y0143738D01*
X0199722Y0144439D01*
X0201016Y0145733D01*
X0201716Y0147423D01*
X0201716Y0149253D01*
X0201589Y0149559D01*
X0202416Y0150386D01*
X0202416Y0137091D01*
X0198195Y0132870D01*
X0198031Y0132938D01*
X0191001Y0132938D01*
X0189310Y0132238D01*
X0188016Y0130944D01*
X0187316Y0129253D01*
X0187316Y0127423D01*
X0188016Y0125733D01*
X0189310Y0124439D01*
X0191001Y0123738D01*
X0198031Y0123738D01*
X0199722Y0124439D01*
X0201016Y0125733D01*
X0201716Y0127423D01*
X0201716Y0129253D01*
X0201531Y0129700D01*
X0205669Y0133838D01*
X0207016Y0135186D01*
X0207016Y0175386D01*
X0209269Y0177638D01*
X0210650Y0177638D01*
X0212745Y0178506D01*
X0214348Y0180109D01*
X0214516Y0180514D01*
X0214684Y0180109D01*
X0214759Y0180034D01*
X0212616Y0177891D01*
X0212616Y0137091D01*
X0198337Y0122812D01*
X0198031Y0122938D01*
X0191001Y0122938D01*
X0189310Y0122238D01*
X0188016Y0120944D01*
X0187316Y0119253D01*
X0187316Y0117423D01*
X0187905Y0116002D01*
X0187216Y0116691D01*
X0187216Y0158691D01*
X0185869Y0160038D01*
X0180469Y0165438D01*
X0179329Y0165438D01*
X0178967Y0166312D01*
X0177490Y0167789D01*
X0175560Y0168588D01*
X0173472Y0168588D01*
X0171542Y0167789D01*
X0170065Y0166312D01*
X0169266Y0164382D01*
X0169266Y0162294D01*
X0170065Y0160364D01*
X0171542Y0158887D01*
X0172265Y0158588D01*
X0170438Y0158588D01*
X0169266Y0157417D01*
X0169266Y0156841D01*
X0165616Y0160491D01*
X0165616Y0180891D01*
X0163419Y0183088D01*
X0163594Y0183088D01*
X0164766Y0184260D01*
X0164766Y0192417D01*
X0163594Y0193588D01*
X0155438Y0193588D01*
X0154266Y0192417D01*
X0154266Y0190061D01*
X0154196Y0190277D01*
X0153835Y0190985D01*
X0153368Y0191628D01*
X0152806Y0192190D01*
X0152163Y0192657D01*
X0151454Y0193018D01*
X0150698Y0193264D01*
X0149913Y0193388D01*
X0149516Y0193388D01*
X0149516Y0188338D01*
X0149516Y0183288D01*
X0149913Y0183288D01*
X0150698Y0183413D01*
X0151454Y0183658D01*
X0152163Y0184019D01*
X0152806Y0184486D01*
X0153368Y0185048D01*
X0153835Y0185691D01*
X0154196Y0186400D01*
X0154266Y0186615D01*
X0154266Y0184260D01*
X0155438Y0183088D01*
X0158016Y0183088D01*
X0158016Y0181986D01*
X0159363Y0180638D01*
X0161016Y0178986D01*
X0161016Y0160491D01*
X0157563Y0157038D01*
X0141963Y0157038D01*
X0140616Y0155691D01*
X0140616Y0155691D01*
X0132920Y0147995D01*
X0132745Y0148170D01*
X0130650Y0149038D01*
X0128382Y0149038D01*
X0126287Y0148170D01*
X0126012Y0147895D01*
X0124816Y0149091D01*
X0123469Y0150438D01*
X0120363Y0150438D01*
X0117920Y0147995D01*
X0117745Y0148170D01*
X0115650Y0149038D01*
X0113382Y0149038D01*
X0111746Y0148361D01*
X0103669Y0156438D01*
X0089163Y0156438D01*
X0087816Y0155091D01*
X0084063Y0151338D01*
X0083521Y0151338D01*
X0081684Y0150577D01*
X0080277Y0149170D01*
X0079516Y0147333D01*
X0079516Y0139344D01*
X0080277Y0137506D01*
X0081684Y0136099D01*
X0083521Y0135338D01*
X0085511Y0135338D01*
X0087348Y0136099D01*
X0088755Y0137506D01*
X0089516Y0139344D01*
X0089516Y0147333D01*
X0088755Y0149170D01*
X0088578Y0149347D01*
X0091069Y0151838D01*
X0101763Y0151838D01*
X0108908Y0144694D01*
X0108816Y0144472D01*
X0108816Y0142204D01*
X0109684Y0140109D01*
X0111287Y0138506D01*
X0113382Y0137638D01*
X0115650Y0137638D01*
X0117745Y0138506D01*
X0119348Y0140109D01*
X0120216Y0142204D01*
X0120216Y0143786D01*
X0121916Y0145486D01*
X0123816Y0143586D01*
X0123816Y0142204D01*
X0124684Y0140109D01*
X0126287Y0138506D01*
X0128382Y0137638D01*
X0130363Y0137638D01*
X0139416Y0128586D01*
X0139416Y0084186D01*
X0162816Y0060786D01*
X0164163Y0059438D01*
X0172563Y0059438D01*
X0176263Y0055738D01*
X0175216Y0054691D01*
X0175216Y0055699D01*
X0171877Y0059038D01*
X0167155Y0059038D01*
X0164375Y0056258D01*
X0161794Y0058838D01*
X0159716Y0058838D01*
X0159716Y0053538D01*
X0159316Y0053538D01*
X0159316Y0053138D01*
X0154016Y0053138D01*
X0154016Y0051060D01*
X0154238Y0050838D01*
X0150963Y0050838D01*
X0148475Y0048350D01*
X0148148Y0048677D01*
X0146311Y0049438D01*
X0138321Y0049438D01*
X0136484Y0048677D01*
X0136157Y0048350D01*
X0133669Y0050838D01*
X0130216Y0050838D01*
X0130216Y0097638D01*
X0130650Y0097638D01*
X0132745Y0098506D01*
X0134348Y0100109D01*
X0135216Y0102204D01*
X0135216Y0104472D01*
X0134348Y0106567D01*
X0132745Y0108170D01*
X0130650Y0109038D01*
X0128382Y0109038D01*
X0126287Y0108170D01*
X0124684Y0106567D01*
X0123816Y0104472D01*
X0123816Y0102204D01*
X0124684Y0100109D01*
X0125616Y0099177D01*
X0125616Y0050838D01*
X0125163Y0050838D01*
X0123816Y0049491D01*
X0123816Y0049491D01*
X0122775Y0048450D01*
X0122548Y0048677D01*
X0120711Y0049438D01*
X0112721Y0049438D01*
X0110884Y0048677D01*
X0109477Y0047270D01*
X0108716Y0045433D01*
X0108716Y0043444D01*
X0109477Y0041606D01*
X0110884Y0040199D01*
X0112721Y0039438D01*
X0120711Y0039438D01*
X0122548Y0040199D01*
X0123955Y0041606D01*
X0124716Y0043444D01*
X0124716Y0043886D01*
X0127069Y0046238D01*
X0131763Y0046238D01*
X0134016Y0043986D01*
X0134316Y0043686D01*
X0134316Y0043444D01*
X0135077Y0041606D01*
X0136484Y0040199D01*
X0138321Y0039438D01*
X0146311Y0039438D01*
X0148148Y0040199D01*
X0149555Y0041606D01*
X0150316Y0043444D01*
X0150316Y0043686D01*
X0150616Y0043986D01*
X0152869Y0046238D01*
X0154355Y0046238D01*
X0153816Y0045699D01*
X0153816Y0040977D01*
X0156455Y0038338D01*
X0153816Y0035699D01*
X0153816Y0030977D01*
X0157155Y0027638D01*
X0161877Y0027638D01*
X0164516Y0030277D01*
X0164559Y0030234D01*
X0161763Y0027438D01*
X0157069Y0027438D01*
X0146269Y0038238D01*
X0080763Y0038238D01*
X0079416Y0036891D01*
X0075863Y0033338D01*
X0072445Y0033338D01*
X0069516Y0030409D01*
X0069516Y0026267D01*
X0072445Y0023338D01*
X0069516Y0020409D01*
X0069516Y0016267D01*
X0072445Y0013338D01*
X0076587Y0013338D01*
X0079516Y0016267D01*
X0082445Y0013338D01*
X0086587Y0013338D01*
X0089516Y0016267D01*
X0092445Y0013338D01*
X0095663Y0013338D01*
X0096216Y0012786D01*
X0096216Y0012786D01*
X0097563Y0011438D01*
X0095738Y0013264D02*
X0066316Y0013264D01*
X0066316Y0014862D02*
X0070921Y0014862D01*
X0069516Y0016461D02*
X0066316Y0016461D01*
X0066316Y0018059D02*
X0069516Y0018059D01*
X0069516Y0019658D02*
X0066316Y0019658D01*
X0066316Y0021256D02*
X0070363Y0021256D01*
X0071962Y0022855D02*
X0066316Y0022855D01*
X0066316Y0024453D02*
X0071330Y0024453D01*
X0072445Y0023338D02*
X0076587Y0023338D01*
X0072445Y0023338D01*
X0069731Y0026052D02*
X0066316Y0026052D01*
X0066316Y0027650D02*
X0069516Y0027650D01*
X0069516Y0029249D02*
X0066316Y0029249D01*
X0066316Y0030847D02*
X0069954Y0030847D01*
X0071553Y0032446D02*
X0066316Y0032446D01*
X0066316Y0034044D02*
X0076569Y0034044D01*
X0078168Y0035643D02*
X0066316Y0035643D01*
X0066316Y0037241D02*
X0079767Y0037241D01*
X0082669Y0033638D02*
X0094163Y0033638D01*
X0093963Y0033438D01*
X0093863Y0033338D01*
X0092445Y0033338D01*
X0089516Y0030409D01*
X0089516Y0026267D01*
X0092445Y0023338D01*
X0089516Y0020409D01*
X0089516Y0016267D01*
X0089516Y0020409D01*
X0086587Y0023338D01*
X0082445Y0023338D01*
X0079516Y0020409D01*
X0079516Y0016267D01*
X0079516Y0020409D01*
X0076587Y0023338D01*
X0079516Y0026267D01*
X0079516Y0030409D01*
X0079478Y0030447D01*
X0082669Y0033638D01*
X0082445Y0033338D02*
X0079516Y0030409D01*
X0079516Y0026267D01*
X0082445Y0023338D01*
X0086587Y0023338D01*
X0089516Y0026267D01*
X0089516Y0030409D01*
X0086587Y0033338D01*
X0082445Y0033338D01*
X0081553Y0032446D02*
X0081476Y0032446D01*
X0079954Y0030847D02*
X0079878Y0030847D01*
X0079516Y0029249D02*
X0079516Y0029249D01*
X0079516Y0027650D02*
X0079516Y0027650D01*
X0079301Y0026052D02*
X0079731Y0026052D01*
X0081330Y0024453D02*
X0077702Y0024453D01*
X0077070Y0022855D02*
X0081962Y0022855D01*
X0080363Y0021256D02*
X0078669Y0021256D01*
X0079516Y0019658D02*
X0079516Y0019658D01*
X0079516Y0018059D02*
X0079516Y0018059D01*
X0079516Y0016461D02*
X0079516Y0016461D01*
X0078111Y0014862D02*
X0080921Y0014862D01*
X0088111Y0014862D02*
X0090921Y0014862D01*
X0089516Y0016461D02*
X0089516Y0016461D01*
X0089516Y0018059D02*
X0089516Y0018059D01*
X0089516Y0019658D02*
X0089516Y0019658D01*
X0088669Y0021256D02*
X0090363Y0021256D01*
X0091962Y0022855D02*
X0087070Y0022855D01*
X0087702Y0024453D02*
X0091330Y0024453D01*
X0092445Y0023338D02*
X0096587Y0023338D01*
X0092445Y0023338D01*
X0089731Y0026052D02*
X0089301Y0026052D01*
X0089516Y0027650D02*
X0089516Y0027650D01*
X0089516Y0029249D02*
X0089516Y0029249D01*
X0089078Y0030847D02*
X0089954Y0030847D01*
X0091553Y0032446D02*
X0087479Y0032446D01*
X0098478Y0031447D02*
X0099469Y0032438D01*
X0100073Y0032438D01*
X0099839Y0032033D01*
X0099716Y0031575D01*
X0099716Y0028538D01*
X0104316Y0028538D01*
X0104316Y0028138D01*
X0104716Y0028138D01*
X0104716Y0023538D01*
X0107753Y0023538D01*
X0108211Y0023661D01*
X0108621Y0023898D01*
X0108956Y0024233D01*
X0109193Y0024643D01*
X0109316Y0025101D01*
X0109316Y0028138D01*
X0104716Y0028138D01*
X0104716Y0028538D01*
X0109316Y0028538D01*
X0109316Y0031575D01*
X0109193Y0032033D01*
X0108959Y0032438D01*
X0109563Y0032438D01*
X0120363Y0021638D01*
X0172163Y0021638D01*
X0166563Y0016038D01*
X0109287Y0016038D01*
X0109516Y0016267D01*
X0109516Y0020409D01*
X0106587Y0023338D01*
X0102445Y0023338D01*
X0099516Y0020409D01*
X0096587Y0023338D01*
X0099516Y0026267D01*
X0099516Y0030409D01*
X0098478Y0031447D01*
X0099078Y0030847D02*
X0099716Y0030847D01*
X0099716Y0029249D02*
X0099516Y0029249D01*
X0099716Y0028138D02*
X0099716Y0025101D01*
X0099839Y0024643D01*
X0100076Y0024233D01*
X0100411Y0023898D01*
X0100821Y0023661D01*
X0101279Y0023538D01*
X0104316Y0023538D01*
X0104316Y0028138D01*
X0099716Y0028138D01*
X0099716Y0027650D02*
X0099516Y0027650D01*
X0099716Y0026052D02*
X0099301Y0026052D01*
X0099948Y0024453D02*
X0097702Y0024453D01*
X0097070Y0022855D02*
X0101962Y0022855D01*
X0100363Y0021256D02*
X0098669Y0021256D01*
X0099516Y0020409D02*
X0099516Y0016267D01*
X0099378Y0016129D01*
X0099469Y0016038D01*
X0099745Y0016038D01*
X0099516Y0016267D01*
X0099516Y0020409D01*
X0099516Y0019658D02*
X0099516Y0019658D01*
X0099516Y0018059D02*
X0099516Y0018059D01*
X0099516Y0016461D02*
X0099516Y0016461D01*
X0104316Y0024453D02*
X0104716Y0024453D01*
X0104716Y0026052D02*
X0104316Y0026052D01*
X0104316Y0027650D02*
X0104716Y0027650D01*
X0109316Y0027650D02*
X0114351Y0027650D01*
X0115950Y0026052D02*
X0109316Y0026052D01*
X0109084Y0024453D02*
X0117548Y0024453D01*
X0119147Y0022855D02*
X0107070Y0022855D01*
X0108669Y0021256D02*
X0171781Y0021256D01*
X0170183Y0019658D02*
X0109516Y0019658D01*
X0109516Y0018059D02*
X0168584Y0018059D01*
X0166986Y0016461D02*
X0109516Y0016461D01*
X0109316Y0029249D02*
X0112753Y0029249D01*
X0111154Y0030847D02*
X0109316Y0030847D01*
X0110645Y0040438D02*
X0066316Y0040438D01*
X0066316Y0038840D02*
X0155953Y0038840D01*
X0155358Y0037241D02*
X0147265Y0037241D01*
X0148864Y0035643D02*
X0153816Y0035643D01*
X0153816Y0034044D02*
X0150462Y0034044D01*
X0152061Y0032446D02*
X0153816Y0032446D01*
X0153946Y0030847D02*
X0153659Y0030847D01*
X0155258Y0029249D02*
X0155544Y0029249D01*
X0156856Y0027650D02*
X0157143Y0027650D01*
X0161889Y0027650D02*
X0161975Y0027650D01*
X0163488Y0029249D02*
X0163574Y0029249D01*
X0154355Y0040438D02*
X0148387Y0040438D01*
X0149733Y0042037D02*
X0153816Y0042037D01*
X0153816Y0043635D02*
X0150316Y0043635D01*
X0151864Y0045234D02*
X0153816Y0045234D01*
X0150155Y0050030D02*
X0134477Y0050030D01*
X0136076Y0048431D02*
X0136238Y0048431D01*
X0132767Y0045234D02*
X0126064Y0045234D01*
X0124716Y0043635D02*
X0134316Y0043635D01*
X0134899Y0042037D02*
X0124133Y0042037D01*
X0122787Y0040438D02*
X0136245Y0040438D01*
X0148394Y0048431D02*
X0148556Y0048431D01*
X0154016Y0051628D02*
X0130216Y0051628D01*
X0130216Y0053227D02*
X0159316Y0053227D01*
X0159316Y0053538D02*
X0154016Y0053538D01*
X0154016Y0055616D01*
X0157238Y0058838D01*
X0159316Y0058838D01*
X0159316Y0053538D01*
X0159316Y0054825D02*
X0159716Y0054825D01*
X0159716Y0056424D02*
X0159316Y0056424D01*
X0159316Y0058022D02*
X0159716Y0058022D01*
X0162610Y0058022D02*
X0166139Y0058022D01*
X0164540Y0056424D02*
X0164209Y0056424D01*
X0163981Y0059621D02*
X0149347Y0059621D01*
X0149421Y0059722D02*
X0149764Y0060396D01*
X0149998Y0061114D01*
X0150116Y0061860D01*
X0150116Y0062038D01*
X0142516Y0062038D01*
X0142516Y0057438D01*
X0145694Y0057438D01*
X0146440Y0057556D01*
X0147159Y0057790D01*
X0147832Y0058133D01*
X0148443Y0058577D01*
X0148977Y0059111D01*
X0149421Y0059722D01*
X0150014Y0061219D02*
X0162382Y0061219D01*
X0160784Y0062818D02*
X0150084Y0062818D01*
X0150116Y0062616D02*
X0149998Y0063362D01*
X0149764Y0064081D01*
X0149421Y0064754D01*
X0148977Y0065365D01*
X0148443Y0065899D01*
X0147832Y0066344D01*
X0147159Y0066687D01*
X0146440Y0066920D01*
X0145694Y0067038D01*
X0142516Y0067038D01*
X0142516Y0062438D01*
X0150116Y0062438D01*
X0150116Y0062616D01*
X0149593Y0064416D02*
X0159185Y0064416D01*
X0157587Y0066015D02*
X0148284Y0066015D01*
X0142516Y0066015D02*
X0142116Y0066015D01*
X0142116Y0067038D02*
X0138938Y0067038D01*
X0138192Y0066920D01*
X0137473Y0066687D01*
X0136800Y0066344D01*
X0136189Y0065899D01*
X0135655Y0065365D01*
X0135211Y0064754D01*
X0134868Y0064081D01*
X0134634Y0063362D01*
X0134516Y0062616D01*
X0134516Y0062438D01*
X0142116Y0062438D01*
X0142116Y0062038D01*
X0142516Y0062038D01*
X0142516Y0062438D01*
X0142116Y0062438D01*
X0142116Y0067038D01*
X0142116Y0064416D02*
X0142516Y0064416D01*
X0142516Y0062818D02*
X0142116Y0062818D01*
X0142116Y0062038D02*
X0134516Y0062038D01*
X0134516Y0061860D01*
X0134634Y0061114D01*
X0134868Y0060396D01*
X0135211Y0059722D01*
X0135655Y0059111D01*
X0136189Y0058577D01*
X0136800Y0058133D01*
X0137473Y0057790D01*
X0138192Y0057556D01*
X0138938Y0057438D01*
X0142116Y0057438D01*
X0142116Y0062038D01*
X0142116Y0061219D02*
X0142516Y0061219D01*
X0142516Y0059621D02*
X0142116Y0059621D01*
X0142116Y0058022D02*
X0142516Y0058022D01*
X0147614Y0058022D02*
X0156422Y0058022D01*
X0154823Y0056424D02*
X0130216Y0056424D01*
X0130216Y0058022D02*
X0137018Y0058022D01*
X0135285Y0059621D02*
X0130216Y0059621D01*
X0130216Y0061219D02*
X0134618Y0061219D01*
X0134548Y0062818D02*
X0130216Y0062818D01*
X0130216Y0064416D02*
X0135039Y0064416D01*
X0136348Y0066015D02*
X0130216Y0066015D01*
X0130216Y0067613D02*
X0155988Y0067613D01*
X0154390Y0069212D02*
X0130216Y0069212D01*
X0130216Y0070810D02*
X0152791Y0070810D01*
X0151193Y0072409D02*
X0130216Y0072409D01*
X0130216Y0074007D02*
X0149594Y0074007D01*
X0147996Y0075606D02*
X0130216Y0075606D01*
X0130216Y0077204D02*
X0146397Y0077204D01*
X0144799Y0078803D02*
X0130216Y0078803D01*
X0130216Y0080401D02*
X0143200Y0080401D01*
X0141602Y0082000D02*
X0130216Y0082000D01*
X0130216Y0083598D02*
X0140003Y0083598D01*
X0139416Y0085197D02*
X0130216Y0085197D01*
X0130216Y0086795D02*
X0139416Y0086795D01*
X0139416Y0088394D02*
X0130216Y0088394D01*
X0130216Y0089992D02*
X0139416Y0089992D01*
X0139416Y0091591D02*
X0130216Y0091591D01*
X0130216Y0093189D02*
X0139416Y0093189D01*
X0139416Y0094788D02*
X0130216Y0094788D01*
X0130216Y0096386D02*
X0139416Y0096386D01*
X0139416Y0097985D02*
X0131487Y0097985D01*
X0133822Y0099583D02*
X0139416Y0099583D01*
X0139416Y0101182D02*
X0134792Y0101182D01*
X0135216Y0102780D02*
X0139416Y0102780D01*
X0139416Y0104379D02*
X0135216Y0104379D01*
X0134592Y0105977D02*
X0139416Y0105977D01*
X0139416Y0107576D02*
X0133339Y0107576D01*
X0125693Y0107576D02*
X0118339Y0107576D01*
X0117745Y0108170D02*
X0115650Y0109038D01*
X0113382Y0109038D01*
X0111287Y0108170D01*
X0109684Y0106567D01*
X0108816Y0104472D01*
X0108816Y0102204D01*
X0109684Y0100109D01*
X0109959Y0099834D01*
X0108963Y0098838D01*
X0107616Y0097491D01*
X0107616Y0085386D01*
X0113816Y0079186D01*
X0113816Y0077204D01*
X0089403Y0077204D01*
X0089331Y0077132D02*
X0091722Y0079523D01*
X0093016Y0082647D01*
X0093016Y0086029D01*
X0091722Y0089153D01*
X0089331Y0091544D01*
X0086207Y0092838D01*
X0082825Y0092838D01*
X0079701Y0091544D01*
X0077310Y0089153D01*
X0076016Y0086029D01*
X0076016Y0082647D01*
X0077310Y0079523D01*
X0079701Y0077132D01*
X0082825Y0075838D01*
X0086207Y0075838D01*
X0089331Y0077132D01*
X0091001Y0078803D02*
X0113816Y0078803D01*
X0113816Y0077204D02*
X0114684Y0075109D01*
X0116287Y0073506D01*
X0118382Y0072638D01*
X0120650Y0072638D01*
X0122745Y0073506D01*
X0124348Y0075109D01*
X0125216Y0077204D01*
X0125616Y0077204D01*
X0125216Y0077204D02*
X0125216Y0079472D01*
X0124348Y0081567D01*
X0122745Y0083170D01*
X0122052Y0083457D01*
X0122399Y0083634D01*
X0123099Y0084143D01*
X0123711Y0084755D01*
X0124220Y0085456D01*
X0124613Y0086227D01*
X0124881Y0087050D01*
X0125016Y0087905D01*
X0125016Y0088338D01*
X0119516Y0088338D01*
X0119516Y0088338D01*
X0114016Y0088338D01*
X0114016Y0087905D01*
X0114151Y0087050D01*
X0114419Y0086227D01*
X0114812Y0085456D01*
X0115321Y0084755D01*
X0115933Y0084143D01*
X0116633Y0083634D01*
X0116980Y0083457D01*
X0116322Y0083185D01*
X0112216Y0087291D01*
X0112216Y0095586D01*
X0114269Y0097638D01*
X0115650Y0097638D01*
X0117745Y0098506D01*
X0119348Y0100109D01*
X0120216Y0102204D01*
X0120216Y0104472D01*
X0119348Y0106567D01*
X0117745Y0108170D01*
X0119592Y0105977D02*
X0124440Y0105977D01*
X0123816Y0104379D02*
X0120216Y0104379D01*
X0120216Y0102780D02*
X0123816Y0102780D01*
X0124239Y0101182D02*
X0119792Y0101182D01*
X0118822Y0099583D02*
X0125210Y0099583D01*
X0125616Y0097985D02*
X0116487Y0097985D01*
X0113017Y0096386D02*
X0125616Y0096386D01*
X0125616Y0094788D02*
X0112216Y0094788D01*
X0112216Y0093189D02*
X0116922Y0093189D01*
X0116633Y0093042D02*
X0115933Y0092533D01*
X0115321Y0091921D01*
X0114812Y0091221D01*
X0114419Y0090449D01*
X0114151Y0089626D01*
X0114016Y0088771D01*
X0114016Y0088338D01*
X0119516Y0088338D01*
X0119516Y0088338D01*
X0125016Y0088338D01*
X0125016Y0088771D01*
X0124881Y0089626D01*
X0124613Y0090449D01*
X0124220Y0091221D01*
X0123711Y0091921D01*
X0123099Y0092533D01*
X0122399Y0093042D01*
X0121627Y0093435D01*
X0120804Y0093703D01*
X0119949Y0093838D01*
X0119516Y0093838D01*
X0119516Y0088338D01*
X0119516Y0088338D01*
X0119516Y0093838D01*
X0119083Y0093838D01*
X0118228Y0093703D01*
X0117405Y0093435D01*
X0116633Y0093042D01*
X0115081Y0091591D02*
X0112216Y0091591D01*
X0112216Y0089992D02*
X0114270Y0089992D01*
X0114016Y0088394D02*
X0112216Y0088394D01*
X0112712Y0086795D02*
X0114234Y0086795D01*
X0114310Y0085197D02*
X0115000Y0085197D01*
X0115909Y0083598D02*
X0116704Y0083598D01*
X0112600Y0080401D02*
X0092086Y0080401D01*
X0092748Y0082000D02*
X0111002Y0082000D01*
X0109403Y0083598D02*
X0093016Y0083598D01*
X0093016Y0085197D02*
X0107805Y0085197D01*
X0107616Y0086795D02*
X0092699Y0086795D01*
X0092036Y0088394D02*
X0107616Y0088394D01*
X0107616Y0089992D02*
X0090883Y0089992D01*
X0089218Y0091591D02*
X0107616Y0091591D01*
X0107616Y0093189D02*
X0066316Y0093189D01*
X0066316Y0091591D02*
X0079814Y0091591D01*
X0078149Y0089992D02*
X0066316Y0089992D01*
X0066316Y0088394D02*
X0076996Y0088394D01*
X0076333Y0086795D02*
X0066316Y0086795D01*
X0066316Y0085197D02*
X0076016Y0085197D01*
X0076016Y0083598D02*
X0066316Y0083598D01*
X0066316Y0082000D02*
X0076284Y0082000D01*
X0076946Y0080401D02*
X0066316Y0080401D01*
X0066316Y0078803D02*
X0078031Y0078803D01*
X0079629Y0077204D02*
X0066316Y0077204D01*
X0066316Y0075606D02*
X0114478Y0075606D01*
X0115786Y0074007D02*
X0066316Y0074007D01*
X0066316Y0072409D02*
X0125616Y0072409D01*
X0125616Y0074007D02*
X0123246Y0074007D01*
X0124554Y0075606D02*
X0125616Y0075606D01*
X0125616Y0078803D02*
X0125216Y0078803D01*
X0124831Y0080401D02*
X0125616Y0080401D01*
X0125616Y0082000D02*
X0123915Y0082000D01*
X0122328Y0083598D02*
X0125616Y0083598D01*
X0125616Y0085197D02*
X0124032Y0085197D01*
X0124798Y0086795D02*
X0125616Y0086795D01*
X0125616Y0088394D02*
X0125016Y0088394D01*
X0124762Y0089992D02*
X0125616Y0089992D01*
X0125616Y0091591D02*
X0123951Y0091591D01*
X0125616Y0093189D02*
X0122110Y0093189D01*
X0119516Y0093189D02*
X0119516Y0093189D01*
X0119516Y0091591D02*
X0119516Y0091591D01*
X0119516Y0089992D02*
X0119516Y0089992D01*
X0119516Y0088394D02*
X0119516Y0088394D01*
X0107616Y0094788D02*
X0066316Y0094788D01*
X0066316Y0096386D02*
X0107616Y0096386D01*
X0108110Y0097985D02*
X0066316Y0097985D01*
X0066316Y0099583D02*
X0109708Y0099583D01*
X0109239Y0101182D02*
X0066316Y0101182D01*
X0066316Y0102780D02*
X0108816Y0102780D01*
X0108816Y0104379D02*
X0066316Y0104379D01*
X0066316Y0105977D02*
X0109440Y0105977D01*
X0110693Y0107576D02*
X0066316Y0107576D01*
X0066316Y0109174D02*
X0139416Y0109174D01*
X0139416Y0110773D02*
X0066316Y0110773D01*
X0066316Y0112371D02*
X0139416Y0112371D01*
X0139416Y0113970D02*
X0066316Y0113970D01*
X0066316Y0115568D02*
X0139416Y0115568D01*
X0139416Y0117167D02*
X0066316Y0117167D01*
X0066316Y0118766D02*
X0139416Y0118766D01*
X0139416Y0120364D02*
X0066316Y0120364D01*
X0066316Y0121963D02*
X0139416Y0121963D01*
X0139416Y0123561D02*
X0066316Y0123561D01*
X0066316Y0125160D02*
X0139416Y0125160D01*
X0139416Y0126758D02*
X0066316Y0126758D01*
X0066316Y0128357D02*
X0139416Y0128357D01*
X0138046Y0129955D02*
X0066316Y0129955D01*
X0066316Y0131554D02*
X0136448Y0131554D01*
X0134849Y0133152D02*
X0066316Y0133152D01*
X0066316Y0134751D02*
X0133251Y0134751D01*
X0131652Y0136349D02*
X0097192Y0136349D01*
X0097032Y0136233D02*
X0097643Y0136677D01*
X0098177Y0137211D01*
X0098621Y0137822D01*
X0098964Y0138496D01*
X0099198Y0139214D01*
X0099316Y0139960D01*
X0099316Y0143138D01*
X0094716Y0143138D01*
X0094716Y0135538D01*
X0094894Y0135538D01*
X0095640Y0135656D01*
X0096359Y0135890D01*
X0097032Y0136233D01*
X0094716Y0136349D02*
X0094316Y0136349D01*
X0094316Y0135538D02*
X0094316Y0143138D01*
X0094716Y0143138D01*
X0094716Y0143538D01*
X0099316Y0143538D01*
X0099316Y0146716D01*
X0099198Y0147462D01*
X0098964Y0148181D01*
X0098621Y0148854D01*
X0098177Y0149465D01*
X0097643Y0149999D01*
X0097032Y0150444D01*
X0096359Y0150787D01*
X0095640Y0151020D01*
X0094894Y0151138D01*
X0094716Y0151138D01*
X0094716Y0143538D01*
X0094316Y0143538D01*
X0094316Y0143138D01*
X0089716Y0143138D01*
X0089716Y0139960D01*
X0089834Y0139214D01*
X0090068Y0138496D01*
X0090411Y0137822D01*
X0090855Y0137211D01*
X0091389Y0136677D01*
X0092000Y0136233D01*
X0092673Y0135890D01*
X0093392Y0135656D01*
X0094138Y0135538D01*
X0094316Y0135538D01*
X0094316Y0137948D02*
X0094716Y0137948D01*
X0094716Y0139546D02*
X0094316Y0139546D01*
X0094316Y0141145D02*
X0094716Y0141145D01*
X0094716Y0142743D02*
X0094316Y0142743D01*
X0094316Y0143538D02*
X0089716Y0143538D01*
X0089716Y0146716D01*
X0089834Y0147462D01*
X0090068Y0148181D01*
X0090411Y0148854D01*
X0090855Y0149465D01*
X0091389Y0149999D01*
X0092000Y0150444D01*
X0092673Y0150787D01*
X0093392Y0151020D01*
X0094138Y0151138D01*
X0094316Y0151138D01*
X0094316Y0143538D01*
X0094316Y0144342D02*
X0094716Y0144342D01*
X0094716Y0145940D02*
X0094316Y0145940D01*
X0094316Y0147539D02*
X0094716Y0147539D01*
X0094716Y0149137D02*
X0094316Y0149137D01*
X0094316Y0150736D02*
X0094716Y0150736D01*
X0096458Y0150736D02*
X0102866Y0150736D01*
X0104464Y0149137D02*
X0098415Y0149137D01*
X0099173Y0147539D02*
X0106063Y0147539D01*
X0107661Y0145940D02*
X0099316Y0145940D01*
X0099316Y0144342D02*
X0108816Y0144342D01*
X0108816Y0142743D02*
X0099316Y0142743D01*
X0099316Y0141145D02*
X0109255Y0141145D01*
X0110247Y0139546D02*
X0099250Y0139546D01*
X0098685Y0137948D02*
X0112635Y0137948D01*
X0116397Y0137948D02*
X0127635Y0137948D01*
X0125247Y0139546D02*
X0118785Y0139546D01*
X0119777Y0141145D02*
X0124255Y0141145D01*
X0123816Y0142743D02*
X0120216Y0142743D01*
X0120772Y0144342D02*
X0123060Y0144342D01*
X0124770Y0149137D02*
X0134062Y0149137D01*
X0135661Y0150736D02*
X0109371Y0150736D01*
X0107773Y0152334D02*
X0137259Y0152334D01*
X0138858Y0153933D02*
X0106174Y0153933D01*
X0104576Y0155531D02*
X0140456Y0155531D01*
X0143765Y0152334D02*
X0167267Y0152334D01*
X0165669Y0153933D02*
X0160963Y0153933D01*
X0162562Y0155531D02*
X0164070Y0155531D01*
X0167379Y0158728D02*
X0171926Y0158728D01*
X0170103Y0160327D02*
X0165780Y0160327D01*
X0165616Y0161925D02*
X0169419Y0161925D01*
X0169266Y0163524D02*
X0165616Y0163524D01*
X0165616Y0165122D02*
X0169572Y0165122D01*
X0170474Y0166721D02*
X0165616Y0166721D01*
X0165616Y0168319D02*
X0172823Y0168319D01*
X0176209Y0168319D02*
X0182016Y0168319D01*
X0182016Y0166721D02*
X0178558Y0166721D01*
X0180784Y0165122D02*
X0182079Y0165122D01*
X0182383Y0163524D02*
X0183678Y0163524D01*
X0183982Y0161925D02*
X0185276Y0161925D01*
X0185580Y0160327D02*
X0186875Y0160327D01*
X0187179Y0158728D02*
X0187316Y0158728D01*
X0187216Y0157130D02*
X0187437Y0157130D01*
X0187216Y0155531D02*
X0188217Y0155531D01*
X0187216Y0153933D02*
X0190531Y0153933D01*
X0189543Y0152334D02*
X0187216Y0152334D01*
X0187216Y0150736D02*
X0187930Y0150736D01*
X0187316Y0149137D02*
X0187216Y0149137D01*
X0187216Y0147539D02*
X0187316Y0147539D01*
X0187216Y0145940D02*
X0187930Y0145940D01*
X0187216Y0144342D02*
X0189544Y0144342D01*
X0190530Y0142743D02*
X0187216Y0142743D01*
X0187216Y0141145D02*
X0188217Y0141145D01*
X0188016Y0140944D02*
X0187316Y0139253D01*
X0187316Y0137423D01*
X0188016Y0135733D01*
X0189310Y0134439D01*
X0191001Y0133738D01*
X0198031Y0133738D01*
X0199722Y0134439D01*
X0201016Y0135733D01*
X0201716Y0137423D01*
X0201716Y0139253D01*
X0201016Y0140944D01*
X0199722Y0142238D01*
X0198031Y0142938D01*
X0191001Y0142938D01*
X0189310Y0142238D01*
X0188016Y0140944D01*
X0187437Y0139546D02*
X0187216Y0139546D01*
X0187216Y0137948D02*
X0187316Y0137948D01*
X0187216Y0136349D02*
X0187761Y0136349D01*
X0187216Y0134751D02*
X0188998Y0134751D01*
X0187216Y0133152D02*
X0198477Y0133152D01*
X0200034Y0134751D02*
X0200076Y0134751D01*
X0201271Y0136349D02*
X0201674Y0136349D01*
X0201716Y0137948D02*
X0202416Y0137948D01*
X0202416Y0139546D02*
X0201595Y0139546D01*
X0200815Y0141145D02*
X0202416Y0141145D01*
X0202416Y0142743D02*
X0198502Y0142743D01*
X0199488Y0144342D02*
X0202416Y0144342D01*
X0202416Y0145940D02*
X0201102Y0145940D01*
X0201716Y0147539D02*
X0202416Y0147539D01*
X0202416Y0149137D02*
X0201716Y0149137D01*
X0207016Y0149137D02*
X0212616Y0149137D01*
X0212616Y0147539D02*
X0207016Y0147539D01*
X0207016Y0145940D02*
X0212616Y0145940D01*
X0212616Y0144342D02*
X0207016Y0144342D01*
X0207016Y0142743D02*
X0212616Y0142743D01*
X0212616Y0141145D02*
X0207016Y0141145D01*
X0207016Y0139546D02*
X0212616Y0139546D01*
X0212616Y0137948D02*
X0207016Y0137948D01*
X0207016Y0136349D02*
X0211874Y0136349D01*
X0210276Y0134751D02*
X0206581Y0134751D01*
X0204983Y0133152D02*
X0208677Y0133152D01*
X0207079Y0131554D02*
X0203384Y0131554D01*
X0201786Y0129955D02*
X0205480Y0129955D01*
X0203882Y0128357D02*
X0201716Y0128357D01*
X0201440Y0126758D02*
X0202283Y0126758D01*
X0200685Y0125160D02*
X0200443Y0125160D01*
X0199086Y0123561D02*
X0187216Y0123561D01*
X0187216Y0121963D02*
X0189035Y0121963D01*
X0187776Y0120364D02*
X0187216Y0120364D01*
X0187216Y0118766D02*
X0187316Y0118766D01*
X0187216Y0117167D02*
X0187422Y0117167D01*
X0189937Y0113970D02*
X0190441Y0113970D01*
X0186629Y0110773D02*
X0174136Y0110773D01*
X0173967Y0110364D02*
X0174766Y0112294D01*
X0174766Y0114382D01*
X0173967Y0116312D01*
X0172490Y0117789D01*
X0170560Y0118588D01*
X0168472Y0118588D01*
X0166542Y0117789D01*
X0165065Y0116312D01*
X0164266Y0114382D01*
X0164266Y0112294D01*
X0165065Y0110364D01*
X0166542Y0108887D01*
X0168472Y0108088D01*
X0169513Y0108088D01*
X0170963Y0106638D01*
X0157069Y0106638D01*
X0154766Y0108941D01*
X0154766Y0109382D01*
X0153967Y0111312D01*
X0152490Y0112789D01*
X0150859Y0113465D01*
X0151454Y0113658D01*
X0152163Y0114019D01*
X0152806Y0114486D01*
X0153368Y0115048D01*
X0153835Y0115691D01*
X0154196Y0116400D01*
X0154442Y0117156D01*
X0154566Y0117941D01*
X0154566Y0118338D01*
X0149516Y0118338D01*
X0149516Y0118338D01*
X0144466Y0118338D01*
X0144466Y0117941D01*
X0144590Y0117156D01*
X0144836Y0116400D01*
X0145197Y0115691D01*
X0145664Y0115048D01*
X0146226Y0114486D01*
X0146869Y0114019D01*
X0147577Y0113658D01*
X0148173Y0113465D01*
X0146542Y0112789D01*
X0145065Y0111312D01*
X0144266Y0109382D01*
X0144266Y0107294D01*
X0145065Y0105364D01*
X0146542Y0103887D01*
X0147868Y0103338D01*
X0146542Y0102789D01*
X0145065Y0101312D01*
X0144266Y0099382D01*
X0144266Y0097294D01*
X0145065Y0095364D01*
X0146542Y0093887D01*
X0148173Y0093212D01*
X0147577Y0093018D01*
X0146869Y0092657D01*
X0146226Y0092190D01*
X0145664Y0091628D01*
X0145197Y0090985D01*
X0144836Y0090277D01*
X0144590Y0089521D01*
X0144466Y0088736D01*
X0144466Y0088338D01*
X0144466Y0087941D01*
X0144590Y0087156D01*
X0144836Y0086400D01*
X0145197Y0085691D01*
X0145664Y0085048D01*
X0146226Y0084486D01*
X0146869Y0084019D01*
X0147577Y0083658D01*
X0148333Y0083413D01*
X0149119Y0083288D01*
X0149516Y0083288D01*
X0149913Y0083288D01*
X0150698Y0083413D01*
X0151454Y0083658D01*
X0152163Y0084019D01*
X0152806Y0084486D01*
X0153368Y0085048D01*
X0153835Y0085691D01*
X0154196Y0086400D01*
X0154442Y0087156D01*
X0154566Y0087941D01*
X0154566Y0088338D01*
X0149516Y0088338D01*
X0149516Y0083288D01*
X0149516Y0088338D01*
X0149516Y0088338D01*
X0149516Y0088338D01*
X0144466Y0088338D01*
X0149516Y0088338D01*
X0149516Y0088338D01*
X0154566Y0088338D01*
X0154566Y0088736D01*
X0154442Y0089521D01*
X0154196Y0090277D01*
X0153835Y0090985D01*
X0153368Y0091628D01*
X0152806Y0092190D01*
X0152163Y0092657D01*
X0151454Y0093018D01*
X0150859Y0093212D01*
X0152490Y0093887D01*
X0153967Y0095364D01*
X0153987Y0095414D01*
X0154416Y0094986D01*
X0154416Y0094986D01*
X0155763Y0093638D01*
X0161163Y0093638D01*
X0162363Y0092438D01*
X0164266Y0092438D01*
X0164266Y0092294D01*
X0165065Y0090364D01*
X0166542Y0088887D01*
X0168472Y0088088D01*
X0170560Y0088088D01*
X0171234Y0088367D01*
X0173763Y0085838D01*
X0181563Y0085838D01*
X0187560Y0079842D01*
X0187316Y0079253D01*
X0187316Y0077423D01*
X0188016Y0075733D01*
X0189310Y0074439D01*
X0191001Y0073738D01*
X0198031Y0073738D01*
X0199722Y0074439D01*
X0201016Y0075733D01*
X0201716Y0077423D01*
X0201716Y0079253D01*
X0201016Y0080944D01*
X0199722Y0082238D01*
X0198031Y0082938D01*
X0191001Y0082938D01*
X0190978Y0082929D01*
X0189580Y0084327D01*
X0191001Y0083738D01*
X0198031Y0083738D01*
X0199722Y0084439D01*
X0201016Y0085733D01*
X0201716Y0087423D01*
X0201716Y0089253D01*
X0201016Y0090944D01*
X0199722Y0092238D01*
X0198031Y0092938D01*
X0191001Y0092938D01*
X0190695Y0092812D01*
X0176416Y0107091D01*
X0176416Y0107691D01*
X0173855Y0110252D01*
X0173967Y0110364D01*
X0174932Y0109174D02*
X0187316Y0109174D01*
X0187316Y0107576D02*
X0176416Y0107576D01*
X0177529Y0105977D02*
X0187915Y0105977D01*
X0189454Y0104379D02*
X0179128Y0104379D01*
X0180726Y0102780D02*
X0199421Y0102780D01*
X0199422Y0102101D02*
X0198805Y0102416D01*
X0198146Y0102630D01*
X0197462Y0102738D01*
X0194516Y0102738D01*
X0194516Y0098338D01*
X0194516Y0093938D01*
X0197462Y0093938D01*
X0198146Y0094047D01*
X0198805Y0094261D01*
X0199422Y0094575D01*
X0199982Y0094982D01*
X0200472Y0095472D01*
X0200879Y0096032D01*
X0201194Y0096649D01*
X0201408Y0097308D01*
X0201516Y0097992D01*
X0201516Y0098338D01*
X0194516Y0098338D01*
X0194516Y0098338D01*
X0194516Y0093938D01*
X0191570Y0093938D01*
X0190886Y0094047D01*
X0190227Y0094261D01*
X0189610Y0094575D01*
X0189050Y0094982D01*
X0188560Y0095472D01*
X0188153Y0096032D01*
X0187838Y0096649D01*
X0187624Y0097308D01*
X0187516Y0097992D01*
X0187516Y0098338D01*
X0194516Y0098338D01*
X0194516Y0098338D01*
X0194516Y0098338D01*
X0201516Y0098338D01*
X0201516Y0098684D01*
X0201408Y0099369D01*
X0201194Y0100027D01*
X0200879Y0100644D01*
X0200472Y0101205D01*
X0199982Y0101694D01*
X0199422Y0102101D01*
X0200489Y0101182D02*
X0205820Y0101182D01*
X0207418Y0099583D02*
X0201338Y0099583D01*
X0201515Y0097985D02*
X0209017Y0097985D01*
X0210615Y0096386D02*
X0201060Y0096386D01*
X0199715Y0094788D02*
X0212214Y0094788D01*
X0213812Y0093189D02*
X0190317Y0093189D01*
X0189317Y0094788D02*
X0188719Y0094788D01*
X0187972Y0096386D02*
X0187120Y0096386D01*
X0187517Y0097985D02*
X0185522Y0097985D01*
X0187516Y0098338D02*
X0187516Y0098684D01*
X0187624Y0099369D01*
X0187838Y0100027D01*
X0188153Y0100644D01*
X0188560Y0101205D01*
X0189050Y0101694D01*
X0189610Y0102101D01*
X0190227Y0102416D01*
X0190886Y0102630D01*
X0191570Y0102738D01*
X0194516Y0102738D01*
X0194516Y0098338D01*
X0187516Y0098338D01*
X0187694Y0099583D02*
X0183923Y0099583D01*
X0182325Y0101182D02*
X0188543Y0101182D01*
X0194516Y0101182D02*
X0194516Y0101182D01*
X0194516Y0099583D02*
X0194516Y0099583D01*
X0194516Y0098338D02*
X0194516Y0098338D01*
X0194516Y0097985D02*
X0194516Y0097985D01*
X0194516Y0096386D02*
X0194516Y0096386D01*
X0194516Y0094788D02*
X0194516Y0094788D01*
X0200369Y0091591D02*
X0215411Y0091591D01*
X0217009Y0089992D02*
X0201410Y0089992D01*
X0201716Y0088394D02*
X0217316Y0088394D01*
X0217576Y0086795D02*
X0201456Y0086795D01*
X0200480Y0085197D02*
X0218552Y0085197D01*
X0219072Y0082000D02*
X0199960Y0082000D01*
X0201240Y0080401D02*
X0217791Y0080401D01*
X0217316Y0078803D02*
X0201716Y0078803D01*
X0201625Y0077204D02*
X0217407Y0077204D01*
X0215931Y0075606D02*
X0200889Y0075606D01*
X0198680Y0074007D02*
X0214332Y0074007D01*
X0212734Y0072409D02*
X0199309Y0072409D01*
X0201071Y0070810D02*
X0211135Y0070810D01*
X0209537Y0069212D02*
X0201716Y0069212D01*
X0201716Y0067613D02*
X0207938Y0067613D01*
X0206340Y0066015D02*
X0201132Y0066015D01*
X0190352Y0074007D02*
X0156100Y0074007D01*
X0157698Y0072409D02*
X0189723Y0072409D01*
X0187961Y0070810D02*
X0159297Y0070810D01*
X0160895Y0069212D02*
X0187316Y0069212D01*
X0187316Y0067613D02*
X0162494Y0067613D01*
X0164092Y0066015D02*
X0187899Y0066015D01*
X0185018Y0064416D02*
X0165691Y0064416D01*
X0172893Y0058022D02*
X0173979Y0058022D01*
X0174492Y0056424D02*
X0175578Y0056424D01*
X0175350Y0054825D02*
X0175216Y0054825D01*
X0180485Y0058022D02*
X0182096Y0058022D01*
X0182096Y0056424D02*
X0181851Y0056424D01*
X0182096Y0059621D02*
X0178886Y0059621D01*
X0177288Y0061219D02*
X0182661Y0061219D01*
X0183419Y0062818D02*
X0175689Y0062818D01*
X0188143Y0075606D02*
X0154501Y0075606D01*
X0152903Y0077204D02*
X0187407Y0077204D01*
X0187316Y0078803D02*
X0151304Y0078803D01*
X0149706Y0080401D02*
X0187000Y0080401D01*
X0185402Y0082000D02*
X0148107Y0082000D01*
X0147762Y0083598D02*
X0146509Y0083598D01*
X0145556Y0085197D02*
X0144910Y0085197D01*
X0144707Y0086795D02*
X0144016Y0086795D01*
X0144016Y0088394D02*
X0144466Y0088394D01*
X0144744Y0089992D02*
X0144016Y0089992D01*
X0144016Y0091591D02*
X0145637Y0091591D01*
X0144016Y0093189D02*
X0148104Y0093189D01*
X0150928Y0093189D02*
X0161612Y0093189D01*
X0164557Y0091591D02*
X0153395Y0091591D01*
X0154288Y0089992D02*
X0165437Y0089992D01*
X0167734Y0088394D02*
X0154566Y0088394D01*
X0154325Y0086795D02*
X0172806Y0086795D01*
X0182205Y0085197D02*
X0153476Y0085197D01*
X0151270Y0083598D02*
X0183803Y0083598D01*
X0190309Y0083598D02*
X0241195Y0083598D01*
X0240116Y0082000D02*
X0229960Y0082000D01*
X0231240Y0080401D02*
X0239201Y0080401D01*
X0238816Y0078803D02*
X0231716Y0078803D01*
X0231625Y0077204D02*
X0237929Y0077204D01*
X0239648Y0085197D02*
X0230480Y0085197D01*
X0231456Y0086795D02*
X0238985Y0086795D01*
X0238816Y0088394D02*
X0231716Y0088394D01*
X0231410Y0089992D02*
X0239031Y0089992D01*
X0239708Y0091591D02*
X0230369Y0091591D01*
X0230071Y0094788D02*
X0240005Y0094788D01*
X0239155Y0096386D02*
X0231286Y0096386D01*
X0231716Y0097985D02*
X0238816Y0097985D01*
X0238018Y0099583D02*
X0231579Y0099583D01*
X0229704Y0104379D02*
X0229037Y0104379D01*
X0228805Y0104261D02*
X0229422Y0104575D01*
X0229982Y0104982D01*
X0230472Y0105472D01*
X0230879Y0106032D01*
X0231194Y0106649D01*
X0231408Y0107308D01*
X0231516Y0107992D01*
X0231516Y0108338D01*
X0224516Y0108338D01*
X0224516Y0103938D01*
X0227462Y0103938D01*
X0228146Y0104047D01*
X0228805Y0104261D01*
X0230839Y0105977D02*
X0239324Y0105977D01*
X0239728Y0104379D02*
X0240414Y0104379D01*
X0238816Y0107576D02*
X0231450Y0107576D01*
X0231516Y0108338D02*
X0231516Y0108684D01*
X0231408Y0109369D01*
X0231194Y0110027D01*
X0230879Y0110644D01*
X0230472Y0111205D01*
X0229982Y0111694D01*
X0229422Y0112101D01*
X0228805Y0112416D01*
X0228146Y0112630D01*
X0227462Y0112738D01*
X0224516Y0112738D01*
X0224516Y0108338D01*
X0224516Y0108338D01*
X0224516Y0103938D01*
X0221570Y0103938D01*
X0220886Y0104047D01*
X0220227Y0104261D01*
X0219610Y0104575D01*
X0219050Y0104982D01*
X0218560Y0105472D01*
X0218153Y0106032D01*
X0217838Y0106649D01*
X0217624Y0107308D01*
X0217516Y0107992D01*
X0217516Y0108338D01*
X0224516Y0108338D01*
X0224516Y0108338D01*
X0224516Y0108338D01*
X0231516Y0108338D01*
X0231438Y0109174D02*
X0237427Y0109174D01*
X0239137Y0113970D02*
X0240823Y0113970D01*
X0239494Y0115568D02*
X0232738Y0115568D01*
X0231610Y0117167D02*
X0238831Y0117167D01*
X0238036Y0118766D02*
X0231716Y0118766D01*
X0231637Y0120364D02*
X0231256Y0120364D01*
X0230039Y0121963D02*
X0229997Y0121963D01*
X0228440Y0123561D02*
X0205591Y0123561D01*
X0203993Y0121963D02*
X0219035Y0121963D01*
X0217776Y0120364D02*
X0202394Y0120364D01*
X0201716Y0118766D02*
X0217316Y0118766D01*
X0217422Y0117167D02*
X0201610Y0117167D01*
X0200852Y0115568D02*
X0218180Y0115568D01*
X0220441Y0113970D02*
X0198591Y0113970D01*
X0199399Y0112371D02*
X0220140Y0112371D01*
X0220227Y0112416D02*
X0219610Y0112101D01*
X0219050Y0111694D01*
X0218560Y0111205D01*
X0218153Y0110644D01*
X0217838Y0110027D01*
X0217624Y0109369D01*
X0217516Y0108684D01*
X0217516Y0108338D01*
X0224516Y0108338D01*
X0224516Y0108338D01*
X0224516Y0112738D01*
X0221570Y0112738D01*
X0220886Y0112630D01*
X0220227Y0112416D01*
X0218246Y0110773D02*
X0201086Y0110773D01*
X0201716Y0109174D02*
X0217594Y0109174D01*
X0217582Y0107576D02*
X0201716Y0107576D01*
X0207529Y0105977D02*
X0218192Y0105977D01*
X0219995Y0104379D02*
X0209128Y0104379D01*
X0210726Y0102780D02*
X0220620Y0102780D01*
X0218254Y0101182D02*
X0212325Y0101182D01*
X0213923Y0099583D02*
X0217453Y0099583D01*
X0217316Y0097985D02*
X0215522Y0097985D01*
X0217120Y0096386D02*
X0217745Y0096386D01*
X0218719Y0094788D02*
X0218961Y0094788D01*
X0220317Y0093189D02*
X0241333Y0093189D01*
X0247699Y0093189D02*
X0256716Y0093189D01*
X0256716Y0091591D02*
X0249324Y0091591D01*
X0250000Y0089992D02*
X0256716Y0089992D01*
X0256716Y0088394D02*
X0250216Y0088394D01*
X0250046Y0086795D02*
X0256716Y0086795D01*
X0256716Y0085197D02*
X0249384Y0085197D01*
X0247837Y0083598D02*
X0256716Y0083598D01*
X0256716Y0082000D02*
X0248915Y0082000D01*
X0249831Y0080401D02*
X0256716Y0080401D01*
X0256716Y0078803D02*
X0250216Y0078803D01*
X0248246Y0074007D02*
X0256716Y0074007D01*
X0256716Y0072409D02*
X0248506Y0072409D01*
X0249662Y0070810D02*
X0256716Y0070810D01*
X0256716Y0069212D02*
X0250216Y0069212D01*
X0250216Y0067613D02*
X0256716Y0067613D01*
X0256716Y0066015D02*
X0249723Y0066015D01*
X0248655Y0064416D02*
X0256716Y0064416D01*
X0256716Y0062818D02*
X0248098Y0062818D01*
X0249492Y0061219D02*
X0256716Y0061219D01*
X0256716Y0059621D02*
X0250154Y0059621D01*
X0250216Y0058022D02*
X0256716Y0058022D01*
X0256716Y0056424D02*
X0249893Y0056424D01*
X0249064Y0054825D02*
X0256716Y0054825D01*
X0256716Y0053227D02*
X0247609Y0053227D01*
X0249287Y0051628D02*
X0256716Y0051628D01*
X0256716Y0050030D02*
X0249985Y0050030D01*
X0250216Y0048431D02*
X0256716Y0048431D01*
X0256716Y0046833D02*
X0250062Y0046833D01*
X0249400Y0045234D02*
X0256716Y0045234D01*
X0256716Y0043635D02*
X0247874Y0043635D01*
X0248878Y0042037D02*
X0256716Y0042037D01*
X0256716Y0040438D02*
X0249816Y0040438D01*
X0250216Y0038840D02*
X0256716Y0038840D01*
X0256716Y0037241D02*
X0250216Y0037241D01*
X0249569Y0035643D02*
X0256716Y0035643D01*
X0256716Y0034044D02*
X0248283Y0034044D01*
X0248469Y0032446D02*
X0256716Y0032446D01*
X0256716Y0030847D02*
X0249646Y0030847D01*
X0250216Y0029249D02*
X0256716Y0029249D01*
X0256716Y0027650D02*
X0250216Y0027650D01*
X0249739Y0026052D02*
X0256716Y0026052D01*
X0256716Y0024453D02*
X0248692Y0024453D01*
X0248060Y0022855D02*
X0256716Y0022855D01*
X0256716Y0021256D02*
X0249477Y0021256D01*
X0250139Y0019658D02*
X0256716Y0019658D01*
X0256716Y0018059D02*
X0250216Y0018059D01*
X0249908Y0016461D02*
X0256716Y0016461D01*
X0256716Y0014862D02*
X0249101Y0014862D01*
X0247160Y0013264D02*
X0256716Y0013264D01*
X0256716Y0011665D02*
X0168696Y0011665D01*
X0170294Y0013264D02*
X0241872Y0013264D01*
X0239931Y0014862D02*
X0171893Y0014862D01*
X0173491Y0016461D02*
X0239124Y0016461D01*
X0238542Y0018059D02*
X0175090Y0018059D01*
X0176688Y0019658D02*
X0236944Y0019658D01*
X0210745Y0021256D02*
X0178287Y0021256D01*
X0179885Y0022855D02*
X0209147Y0022855D01*
X0207548Y0024453D02*
X0181484Y0024453D01*
X0183082Y0026052D02*
X0205950Y0026052D01*
X0204351Y0027650D02*
X0184681Y0027650D01*
X0186279Y0029249D02*
X0202753Y0029249D01*
X0201154Y0030847D02*
X0187878Y0030847D01*
X0189476Y0032446D02*
X0199556Y0032446D01*
X0154016Y0054825D02*
X0130216Y0054825D01*
X0125616Y0054825D02*
X0066316Y0054825D01*
X0066316Y0053227D02*
X0125616Y0053227D01*
X0125616Y0051628D02*
X0066316Y0051628D01*
X0066316Y0050030D02*
X0124355Y0050030D01*
X0125616Y0056424D02*
X0066316Y0056424D01*
X0066316Y0058022D02*
X0111418Y0058022D01*
X0111200Y0058133D02*
X0111873Y0057790D01*
X0112592Y0057556D01*
X0113338Y0057438D01*
X0116516Y0057438D01*
X0116516Y0062038D01*
X0116916Y0062038D01*
X0116916Y0057438D01*
X0120094Y0057438D01*
X0120840Y0057556D01*
X0121559Y0057790D01*
X0122232Y0058133D01*
X0122843Y0058577D01*
X0123377Y0059111D01*
X0123821Y0059722D01*
X0124164Y0060396D01*
X0124398Y0061114D01*
X0124516Y0061860D01*
X0124516Y0062038D01*
X0116916Y0062038D01*
X0116916Y0062438D01*
X0124516Y0062438D01*
X0124516Y0062616D01*
X0124398Y0063362D01*
X0124164Y0064081D01*
X0123821Y0064754D01*
X0123377Y0065365D01*
X0122843Y0065899D01*
X0122232Y0066344D01*
X0121559Y0066687D01*
X0120840Y0066920D01*
X0120094Y0067038D01*
X0116916Y0067038D01*
X0116916Y0062438D01*
X0116516Y0062438D01*
X0116516Y0062038D01*
X0108916Y0062038D01*
X0108916Y0061860D01*
X0109034Y0061114D01*
X0109268Y0060396D01*
X0109611Y0059722D01*
X0110055Y0059111D01*
X0110589Y0058577D01*
X0111200Y0058133D01*
X0109685Y0059621D02*
X0066316Y0059621D01*
X0066316Y0061219D02*
X0109018Y0061219D01*
X0108916Y0062438D02*
X0116516Y0062438D01*
X0116516Y0067038D01*
X0113338Y0067038D01*
X0112592Y0066920D01*
X0111873Y0066687D01*
X0111200Y0066344D01*
X0110589Y0065899D01*
X0110055Y0065365D01*
X0109611Y0064754D01*
X0109268Y0064081D01*
X0109034Y0063362D01*
X0108916Y0062616D01*
X0108916Y0062438D01*
X0108948Y0062818D02*
X0066316Y0062818D01*
X0066316Y0064416D02*
X0109439Y0064416D01*
X0110748Y0066015D02*
X0066316Y0066015D01*
X0066316Y0067613D02*
X0125616Y0067613D01*
X0125616Y0066015D02*
X0122684Y0066015D01*
X0123993Y0064416D02*
X0125616Y0064416D01*
X0125616Y0062818D02*
X0124484Y0062818D01*
X0124414Y0061219D02*
X0125616Y0061219D01*
X0125616Y0059621D02*
X0123747Y0059621D01*
X0122014Y0058022D02*
X0125616Y0058022D01*
X0116916Y0058022D02*
X0116516Y0058022D01*
X0116516Y0059621D02*
X0116916Y0059621D01*
X0116916Y0061219D02*
X0116516Y0061219D01*
X0116516Y0062818D02*
X0116916Y0062818D01*
X0116916Y0064416D02*
X0116516Y0064416D01*
X0116516Y0066015D02*
X0116916Y0066015D01*
X0125616Y0069212D02*
X0066316Y0069212D01*
X0066316Y0070810D02*
X0125616Y0070810D01*
X0149516Y0083598D02*
X0149516Y0083598D01*
X0149516Y0085197D02*
X0149516Y0085197D01*
X0149516Y0086795D02*
X0149516Y0086795D01*
X0153390Y0094788D02*
X0154614Y0094788D01*
X0145642Y0094788D02*
X0144016Y0094788D01*
X0144016Y0096386D02*
X0144642Y0096386D01*
X0144266Y0097985D02*
X0144016Y0097985D01*
X0144016Y0099583D02*
X0144349Y0099583D01*
X0144016Y0101182D02*
X0145011Y0101182D01*
X0144016Y0102780D02*
X0146534Y0102780D01*
X0146051Y0104379D02*
X0144016Y0104379D01*
X0144016Y0105977D02*
X0144811Y0105977D01*
X0144266Y0107576D02*
X0144016Y0107576D01*
X0144016Y0109174D02*
X0144266Y0109174D01*
X0144016Y0110773D02*
X0144842Y0110773D01*
X0144016Y0112371D02*
X0146125Y0112371D01*
X0146965Y0113970D02*
X0144016Y0113970D01*
X0144016Y0115568D02*
X0145286Y0115568D01*
X0144588Y0117167D02*
X0144016Y0117167D01*
X0144466Y0118338D02*
X0149516Y0118338D01*
X0149516Y0118338D01*
X0154566Y0118338D01*
X0154566Y0118736D01*
X0154442Y0119521D01*
X0154196Y0120277D01*
X0153835Y0120985D01*
X0153368Y0121628D01*
X0152806Y0122190D01*
X0152163Y0122657D01*
X0151454Y0123018D01*
X0150698Y0123264D01*
X0149913Y0123388D01*
X0149516Y0123388D01*
X0149516Y0118338D01*
X0149516Y0118338D01*
X0149516Y0123388D01*
X0149119Y0123388D01*
X0148333Y0123264D01*
X0147577Y0123018D01*
X0146869Y0122657D01*
X0146226Y0122190D01*
X0145664Y0121628D01*
X0145197Y0120985D01*
X0144836Y0120277D01*
X0144590Y0119521D01*
X0144466Y0118736D01*
X0144466Y0118338D01*
X0144471Y0118766D02*
X0144016Y0118766D01*
X0144016Y0120364D02*
X0144880Y0120364D01*
X0144016Y0121963D02*
X0145999Y0121963D01*
X0144016Y0123561D02*
X0182616Y0123561D01*
X0182616Y0121963D02*
X0153033Y0121963D01*
X0154151Y0120364D02*
X0182616Y0120364D01*
X0182616Y0118766D02*
X0154561Y0118766D01*
X0154443Y0117167D02*
X0165920Y0117167D01*
X0164757Y0115568D02*
X0153746Y0115568D01*
X0152066Y0113970D02*
X0164266Y0113970D01*
X0164266Y0112371D02*
X0152907Y0112371D01*
X0154190Y0110773D02*
X0164896Y0110773D01*
X0166255Y0109174D02*
X0154766Y0109174D01*
X0156131Y0107576D02*
X0170026Y0107576D01*
X0174766Y0112371D02*
X0185030Y0112371D01*
X0183431Y0113970D02*
X0174766Y0113970D01*
X0174275Y0115568D02*
X0182616Y0115568D01*
X0182616Y0117167D02*
X0173112Y0117167D01*
X0182616Y0125160D02*
X0144016Y0125160D01*
X0144016Y0126758D02*
X0182616Y0126758D01*
X0182616Y0128357D02*
X0144016Y0128357D01*
X0144016Y0129955D02*
X0182616Y0129955D01*
X0182616Y0131554D02*
X0142953Y0131554D01*
X0141355Y0133152D02*
X0182616Y0133152D01*
X0182616Y0134751D02*
X0139756Y0134751D01*
X0138158Y0136349D02*
X0182616Y0136349D01*
X0182616Y0137948D02*
X0136559Y0137948D01*
X0134961Y0139546D02*
X0182616Y0139546D01*
X0182616Y0141145D02*
X0134777Y0141145D01*
X0135216Y0142743D02*
X0182616Y0142743D01*
X0182616Y0144342D02*
X0135772Y0144342D01*
X0137371Y0145940D02*
X0182616Y0145940D01*
X0182616Y0147539D02*
X0138969Y0147539D01*
X0140568Y0149137D02*
X0169388Y0149137D01*
X0169266Y0150736D02*
X0142166Y0150736D01*
X0150782Y0158728D02*
X0118250Y0158728D01*
X0117858Y0158336D02*
X0119518Y0159996D01*
X0120416Y0162165D01*
X0120416Y0164512D01*
X0119518Y0166680D01*
X0117858Y0168340D01*
X0115690Y0169238D01*
X0115469Y0169238D01*
X0115069Y0169638D01*
X0113416Y0171291D01*
X0113416Y0177891D01*
X0112069Y0179238D01*
X0109244Y0182063D01*
X0109292Y0182177D01*
X0109292Y0184500D01*
X0108403Y0186645D01*
X0106760Y0188288D01*
X0104614Y0189177D01*
X0102292Y0189177D01*
X0100146Y0188288D01*
X0098503Y0186645D01*
X0097614Y0184500D01*
X0097614Y0182177D01*
X0098503Y0180031D01*
X0100146Y0178388D01*
X0102292Y0177500D01*
X0104614Y0177500D01*
X0106515Y0178287D01*
X0108816Y0175986D01*
X0108816Y0169386D01*
X0110518Y0167684D01*
X0109514Y0166680D01*
X0108616Y0164512D01*
X0108616Y0162165D01*
X0109514Y0159996D01*
X0111174Y0158336D01*
X0113342Y0157438D01*
X0115690Y0157438D01*
X0117858Y0158336D01*
X0119655Y0160327D02*
X0149377Y0160327D01*
X0149514Y0159996D02*
X0151174Y0158336D01*
X0153342Y0157438D01*
X0155690Y0157438D01*
X0157858Y0158336D01*
X0159518Y0159996D01*
X0160416Y0162165D01*
X0160416Y0164512D01*
X0159518Y0166680D01*
X0157858Y0168340D01*
X0155690Y0169238D01*
X0153342Y0169238D01*
X0151174Y0168340D01*
X0149514Y0166680D01*
X0148616Y0164512D01*
X0148616Y0162165D01*
X0149514Y0159996D01*
X0148715Y0161925D02*
X0120317Y0161925D01*
X0120416Y0163524D02*
X0148616Y0163524D01*
X0148869Y0165122D02*
X0120163Y0165122D01*
X0119477Y0166721D02*
X0149555Y0166721D01*
X0151153Y0168319D02*
X0117879Y0168319D01*
X0114789Y0169918D02*
X0161016Y0169918D01*
X0161016Y0171516D02*
X0113416Y0171516D01*
X0113416Y0173115D02*
X0161016Y0173115D01*
X0161016Y0174713D02*
X0113416Y0174713D01*
X0113416Y0176312D02*
X0161016Y0176312D01*
X0161016Y0177910D02*
X0113396Y0177910D01*
X0111798Y0179509D02*
X0160493Y0179509D01*
X0158894Y0181107D02*
X0110199Y0181107D01*
X0109292Y0182706D02*
X0158016Y0182706D01*
X0154266Y0184304D02*
X0152556Y0184304D01*
X0153943Y0185903D02*
X0154266Y0185903D01*
X0149516Y0185903D02*
X0149516Y0185903D01*
X0149516Y0187502D02*
X0149516Y0187502D01*
X0149516Y0188338D02*
X0149516Y0188338D01*
X0149516Y0183288D01*
X0149119Y0183288D01*
X0148333Y0183413D01*
X0147577Y0183658D01*
X0146869Y0184019D01*
X0146226Y0184486D01*
X0145664Y0185048D01*
X0145197Y0185691D01*
X0144836Y0186400D01*
X0144590Y0187156D01*
X0144466Y0187941D01*
X0144466Y0188338D01*
X0149516Y0188338D01*
X0149516Y0188338D01*
X0144466Y0188338D01*
X0144466Y0188736D01*
X0144590Y0189521D01*
X0144836Y0190277D01*
X0145197Y0190985D01*
X0145664Y0191628D01*
X0146226Y0192190D01*
X0146869Y0192657D01*
X0147577Y0193018D01*
X0148333Y0193264D01*
X0149119Y0193388D01*
X0149516Y0193388D01*
X0149516Y0188338D01*
X0149516Y0188338D01*
X0149516Y0189100D02*
X0149516Y0189100D01*
X0149516Y0190699D02*
X0149516Y0190699D01*
X0149516Y0192297D02*
X0149516Y0192297D01*
X0146373Y0192297D02*
X0134766Y0192297D01*
X0134766Y0192417D02*
X0133594Y0193588D01*
X0125438Y0193588D01*
X0124266Y0192417D01*
X0124266Y0190061D01*
X0124196Y0190277D01*
X0123835Y0190985D01*
X0123368Y0191628D01*
X0122806Y0192190D01*
X0122163Y0192657D01*
X0121454Y0193018D01*
X0120698Y0193264D01*
X0119913Y0193388D01*
X0119516Y0193388D01*
X0119516Y0188338D01*
X0119516Y0183288D01*
X0119913Y0183288D01*
X0120698Y0183413D01*
X0121454Y0183658D01*
X0122163Y0184019D01*
X0122806Y0184486D01*
X0123368Y0185048D01*
X0123835Y0185691D01*
X0124196Y0186400D01*
X0124266Y0186615D01*
X0124266Y0184260D01*
X0125438Y0183088D01*
X0133594Y0183088D01*
X0134766Y0184260D01*
X0134766Y0192417D01*
X0134766Y0190699D02*
X0145051Y0190699D01*
X0144524Y0189100D02*
X0134766Y0189100D01*
X0134766Y0187502D02*
X0144536Y0187502D01*
X0145089Y0185903D02*
X0134766Y0185903D01*
X0134766Y0184304D02*
X0146476Y0184304D01*
X0149516Y0184304D02*
X0149516Y0184304D01*
X0153981Y0190699D02*
X0154266Y0190699D01*
X0154266Y0192297D02*
X0152659Y0192297D01*
X0164766Y0192297D02*
X0256716Y0192297D01*
X0256716Y0190699D02*
X0164766Y0190699D01*
X0164766Y0189100D02*
X0256716Y0189100D01*
X0256716Y0187502D02*
X0253414Y0187502D01*
X0254623Y0185903D02*
X0256716Y0185903D01*
X0256716Y0184304D02*
X0255216Y0184304D01*
X0255216Y0182706D02*
X0256716Y0182706D01*
X0256716Y0181107D02*
X0254762Y0181107D01*
X0253748Y0179509D02*
X0256716Y0179509D01*
X0256716Y0177910D02*
X0251307Y0177910D01*
X0247725Y0177910D02*
X0241307Y0177910D01*
X0243748Y0179509D02*
X0245284Y0179509D01*
X0244316Y0173838D02*
X0244083Y0173838D01*
X0243228Y0173703D01*
X0242405Y0173435D01*
X0241633Y0173042D01*
X0240933Y0172533D01*
X0240321Y0171921D01*
X0239812Y0171221D01*
X0239419Y0170449D01*
X0239151Y0169626D01*
X0239016Y0168771D01*
X0239016Y0168538D01*
X0244316Y0168538D01*
X0244316Y0173838D01*
X0244316Y0173115D02*
X0244716Y0173115D01*
X0244716Y0171516D02*
X0244316Y0171516D01*
X0244316Y0169918D02*
X0244716Y0169918D01*
X0244716Y0168319D02*
X0256716Y0168319D01*
X0256716Y0166721D02*
X0249773Y0166721D01*
X0248978Y0165122D02*
X0256716Y0165122D01*
X0256716Y0163524D02*
X0247182Y0163524D01*
X0248990Y0161925D02*
X0256716Y0161925D01*
X0256716Y0160327D02*
X0249862Y0160327D01*
X0250216Y0158728D02*
X0256716Y0158728D01*
X0256716Y0157130D02*
X0250185Y0157130D01*
X0249523Y0155531D02*
X0256716Y0155531D01*
X0256716Y0153933D02*
X0248172Y0153933D01*
X0248581Y0152334D02*
X0256716Y0152334D01*
X0256716Y0150736D02*
X0249692Y0150736D01*
X0250216Y0149137D02*
X0256716Y0149137D01*
X0256716Y0147539D02*
X0250216Y0147539D01*
X0249692Y0145940D02*
X0256716Y0145940D01*
X0256716Y0144342D02*
X0248580Y0144342D01*
X0248172Y0142743D02*
X0256716Y0142743D01*
X0256716Y0141145D02*
X0249523Y0141145D01*
X0250185Y0139546D02*
X0256716Y0139546D01*
X0256716Y0137948D02*
X0250216Y0137948D01*
X0249862Y0136349D02*
X0256716Y0136349D01*
X0256716Y0134751D02*
X0248989Y0134751D01*
X0247763Y0133152D02*
X0256716Y0133152D01*
X0256716Y0131554D02*
X0249354Y0131554D01*
X0250016Y0129955D02*
X0256716Y0129955D01*
X0256716Y0128357D02*
X0250216Y0128357D01*
X0250031Y0126758D02*
X0256716Y0126758D01*
X0256716Y0125160D02*
X0249369Y0125160D01*
X0247800Y0123561D02*
X0256716Y0123561D01*
X0256716Y0121963D02*
X0248953Y0121963D01*
X0249846Y0120364D02*
X0256716Y0120364D01*
X0256716Y0118766D02*
X0250216Y0118766D01*
X0250200Y0117167D02*
X0256716Y0117167D01*
X0256716Y0115568D02*
X0249538Y0115568D01*
X0248209Y0113970D02*
X0256716Y0113970D01*
X0256716Y0112371D02*
X0248544Y0112371D01*
X0249677Y0110773D02*
X0256716Y0110773D01*
X0256716Y0109174D02*
X0250216Y0109174D01*
X0250216Y0107576D02*
X0256716Y0107576D01*
X0256716Y0105977D02*
X0249708Y0105977D01*
X0248618Y0104379D02*
X0256716Y0104379D01*
X0256716Y0102780D02*
X0248135Y0102780D01*
X0249508Y0101182D02*
X0256716Y0101182D01*
X0256716Y0099583D02*
X0250170Y0099583D01*
X0250216Y0097985D02*
X0256716Y0097985D01*
X0256716Y0096386D02*
X0249877Y0096386D01*
X0249027Y0094788D02*
X0256716Y0094788D01*
X0231029Y0110773D02*
X0230786Y0110773D01*
X0229430Y0112371D02*
X0228892Y0112371D01*
X0224516Y0112371D02*
X0224516Y0112371D01*
X0224516Y0110773D02*
X0224516Y0110773D01*
X0224516Y0109174D02*
X0224516Y0109174D01*
X0224516Y0107576D02*
X0224516Y0107576D01*
X0224516Y0105977D02*
X0224516Y0105977D01*
X0224516Y0104379D02*
X0224516Y0104379D01*
X0239746Y0123561D02*
X0241232Y0123561D01*
X0239663Y0125160D02*
X0233347Y0125160D01*
X0231749Y0126758D02*
X0239001Y0126758D01*
X0238816Y0128357D02*
X0231716Y0128357D01*
X0231425Y0129955D02*
X0237646Y0129955D01*
X0230648Y0131554D02*
X0230406Y0131554D01*
X0229049Y0133152D02*
X0215183Y0133152D01*
X0216781Y0134751D02*
X0218998Y0134751D01*
X0217761Y0136349D02*
X0217216Y0136349D01*
X0217216Y0137948D02*
X0217316Y0137948D01*
X0217216Y0139546D02*
X0217437Y0139546D01*
X0217216Y0141145D02*
X0218217Y0141145D01*
X0217216Y0142743D02*
X0220530Y0142743D01*
X0219544Y0144342D02*
X0217216Y0144342D01*
X0217216Y0145940D02*
X0217930Y0145940D01*
X0217316Y0147539D02*
X0217216Y0147539D01*
X0217216Y0149137D02*
X0217316Y0149137D01*
X0217216Y0150736D02*
X0217930Y0150736D01*
X0217216Y0152334D02*
X0219543Y0152334D01*
X0220531Y0153933D02*
X0217216Y0153933D01*
X0217216Y0155531D02*
X0218217Y0155531D01*
X0217437Y0157130D02*
X0217216Y0157130D01*
X0217216Y0158728D02*
X0217316Y0158728D01*
X0217216Y0160327D02*
X0217761Y0160327D01*
X0217216Y0161925D02*
X0218998Y0161925D01*
X0217216Y0163524D02*
X0228678Y0163524D01*
X0230034Y0161925D02*
X0230276Y0161925D01*
X0231271Y0160327D02*
X0237275Y0160327D01*
X0238816Y0158728D02*
X0231716Y0158728D01*
X0231594Y0157130D02*
X0238847Y0157130D01*
X0239509Y0155531D02*
X0232976Y0155531D01*
X0229667Y0152334D02*
X0229489Y0152334D01*
X0231102Y0150736D02*
X0231266Y0150736D01*
X0231716Y0149137D02*
X0237664Y0149137D01*
X0238816Y0147539D02*
X0231716Y0147539D01*
X0232367Y0145940D02*
X0239340Y0145940D01*
X0238765Y0144342D02*
X0240451Y0144342D01*
X0240364Y0142743D02*
X0240860Y0142743D01*
X0229058Y0142743D02*
X0228502Y0142743D01*
X0218626Y0131554D02*
X0213584Y0131554D01*
X0211986Y0129955D02*
X0217607Y0129955D01*
X0217316Y0128357D02*
X0210387Y0128357D01*
X0208789Y0126758D02*
X0217591Y0126758D01*
X0218589Y0125160D02*
X0207190Y0125160D01*
X0188589Y0125160D02*
X0187216Y0125160D01*
X0187216Y0126758D02*
X0187591Y0126758D01*
X0187316Y0128357D02*
X0187216Y0128357D01*
X0187216Y0129955D02*
X0187607Y0129955D01*
X0187216Y0131554D02*
X0188626Y0131554D01*
X0182616Y0149137D02*
X0179643Y0149137D01*
X0179766Y0150736D02*
X0182616Y0150736D01*
X0182616Y0152334D02*
X0179766Y0152334D01*
X0179766Y0153933D02*
X0182616Y0153933D01*
X0182616Y0155531D02*
X0179766Y0155531D01*
X0179766Y0157130D02*
X0182272Y0157130D01*
X0180673Y0158728D02*
X0177106Y0158728D01*
X0178929Y0160327D02*
X0179075Y0160327D01*
X0169266Y0157130D02*
X0168977Y0157130D01*
X0160852Y0160327D02*
X0159655Y0160327D01*
X0159253Y0158728D02*
X0158250Y0158728D01*
X0157655Y0157130D02*
X0066316Y0157130D01*
X0066316Y0158728D02*
X0110782Y0158728D01*
X0109377Y0160327D02*
X0095502Y0160327D01*
X0095315Y0160140D02*
X0095943Y0160767D01*
X0096464Y0161485D01*
X0096867Y0162276D01*
X0097142Y0163120D01*
X0097275Y0163961D01*
X0092122Y0163961D01*
X0092122Y0164920D01*
X0097275Y0164920D01*
X0097142Y0165761D01*
X0096867Y0166605D01*
X0096464Y0167396D01*
X0095943Y0168114D01*
X0095315Y0168741D01*
X0094597Y0169263D01*
X0093806Y0169666D01*
X0092962Y0169940D01*
X0092121Y0170073D01*
X0092121Y0164920D01*
X0091162Y0164920D01*
X0091162Y0163961D01*
X0086009Y0163961D01*
X0086142Y0163120D01*
X0086416Y0162276D01*
X0086819Y0161485D01*
X0087341Y0160767D01*
X0087969Y0160140D01*
X0088687Y0159618D01*
X0089477Y0159215D01*
X0090322Y0158941D01*
X0091162Y0158808D01*
X0091162Y0163961D01*
X0092121Y0163961D01*
X0092121Y0158808D01*
X0092962Y0158941D01*
X0093806Y0159215D01*
X0094597Y0159618D01*
X0095315Y0160140D01*
X0096689Y0161925D02*
X0108715Y0161925D01*
X0108616Y0163524D02*
X0097206Y0163524D01*
X0097243Y0165122D02*
X0108869Y0165122D01*
X0109555Y0166721D02*
X0096808Y0166721D01*
X0095737Y0168319D02*
X0109882Y0168319D01*
X0108816Y0169918D02*
X0093031Y0169918D01*
X0092121Y0169918D02*
X0091162Y0169918D01*
X0091162Y0170073D02*
X0090322Y0169940D01*
X0089477Y0169666D01*
X0088687Y0169263D01*
X0087969Y0168741D01*
X0087341Y0168114D01*
X0086819Y0167396D01*
X0086416Y0166605D01*
X0086142Y0165761D01*
X0086009Y0164920D01*
X0091162Y0164920D01*
X0091162Y0170073D01*
X0090253Y0169918D02*
X0066316Y0169918D01*
X0066316Y0171516D02*
X0108816Y0171516D01*
X0108816Y0173115D02*
X0066316Y0173115D01*
X0066316Y0174713D02*
X0108816Y0174713D01*
X0108490Y0176312D02*
X0066316Y0176312D01*
X0066316Y0177910D02*
X0079076Y0177910D01*
X0079298Y0177838D02*
X0078454Y0178113D01*
X0077663Y0178516D01*
X0076945Y0179037D01*
X0076317Y0179665D01*
X0075796Y0180383D01*
X0075393Y0181174D01*
X0075119Y0182018D01*
X0074985Y0182859D01*
X0080139Y0182859D01*
X0080139Y0183818D01*
X0080139Y0188971D01*
X0079298Y0188838D01*
X0078454Y0188564D01*
X0077663Y0188161D01*
X0076945Y0187639D01*
X0076317Y0187011D01*
X0075796Y0186293D01*
X0075393Y0185503D01*
X0075119Y0184659D01*
X0074985Y0183818D01*
X0080139Y0183818D01*
X0081098Y0183818D01*
X0081098Y0188971D01*
X0081939Y0188838D01*
X0082783Y0188564D01*
X0083574Y0188161D01*
X0084292Y0187639D01*
X0084919Y0187011D01*
X0085441Y0186293D01*
X0085844Y0185503D01*
X0086118Y0184659D01*
X0086251Y0183818D01*
X0081098Y0183818D01*
X0081098Y0182859D01*
X0086251Y0182859D01*
X0086118Y0182018D01*
X0085844Y0181174D01*
X0085441Y0180383D01*
X0084919Y0179665D01*
X0084292Y0179037D01*
X0083574Y0178516D01*
X0082783Y0178113D01*
X0081939Y0177838D01*
X0081098Y0177705D01*
X0081098Y0182859D01*
X0080139Y0182859D01*
X0080139Y0177705D01*
X0079298Y0177838D01*
X0080139Y0177910D02*
X0081098Y0177910D01*
X0082160Y0177910D02*
X0101300Y0177910D01*
X0099025Y0179509D02*
X0084763Y0179509D01*
X0085810Y0181107D02*
X0098057Y0181107D01*
X0097614Y0182706D02*
X0086227Y0182706D01*
X0086174Y0184304D02*
X0097614Y0184304D01*
X0098196Y0185903D02*
X0085640Y0185903D01*
X0084429Y0187502D02*
X0099359Y0187502D01*
X0102106Y0189100D02*
X0066316Y0189100D01*
X0066316Y0187502D02*
X0076807Y0187502D01*
X0075597Y0185903D02*
X0066316Y0185903D01*
X0066316Y0184304D02*
X0075063Y0184304D01*
X0075010Y0182706D02*
X0066316Y0182706D01*
X0066316Y0181107D02*
X0075427Y0181107D01*
X0076473Y0179509D02*
X0066316Y0179509D01*
X0066316Y0190699D02*
X0115051Y0190699D01*
X0115197Y0190985D02*
X0114836Y0190277D01*
X0114590Y0189521D01*
X0114466Y0188736D01*
X0114466Y0188338D01*
X0114466Y0187941D01*
X0114590Y0187156D01*
X0114836Y0186400D01*
X0115197Y0185691D01*
X0115664Y0185048D01*
X0116226Y0184486D01*
X0116869Y0184019D01*
X0117577Y0183658D01*
X0118333Y0183413D01*
X0119119Y0183288D01*
X0119516Y0183288D01*
X0119516Y0188338D01*
X0119516Y0188338D01*
X0114466Y0188338D01*
X0119516Y0188338D01*
X0119516Y0188338D01*
X0119516Y0188338D01*
X0119516Y0193388D01*
X0119119Y0193388D01*
X0118333Y0193264D01*
X0117577Y0193018D01*
X0116869Y0192657D01*
X0116226Y0192190D01*
X0115664Y0191628D01*
X0115197Y0190985D01*
X0116373Y0192297D02*
X0066316Y0192297D01*
X0066316Y0193896D02*
X0256716Y0193896D01*
X0256716Y0195494D02*
X0066316Y0195494D01*
X0066316Y0197093D02*
X0256716Y0197093D01*
X0256716Y0198691D02*
X0066316Y0198691D01*
X0066316Y0200290D02*
X0256716Y0200290D01*
X0245618Y0187502D02*
X0243414Y0187502D01*
X0235618Y0187502D02*
X0233414Y0187502D01*
X0225618Y0187502D02*
X0223414Y0187502D01*
X0215618Y0187502D02*
X0213414Y0187502D01*
X0205618Y0187502D02*
X0203414Y0187502D01*
X0195618Y0187502D02*
X0193414Y0187502D01*
X0185618Y0187502D02*
X0183414Y0187502D01*
X0175618Y0187502D02*
X0164766Y0187502D01*
X0164766Y0185903D02*
X0174409Y0185903D01*
X0173816Y0184304D02*
X0164766Y0184304D01*
X0163801Y0182706D02*
X0173816Y0182706D01*
X0174270Y0181107D02*
X0165399Y0181107D01*
X0165616Y0179509D02*
X0175284Y0179509D01*
X0177725Y0177910D02*
X0165616Y0177910D01*
X0165616Y0176312D02*
X0181090Y0176312D01*
X0182016Y0174713D02*
X0165616Y0174713D01*
X0165616Y0173115D02*
X0182016Y0173115D01*
X0182016Y0171516D02*
X0165616Y0171516D01*
X0165616Y0169918D02*
X0182016Y0169918D01*
X0198501Y0153933D02*
X0199458Y0153933D01*
X0200814Y0155531D02*
X0201056Y0155531D01*
X0207016Y0155531D02*
X0212616Y0155531D01*
X0212616Y0153933D02*
X0207016Y0153933D01*
X0207016Y0152334D02*
X0212616Y0152334D01*
X0212616Y0150736D02*
X0207016Y0150736D01*
X0207016Y0157130D02*
X0212616Y0157130D01*
X0212616Y0158728D02*
X0207016Y0158728D01*
X0207016Y0160327D02*
X0212616Y0160327D01*
X0212616Y0161925D02*
X0207016Y0161925D01*
X0207016Y0163524D02*
X0212616Y0163524D01*
X0212616Y0165122D02*
X0207016Y0165122D01*
X0207016Y0166721D02*
X0212616Y0166721D01*
X0212616Y0168319D02*
X0207016Y0168319D01*
X0207016Y0169918D02*
X0212616Y0169918D01*
X0212616Y0171516D02*
X0207016Y0171516D01*
X0207016Y0173115D02*
X0212616Y0173115D01*
X0212616Y0174713D02*
X0207016Y0174713D01*
X0207942Y0176312D02*
X0212616Y0176312D01*
X0212636Y0177910D02*
X0211307Y0177910D01*
X0213748Y0179509D02*
X0214234Y0179509D01*
X0217542Y0176312D02*
X0256716Y0176312D01*
X0256716Y0174713D02*
X0217216Y0174713D01*
X0217216Y0173115D02*
X0241776Y0173115D01*
X0240027Y0171516D02*
X0230443Y0171516D01*
X0231441Y0169918D02*
X0239246Y0169918D01*
X0239258Y0166721D02*
X0231986Y0166721D01*
X0231716Y0168319D02*
X0244316Y0168319D01*
X0240054Y0165122D02*
X0238984Y0165122D01*
X0240583Y0163524D02*
X0241850Y0163524D01*
X0249786Y0169918D02*
X0256716Y0169918D01*
X0256716Y0171516D02*
X0249005Y0171516D01*
X0247256Y0173115D02*
X0256716Y0173115D01*
X0237725Y0177910D02*
X0231307Y0177910D01*
X0233748Y0179509D02*
X0235284Y0179509D01*
X0227725Y0177910D02*
X0221307Y0177910D01*
X0223748Y0179509D02*
X0225284Y0179509D01*
X0218589Y0171516D02*
X0217216Y0171516D01*
X0217216Y0169918D02*
X0217591Y0169918D01*
X0217316Y0168319D02*
X0217216Y0168319D01*
X0217216Y0166721D02*
X0217607Y0166721D01*
X0217216Y0165122D02*
X0218626Y0165122D01*
X0239374Y0153933D02*
X0240860Y0153933D01*
X0161016Y0161925D02*
X0160317Y0161925D01*
X0160416Y0163524D02*
X0161016Y0163524D01*
X0161016Y0165122D02*
X0160163Y0165122D01*
X0159477Y0166721D02*
X0161016Y0166721D01*
X0161016Y0168319D02*
X0157879Y0168319D01*
X0124266Y0184304D02*
X0122556Y0184304D01*
X0123943Y0185903D02*
X0124266Y0185903D01*
X0119516Y0185903D02*
X0119516Y0185903D01*
X0119516Y0187502D02*
X0119516Y0187502D01*
X0119516Y0189100D02*
X0119516Y0189100D01*
X0119516Y0190699D02*
X0119516Y0190699D01*
X0119516Y0192297D02*
X0119516Y0192297D01*
X0122659Y0192297D02*
X0124266Y0192297D01*
X0124266Y0190699D02*
X0123981Y0190699D01*
X0119516Y0184304D02*
X0119516Y0184304D01*
X0116476Y0184304D02*
X0109292Y0184304D01*
X0108710Y0185903D02*
X0115089Y0185903D01*
X0114536Y0187502D02*
X0107547Y0187502D01*
X0104800Y0189100D02*
X0114524Y0189100D01*
X0106891Y0177910D02*
X0105606Y0177910D01*
X0092121Y0168319D02*
X0091162Y0168319D01*
X0091162Y0166721D02*
X0092121Y0166721D01*
X0092121Y0165122D02*
X0091162Y0165122D01*
X0091162Y0163524D02*
X0092121Y0163524D01*
X0092121Y0161925D02*
X0091162Y0161925D01*
X0091162Y0160327D02*
X0092121Y0160327D01*
X0087782Y0160327D02*
X0066316Y0160327D01*
X0066316Y0161925D02*
X0086595Y0161925D01*
X0086078Y0163524D02*
X0066316Y0163524D01*
X0066316Y0165122D02*
X0086041Y0165122D01*
X0086475Y0166721D02*
X0066316Y0166721D01*
X0066316Y0168319D02*
X0087547Y0168319D01*
X0081098Y0179509D02*
X0080139Y0179509D01*
X0080139Y0181107D02*
X0081098Y0181107D01*
X0081098Y0182706D02*
X0080139Y0182706D01*
X0080139Y0184304D02*
X0081098Y0184304D01*
X0081098Y0185903D02*
X0080139Y0185903D01*
X0080139Y0187502D02*
X0081098Y0187502D01*
X0088256Y0155531D02*
X0066316Y0155531D01*
X0066316Y0153933D02*
X0086658Y0153933D01*
X0085059Y0152334D02*
X0066316Y0152334D01*
X0066316Y0150736D02*
X0072067Y0150736D01*
X0071684Y0150577D02*
X0070277Y0149170D01*
X0069516Y0147333D01*
X0069516Y0139344D01*
X0070277Y0137506D01*
X0071684Y0136099D01*
X0073521Y0135338D01*
X0075511Y0135338D01*
X0077348Y0136099D01*
X0078755Y0137506D01*
X0079516Y0139344D01*
X0079516Y0147333D01*
X0078755Y0149170D01*
X0077348Y0150577D01*
X0075511Y0151338D01*
X0073521Y0151338D01*
X0071684Y0150577D01*
X0070263Y0149137D02*
X0066316Y0149137D01*
X0066316Y0147539D02*
X0069601Y0147539D01*
X0069516Y0145940D02*
X0066316Y0145940D01*
X0066316Y0144342D02*
X0069516Y0144342D01*
X0069516Y0142743D02*
X0066316Y0142743D01*
X0066316Y0141145D02*
X0069516Y0141145D01*
X0069516Y0139546D02*
X0066316Y0139546D01*
X0066316Y0137948D02*
X0070094Y0137948D01*
X0071434Y0136349D02*
X0066316Y0136349D01*
X0077598Y0136349D02*
X0081434Y0136349D01*
X0080094Y0137948D02*
X0078938Y0137948D01*
X0079516Y0139546D02*
X0079516Y0139546D01*
X0079516Y0141145D02*
X0079516Y0141145D01*
X0079516Y0142743D02*
X0079516Y0142743D01*
X0079516Y0144342D02*
X0079516Y0144342D01*
X0079516Y0145940D02*
X0079516Y0145940D01*
X0079431Y0147539D02*
X0079601Y0147539D01*
X0080263Y0149137D02*
X0078769Y0149137D01*
X0076965Y0150736D02*
X0082067Y0150736D01*
X0088769Y0149137D02*
X0090616Y0149137D01*
X0089966Y0150736D02*
X0092574Y0150736D01*
X0089859Y0147539D02*
X0089431Y0147539D01*
X0089516Y0145940D02*
X0089716Y0145940D01*
X0089716Y0144342D02*
X0089516Y0144342D01*
X0089516Y0142743D02*
X0089716Y0142743D01*
X0089716Y0141145D02*
X0089516Y0141145D01*
X0089516Y0139546D02*
X0089782Y0139546D01*
X0090347Y0137948D02*
X0088938Y0137948D01*
X0087598Y0136349D02*
X0091840Y0136349D01*
X0110970Y0149137D02*
X0119062Y0149137D01*
X0149516Y0121963D02*
X0149516Y0121963D01*
X0149516Y0120364D02*
X0149516Y0120364D01*
X0149516Y0118766D02*
X0149516Y0118766D01*
X0110638Y0048431D02*
X0066316Y0048431D01*
X0066316Y0046833D02*
X0109296Y0046833D01*
X0108716Y0045234D02*
X0066316Y0045234D01*
X0066316Y0043635D02*
X0108716Y0043635D01*
X0109299Y0042037D02*
X0066316Y0042037D01*
D11*
X0091642Y0164441D03*
X0080618Y0183338D03*
X0103453Y0183338D03*
D12*
X0159516Y0053338D03*
X0169516Y0053338D03*
X0169516Y0043338D03*
X0159516Y0043338D03*
X0159516Y0033338D03*
X0169516Y0033338D03*
D13*
X0119516Y0078338D03*
X0119516Y0088338D03*
X0114516Y0103338D03*
X0129516Y0103338D03*
X0129516Y0143338D03*
X0114516Y0143338D03*
X0179516Y0183338D03*
X0189516Y0183338D03*
X0199516Y0183338D03*
X0209516Y0183338D03*
X0219516Y0183338D03*
X0229516Y0183338D03*
X0239516Y0183338D03*
X0249516Y0183338D03*
X0244516Y0168338D03*
X0244516Y0158338D03*
X0244516Y0148338D03*
X0244516Y0138338D03*
X0244516Y0128338D03*
X0244516Y0118338D03*
X0244516Y0108338D03*
X0244516Y0098338D03*
X0244516Y0088338D03*
X0244516Y0078338D03*
X0244516Y0068338D03*
X0244516Y0058338D03*
X0244516Y0048338D03*
X0244516Y0038338D03*
X0244516Y0028338D03*
X0244516Y0018338D03*
D14*
X0227116Y0038338D02*
X0221916Y0038338D01*
X0221916Y0048338D02*
X0227116Y0048338D01*
X0227116Y0058338D02*
X0221916Y0058338D01*
X0221916Y0068338D02*
X0227116Y0068338D01*
X0227116Y0078338D02*
X0221916Y0078338D01*
X0221916Y0088338D02*
X0227116Y0088338D01*
X0227116Y0098338D02*
X0221916Y0098338D01*
X0221916Y0108338D02*
X0227116Y0108338D01*
X0227116Y0118338D02*
X0221916Y0118338D01*
X0221916Y0128338D02*
X0227116Y0128338D01*
X0227116Y0138338D02*
X0221916Y0138338D01*
X0221916Y0148338D02*
X0227116Y0148338D01*
X0227116Y0158338D02*
X0221916Y0158338D01*
X0221916Y0168338D02*
X0227116Y0168338D01*
X0197116Y0168338D02*
X0191916Y0168338D01*
X0191916Y0158338D02*
X0197116Y0158338D01*
X0197116Y0148338D02*
X0191916Y0148338D01*
X0191916Y0138338D02*
X0197116Y0138338D01*
X0197116Y0128338D02*
X0191916Y0128338D01*
X0191916Y0118338D02*
X0197116Y0118338D01*
X0197116Y0108338D02*
X0191916Y0108338D01*
X0191916Y0098338D02*
X0197116Y0098338D01*
X0197116Y0088338D02*
X0191916Y0088338D01*
X0191916Y0078338D02*
X0197116Y0078338D01*
X0197116Y0068338D02*
X0191916Y0068338D01*
X0191916Y0058338D02*
X0197116Y0058338D01*
X0197116Y0048338D02*
X0191916Y0048338D01*
X0191916Y0038338D02*
X0197116Y0038338D01*
D15*
X0149516Y0088338D03*
X0149516Y0098338D03*
X0149516Y0108338D03*
X0149516Y0118338D03*
X0169516Y0113338D03*
X0169516Y0093338D03*
X0174516Y0163338D03*
X0149516Y0188338D03*
X0119516Y0188338D03*
D16*
X0094516Y0146338D02*
X0094516Y0140338D01*
X0084516Y0140338D02*
X0084516Y0146338D01*
X0074516Y0146338D02*
X0074516Y0140338D01*
X0113716Y0062238D02*
X0119716Y0062238D01*
X0139316Y0062238D02*
X0145316Y0062238D01*
X0145316Y0044438D02*
X0139316Y0044438D01*
X0119716Y0044438D02*
X0113716Y0044438D01*
D17*
X0078016Y0084338D02*
X0078018Y0084499D01*
X0078024Y0084659D01*
X0078034Y0084820D01*
X0078048Y0084980D01*
X0078066Y0085140D01*
X0078087Y0085299D01*
X0078113Y0085458D01*
X0078143Y0085616D01*
X0078176Y0085773D01*
X0078214Y0085930D01*
X0078255Y0086085D01*
X0078300Y0086239D01*
X0078349Y0086392D01*
X0078402Y0086544D01*
X0078458Y0086695D01*
X0078519Y0086844D01*
X0078582Y0086992D01*
X0078650Y0087138D01*
X0078721Y0087282D01*
X0078795Y0087424D01*
X0078873Y0087565D01*
X0078955Y0087703D01*
X0079040Y0087840D01*
X0079128Y0087974D01*
X0079220Y0088106D01*
X0079315Y0088236D01*
X0079413Y0088364D01*
X0079514Y0088489D01*
X0079618Y0088611D01*
X0079725Y0088731D01*
X0079835Y0088848D01*
X0079948Y0088963D01*
X0080064Y0089074D01*
X0080183Y0089183D01*
X0080304Y0089288D01*
X0080428Y0089391D01*
X0080554Y0089491D01*
X0080682Y0089587D01*
X0080813Y0089680D01*
X0080947Y0089770D01*
X0081082Y0089857D01*
X0081220Y0089940D01*
X0081359Y0090020D01*
X0081501Y0090096D01*
X0081644Y0090169D01*
X0081789Y0090238D01*
X0081936Y0090304D01*
X0082084Y0090366D01*
X0082234Y0090424D01*
X0082385Y0090479D01*
X0082538Y0090530D01*
X0082692Y0090577D01*
X0082847Y0090620D01*
X0083003Y0090659D01*
X0083159Y0090695D01*
X0083317Y0090726D01*
X0083475Y0090754D01*
X0083634Y0090778D01*
X0083794Y0090798D01*
X0083954Y0090814D01*
X0084114Y0090826D01*
X0084275Y0090834D01*
X0084436Y0090838D01*
X0084596Y0090838D01*
X0084757Y0090834D01*
X0084918Y0090826D01*
X0085078Y0090814D01*
X0085238Y0090798D01*
X0085398Y0090778D01*
X0085557Y0090754D01*
X0085715Y0090726D01*
X0085873Y0090695D01*
X0086029Y0090659D01*
X0086185Y0090620D01*
X0086340Y0090577D01*
X0086494Y0090530D01*
X0086647Y0090479D01*
X0086798Y0090424D01*
X0086948Y0090366D01*
X0087096Y0090304D01*
X0087243Y0090238D01*
X0087388Y0090169D01*
X0087531Y0090096D01*
X0087673Y0090020D01*
X0087812Y0089940D01*
X0087950Y0089857D01*
X0088085Y0089770D01*
X0088219Y0089680D01*
X0088350Y0089587D01*
X0088478Y0089491D01*
X0088604Y0089391D01*
X0088728Y0089288D01*
X0088849Y0089183D01*
X0088968Y0089074D01*
X0089084Y0088963D01*
X0089197Y0088848D01*
X0089307Y0088731D01*
X0089414Y0088611D01*
X0089518Y0088489D01*
X0089619Y0088364D01*
X0089717Y0088236D01*
X0089812Y0088106D01*
X0089904Y0087974D01*
X0089992Y0087840D01*
X0090077Y0087703D01*
X0090159Y0087565D01*
X0090237Y0087424D01*
X0090311Y0087282D01*
X0090382Y0087138D01*
X0090450Y0086992D01*
X0090513Y0086844D01*
X0090574Y0086695D01*
X0090630Y0086544D01*
X0090683Y0086392D01*
X0090732Y0086239D01*
X0090777Y0086085D01*
X0090818Y0085930D01*
X0090856Y0085773D01*
X0090889Y0085616D01*
X0090919Y0085458D01*
X0090945Y0085299D01*
X0090966Y0085140D01*
X0090984Y0084980D01*
X0090998Y0084820D01*
X0091008Y0084659D01*
X0091014Y0084499D01*
X0091016Y0084338D01*
X0091014Y0084177D01*
X0091008Y0084017D01*
X0090998Y0083856D01*
X0090984Y0083696D01*
X0090966Y0083536D01*
X0090945Y0083377D01*
X0090919Y0083218D01*
X0090889Y0083060D01*
X0090856Y0082903D01*
X0090818Y0082746D01*
X0090777Y0082591D01*
X0090732Y0082437D01*
X0090683Y0082284D01*
X0090630Y0082132D01*
X0090574Y0081981D01*
X0090513Y0081832D01*
X0090450Y0081684D01*
X0090382Y0081538D01*
X0090311Y0081394D01*
X0090237Y0081252D01*
X0090159Y0081111D01*
X0090077Y0080973D01*
X0089992Y0080836D01*
X0089904Y0080702D01*
X0089812Y0080570D01*
X0089717Y0080440D01*
X0089619Y0080312D01*
X0089518Y0080187D01*
X0089414Y0080065D01*
X0089307Y0079945D01*
X0089197Y0079828D01*
X0089084Y0079713D01*
X0088968Y0079602D01*
X0088849Y0079493D01*
X0088728Y0079388D01*
X0088604Y0079285D01*
X0088478Y0079185D01*
X0088350Y0079089D01*
X0088219Y0078996D01*
X0088085Y0078906D01*
X0087950Y0078819D01*
X0087812Y0078736D01*
X0087673Y0078656D01*
X0087531Y0078580D01*
X0087388Y0078507D01*
X0087243Y0078438D01*
X0087096Y0078372D01*
X0086948Y0078310D01*
X0086798Y0078252D01*
X0086647Y0078197D01*
X0086494Y0078146D01*
X0086340Y0078099D01*
X0086185Y0078056D01*
X0086029Y0078017D01*
X0085873Y0077981D01*
X0085715Y0077950D01*
X0085557Y0077922D01*
X0085398Y0077898D01*
X0085238Y0077878D01*
X0085078Y0077862D01*
X0084918Y0077850D01*
X0084757Y0077842D01*
X0084596Y0077838D01*
X0084436Y0077838D01*
X0084275Y0077842D01*
X0084114Y0077850D01*
X0083954Y0077862D01*
X0083794Y0077878D01*
X0083634Y0077898D01*
X0083475Y0077922D01*
X0083317Y0077950D01*
X0083159Y0077981D01*
X0083003Y0078017D01*
X0082847Y0078056D01*
X0082692Y0078099D01*
X0082538Y0078146D01*
X0082385Y0078197D01*
X0082234Y0078252D01*
X0082084Y0078310D01*
X0081936Y0078372D01*
X0081789Y0078438D01*
X0081644Y0078507D01*
X0081501Y0078580D01*
X0081359Y0078656D01*
X0081220Y0078736D01*
X0081082Y0078819D01*
X0080947Y0078906D01*
X0080813Y0078996D01*
X0080682Y0079089D01*
X0080554Y0079185D01*
X0080428Y0079285D01*
X0080304Y0079388D01*
X0080183Y0079493D01*
X0080064Y0079602D01*
X0079948Y0079713D01*
X0079835Y0079828D01*
X0079725Y0079945D01*
X0079618Y0080065D01*
X0079514Y0080187D01*
X0079413Y0080312D01*
X0079315Y0080440D01*
X0079220Y0080570D01*
X0079128Y0080702D01*
X0079040Y0080836D01*
X0078955Y0080973D01*
X0078873Y0081111D01*
X0078795Y0081252D01*
X0078721Y0081394D01*
X0078650Y0081538D01*
X0078582Y0081684D01*
X0078519Y0081832D01*
X0078458Y0081981D01*
X0078402Y0082132D01*
X0078349Y0082284D01*
X0078300Y0082437D01*
X0078255Y0082591D01*
X0078214Y0082746D01*
X0078176Y0082903D01*
X0078143Y0083060D01*
X0078113Y0083218D01*
X0078087Y0083377D01*
X0078066Y0083536D01*
X0078048Y0083696D01*
X0078034Y0083856D01*
X0078024Y0084017D01*
X0078018Y0084177D01*
X0078016Y0084338D01*
D18*
X0174516Y0153338D03*
X0159516Y0188338D03*
X0129516Y0188338D03*
D19*
X0114516Y0163338D03*
X0154516Y0163338D03*
D20*
X0104516Y0028338D03*
D21*
X0094516Y0028338D03*
X0084516Y0028338D03*
X0074516Y0028338D03*
X0074516Y0018338D03*
X0084516Y0018338D03*
X0094516Y0018338D03*
X0104516Y0018338D03*
D22*
X0098516Y0013738D02*
X0167516Y0013738D01*
X0192116Y0038338D01*
X0194516Y0038338D01*
X0196916Y0038338D01*
X0213116Y0022138D01*
X0237716Y0022138D01*
X0241316Y0018538D01*
X0244316Y0018538D01*
X0244516Y0018338D01*
X0244516Y0028338D02*
X0244316Y0028738D01*
X0241316Y0028738D01*
X0238316Y0031738D01*
X0233516Y0031738D01*
X0226916Y0038338D01*
X0224516Y0038338D01*
X0232316Y0043138D02*
X0237716Y0043138D01*
X0242516Y0038338D01*
X0244516Y0038338D01*
X0244516Y0048338D02*
X0244316Y0048538D01*
X0241316Y0048538D01*
X0237716Y0052138D01*
X0232916Y0052138D01*
X0226916Y0058138D01*
X0224516Y0058138D01*
X0224516Y0058338D01*
X0233516Y0061738D02*
X0238316Y0061738D01*
X0241316Y0058738D01*
X0244316Y0058738D01*
X0244516Y0058338D01*
X0233516Y0061738D02*
X0226916Y0068338D01*
X0224516Y0068338D01*
X0218516Y0074938D02*
X0207116Y0063538D01*
X0201716Y0063538D01*
X0194516Y0048338D02*
X0194516Y0047938D01*
X0191516Y0047938D01*
X0177716Y0034138D01*
X0177716Y0029938D01*
X0171716Y0023938D01*
X0121316Y0023938D01*
X0110516Y0034738D01*
X0098516Y0034738D01*
X0094916Y0031138D01*
X0094916Y0028738D01*
X0094516Y0028338D01*
X0094516Y0018338D02*
X0096116Y0016738D01*
X0096116Y0016138D01*
X0098516Y0013738D01*
X0081716Y0035938D02*
X0074516Y0028738D01*
X0074516Y0028338D01*
X0081716Y0035938D02*
X0145316Y0035938D01*
X0156116Y0025138D01*
X0162716Y0025138D01*
X0169316Y0031738D01*
X0169316Y0032938D01*
X0169516Y0033338D01*
X0164516Y0038338D02*
X0159516Y0033338D01*
X0164516Y0038338D02*
X0164516Y0044938D01*
X0168116Y0048538D01*
X0172316Y0048538D01*
X0179516Y0055738D01*
X0173516Y0061738D01*
X0165116Y0061738D01*
X0141716Y0085138D01*
X0141716Y0129538D01*
X0130916Y0140338D01*
X0130916Y0143338D01*
X0129516Y0143338D01*
X0129716Y0143338D01*
X0129516Y0143338D02*
X0127316Y0143338D01*
X0122516Y0148138D01*
X0121316Y0148138D01*
X0116516Y0143338D01*
X0114516Y0143338D01*
X0113516Y0143338D01*
X0102716Y0154138D01*
X0090116Y0154138D01*
X0084716Y0148738D01*
X0084716Y0143338D01*
X0084516Y0143338D01*
X0114116Y0163738D02*
X0114516Y0163338D01*
X0114116Y0163738D02*
X0114116Y0167338D01*
X0111116Y0170338D01*
X0111116Y0176938D01*
X0105116Y0182938D01*
X0103916Y0182938D01*
X0103453Y0183338D01*
X0142916Y0154738D02*
X0158516Y0154738D01*
X0163316Y0159538D01*
X0163316Y0179938D01*
X0160316Y0182938D01*
X0160316Y0187738D01*
X0159716Y0188338D01*
X0159516Y0188338D01*
X0179516Y0183338D02*
X0179516Y0181138D01*
X0184316Y0176338D01*
X0184316Y0166138D01*
X0192116Y0158338D01*
X0194516Y0158338D01*
X0184916Y0157738D02*
X0184916Y0115738D01*
X0192116Y0108538D01*
X0194516Y0108538D01*
X0194516Y0108338D01*
X0194516Y0107938D01*
X0197516Y0107938D01*
X0201716Y0103738D01*
X0206516Y0103738D01*
X0221516Y0088738D01*
X0224516Y0088738D01*
X0224516Y0088338D01*
X0224516Y0098338D02*
X0226916Y0098338D01*
X0231716Y0103138D01*
X0237716Y0103138D01*
X0242516Y0098338D01*
X0244516Y0098338D01*
X0244516Y0108338D02*
X0244316Y0108538D01*
X0241316Y0108538D01*
X0237716Y0112138D01*
X0232916Y0112138D01*
X0226916Y0118138D01*
X0224516Y0118138D01*
X0224516Y0118338D01*
X0233516Y0121738D02*
X0238316Y0121738D01*
X0241316Y0118738D01*
X0244316Y0118738D01*
X0244516Y0118338D01*
X0233516Y0121738D02*
X0226916Y0128338D01*
X0224516Y0128338D01*
X0232316Y0133138D02*
X0237716Y0133138D01*
X0242516Y0128338D01*
X0244516Y0128338D01*
X0244516Y0138338D02*
X0244316Y0138538D01*
X0241316Y0138538D01*
X0237716Y0142138D01*
X0232916Y0142138D01*
X0226916Y0148138D01*
X0224516Y0148138D01*
X0224516Y0148338D01*
X0233516Y0151738D02*
X0238316Y0151738D01*
X0241316Y0148738D01*
X0244316Y0148738D01*
X0244516Y0148338D01*
X0233516Y0151738D02*
X0226916Y0158338D01*
X0224516Y0158338D01*
X0232316Y0163138D02*
X0237716Y0163138D01*
X0242516Y0158338D01*
X0244516Y0158338D01*
X0232316Y0163138D02*
X0227516Y0167938D01*
X0224516Y0167938D01*
X0224516Y0168338D01*
X0214916Y0176938D02*
X0219116Y0181138D01*
X0219116Y0182938D01*
X0219516Y0183338D01*
X0214916Y0176938D02*
X0214916Y0136138D01*
X0197516Y0118738D01*
X0194516Y0118738D01*
X0194516Y0118338D01*
X0194516Y0128338D02*
X0196916Y0128338D01*
X0204716Y0136138D01*
X0204716Y0176338D01*
X0209516Y0181138D01*
X0209516Y0183338D01*
X0199916Y0175138D02*
X0196316Y0175138D01*
X0189716Y0181738D01*
X0189716Y0182938D01*
X0189516Y0183338D01*
X0199916Y0175138D02*
X0203516Y0171538D01*
X0203516Y0154738D01*
X0197516Y0148738D01*
X0194516Y0148738D01*
X0194516Y0148338D01*
X0184916Y0157738D02*
X0179516Y0163138D01*
X0174716Y0163138D01*
X0174516Y0163338D01*
X0169316Y0153538D02*
X0163316Y0159538D01*
X0169316Y0153538D02*
X0174116Y0153538D01*
X0174516Y0153338D01*
X0142916Y0154738D02*
X0131516Y0143338D01*
X0130916Y0143338D01*
X0169516Y0113338D02*
X0169916Y0113338D01*
X0169916Y0110938D01*
X0174116Y0106738D01*
X0174116Y0106138D01*
X0172316Y0104338D01*
X0156116Y0104338D01*
X0152516Y0107938D01*
X0149516Y0107938D01*
X0149516Y0108338D01*
X0149516Y0098338D02*
X0154316Y0098338D01*
X0156716Y0095938D01*
X0162116Y0095938D01*
X0163316Y0094738D01*
X0165716Y0094738D01*
X0166916Y0093538D01*
X0169316Y0093538D01*
X0169516Y0093338D01*
X0174716Y0088138D01*
X0182516Y0088138D01*
X0192116Y0078538D01*
X0194516Y0078538D01*
X0194516Y0078338D01*
X0194516Y0088338D02*
X0194516Y0088738D01*
X0191516Y0088738D01*
X0174116Y0106138D01*
X0129516Y0103338D02*
X0129116Y0103138D01*
X0129116Y0100138D01*
X0127916Y0098938D01*
X0127916Y0048538D01*
X0126116Y0048538D01*
X0122516Y0044938D01*
X0117116Y0044938D01*
X0116716Y0044438D01*
X0127916Y0048538D02*
X0132716Y0048538D01*
X0136316Y0044938D01*
X0142316Y0044938D01*
X0142316Y0044438D01*
X0142316Y0044938D02*
X0148316Y0044938D01*
X0151916Y0048538D01*
X0161516Y0048538D01*
X0166316Y0053338D01*
X0169516Y0053338D01*
X0119516Y0078338D02*
X0119516Y0078538D01*
X0117716Y0078538D01*
X0109916Y0086338D01*
X0109916Y0096538D01*
X0114116Y0100738D01*
X0114116Y0103138D01*
X0114516Y0103338D01*
X0224516Y0137938D02*
X0224516Y0138338D01*
X0224516Y0137938D02*
X0227516Y0137938D01*
X0232316Y0133138D01*
X0244516Y0078338D02*
X0244316Y0077938D01*
X0241916Y0077938D01*
X0237716Y0073738D01*
X0231716Y0073738D01*
X0227516Y0047938D02*
X0224516Y0047938D01*
X0224516Y0048338D01*
X0227516Y0047938D02*
X0232316Y0043138D01*
D23*
X0201716Y0063538D02*
X0189716Y0063538D01*
X0189573Y0063536D01*
X0189430Y0063530D01*
X0189287Y0063520D01*
X0189144Y0063506D01*
X0189002Y0063489D01*
X0188860Y0063467D01*
X0188719Y0063442D01*
X0188579Y0063412D01*
X0188439Y0063379D01*
X0188301Y0063342D01*
X0188164Y0063301D01*
X0188028Y0063256D01*
X0187893Y0063208D01*
X0187759Y0063156D01*
X0187627Y0063100D01*
X0187497Y0063041D01*
X0187368Y0062978D01*
X0187241Y0062911D01*
X0187116Y0062841D01*
X0186993Y0062768D01*
X0186872Y0062691D01*
X0186753Y0062611D01*
X0186636Y0062528D01*
X0186522Y0062442D01*
X0186410Y0062352D01*
X0186301Y0062259D01*
X0186194Y0062164D01*
X0186090Y0062065D01*
X0185989Y0061964D01*
X0185890Y0061860D01*
X0185795Y0061753D01*
X0185702Y0061644D01*
X0185612Y0061532D01*
X0185526Y0061418D01*
X0185443Y0061301D01*
X0185363Y0061182D01*
X0185286Y0061061D01*
X0185213Y0060938D01*
X0185143Y0060813D01*
X0185076Y0060686D01*
X0185013Y0060557D01*
X0184954Y0060427D01*
X0184898Y0060295D01*
X0184846Y0060161D01*
X0184798Y0060026D01*
X0184753Y0059890D01*
X0184712Y0059753D01*
X0184675Y0059615D01*
X0184642Y0059475D01*
X0184612Y0059335D01*
X0184587Y0059194D01*
X0184565Y0059052D01*
X0184548Y0058910D01*
X0184534Y0058767D01*
X0184524Y0058624D01*
X0184518Y0058481D01*
X0184516Y0058338D01*
X0184516Y0055838D01*
X0184514Y0055751D01*
X0184508Y0055664D01*
X0184499Y0055577D01*
X0184486Y0055491D01*
X0184469Y0055405D01*
X0184448Y0055320D01*
X0184423Y0055237D01*
X0184395Y0055154D01*
X0184364Y0055073D01*
X0184329Y0054993D01*
X0184290Y0054915D01*
X0184248Y0054838D01*
X0184203Y0054763D01*
X0184154Y0054691D01*
X0184103Y0054620D01*
X0184048Y0054552D01*
X0183991Y0054487D01*
X0183930Y0054424D01*
X0183867Y0054363D01*
X0183802Y0054306D01*
X0183734Y0054251D01*
X0183663Y0054200D01*
X0183591Y0054151D01*
X0183516Y0054106D01*
X0183439Y0054064D01*
X0183361Y0054025D01*
X0183281Y0053990D01*
X0183200Y0053959D01*
X0183117Y0053931D01*
X0183034Y0053906D01*
X0182949Y0053885D01*
X0182863Y0053868D01*
X0182777Y0053855D01*
X0182690Y0053846D01*
X0182603Y0053840D01*
X0182516Y0053838D01*
X0181416Y0053838D01*
X0181331Y0053840D01*
X0181246Y0053846D01*
X0181161Y0053855D01*
X0181077Y0053869D01*
X0180993Y0053886D01*
X0180911Y0053906D01*
X0180829Y0053931D01*
X0180748Y0053959D01*
X0180669Y0053991D01*
X0180592Y0054026D01*
X0180516Y0054065D01*
X0180441Y0054107D01*
X0180369Y0054152D01*
X0180299Y0054201D01*
X0180231Y0054253D01*
X0180166Y0054307D01*
X0180103Y0054365D01*
X0180043Y0054425D01*
X0179985Y0054488D01*
X0179931Y0054553D01*
X0179879Y0054621D01*
X0179830Y0054691D01*
X0179785Y0054763D01*
X0179743Y0054838D01*
X0179704Y0054914D01*
X0179669Y0054991D01*
X0179637Y0055070D01*
X0179609Y0055151D01*
X0179584Y0055233D01*
X0179564Y0055315D01*
X0179547Y0055399D01*
X0179533Y0055483D01*
X0179524Y0055568D01*
X0179518Y0055653D01*
X0179516Y0055738D01*
X0219716Y0073738D02*
X0231716Y0073738D01*
X0219716Y0073738D02*
X0219649Y0073740D01*
X0219582Y0073746D01*
X0219515Y0073755D01*
X0219449Y0073768D01*
X0219384Y0073785D01*
X0219320Y0073805D01*
X0219257Y0073829D01*
X0219195Y0073857D01*
X0219136Y0073888D01*
X0219078Y0073922D01*
X0219022Y0073959D01*
X0218968Y0074000D01*
X0218916Y0074043D01*
X0218867Y0074089D01*
X0218821Y0074138D01*
X0218778Y0074190D01*
X0218737Y0074244D01*
X0218700Y0074300D01*
X0218666Y0074358D01*
X0218635Y0074417D01*
X0218607Y0074479D01*
X0218583Y0074542D01*
X0218563Y0074606D01*
X0218546Y0074671D01*
X0218533Y0074737D01*
X0218524Y0074804D01*
X0218518Y0074871D01*
X0218516Y0074938D01*
M02*
