G75*
%MOIN*%
%OFA0B0*%
%FSLAX25Y25*%
%IPPOS*%
%LPD*%
%AMOC8*
5,1,8,0,0,1.08239X$1,22.5*
%
%ADD10C,0.01600*%
%ADD11C,0.00600*%
%ADD12C,0.00200*%
%ADD13C,0.01000*%
%ADD14R,0.04800X0.00100*%
%ADD15R,0.07300X0.00100*%
%ADD16R,0.08900X0.00100*%
%ADD17R,0.10500X0.00100*%
%ADD18R,0.12100X0.00100*%
%ADD19R,0.12900X0.00100*%
%ADD20R,0.13700X0.00100*%
%ADD21R,0.14500X0.00100*%
%ADD22R,0.15300X0.00100*%
%ADD23R,0.11300X0.00100*%
%ADD24R,0.09700X0.00100*%
%ADD25R,0.01600X0.00100*%
%ADD26R,0.03200X0.00100*%
%ADD27C,0.00000*%
D10*
X0063516Y0008338D02*
X0259516Y0008338D01*
X0259516Y0203338D01*
X0063516Y0203338D01*
X0063516Y0008338D01*
D11*
X0186391Y0191638D02*
X0186391Y0194841D01*
X0187459Y0195909D01*
X0188526Y0194841D01*
X0188526Y0191638D01*
X0190662Y0191638D02*
X0190662Y0195909D01*
X0189594Y0195909D01*
X0188526Y0194841D01*
X0192837Y0194841D02*
X0192837Y0192706D01*
X0193904Y0191638D01*
X0196040Y0191638D01*
X0197107Y0192706D01*
X0197107Y0194841D01*
X0196040Y0195909D01*
X0193904Y0195909D01*
X0192837Y0194841D01*
X0199282Y0195909D02*
X0202485Y0195909D01*
X0203553Y0194841D01*
X0203553Y0192706D01*
X0202485Y0191638D01*
X0199282Y0191638D01*
X0205708Y0191638D02*
X0206775Y0191638D01*
X0206775Y0192706D01*
X0205708Y0192706D01*
X0205708Y0191638D01*
X0208944Y0191638D02*
X0212147Y0193773D01*
X0208944Y0195909D01*
X0212147Y0198044D02*
X0212147Y0191638D01*
X0214322Y0191638D02*
X0217525Y0191638D01*
X0218592Y0192706D01*
X0218592Y0194841D01*
X0217525Y0195909D01*
X0214322Y0195909D01*
X0220767Y0195909D02*
X0220767Y0191638D01*
X0223970Y0191638D01*
X0225038Y0192706D01*
X0225038Y0195909D01*
X0227213Y0195909D02*
X0230416Y0195909D01*
X0231483Y0194841D01*
X0231483Y0192706D01*
X0230416Y0191638D01*
X0227213Y0191638D01*
X0227213Y0198044D01*
X0233652Y0195909D02*
X0234719Y0195909D01*
X0236854Y0193773D01*
X0236854Y0191638D02*
X0236854Y0195909D01*
X0239030Y0194841D02*
X0239030Y0193773D01*
X0243300Y0193773D01*
X0243300Y0192706D02*
X0243300Y0194841D01*
X0242232Y0195909D01*
X0240097Y0195909D01*
X0239030Y0194841D01*
X0240097Y0191638D02*
X0242232Y0191638D01*
X0243300Y0192706D01*
X0245468Y0191638D02*
X0248671Y0193773D01*
X0245468Y0195909D01*
X0248671Y0198044D02*
X0248671Y0191638D01*
X0250846Y0191638D02*
X0250846Y0194841D01*
X0251914Y0195909D01*
X0255117Y0195909D01*
X0255117Y0191638D01*
X0257278Y0191638D02*
X0259414Y0191638D01*
X0258346Y0191638D02*
X0258346Y0195909D01*
X0259414Y0195909D01*
X0261575Y0195909D02*
X0263711Y0195909D01*
X0262643Y0196976D02*
X0262643Y0192706D01*
X0261575Y0191638D01*
X0258346Y0198044D02*
X0258346Y0199111D01*
D12*
X0251416Y0177798D02*
X0251416Y0176597D01*
X0249614Y0176597D01*
X0249614Y0177798D01*
X0250515Y0177197D02*
X0250515Y0176597D01*
X0249915Y0175956D02*
X0249614Y0175656D01*
X0249614Y0175055D01*
X0249915Y0174755D01*
X0251116Y0174755D01*
X0251416Y0175055D01*
X0251416Y0175656D01*
X0251116Y0175956D01*
X0249614Y0174115D02*
X0251416Y0172913D01*
X0249915Y0172273D02*
X0251116Y0171072D01*
X0251416Y0171072D01*
X0251116Y0170431D02*
X0251416Y0170131D01*
X0251416Y0169230D01*
X0249614Y0169230D01*
X0249614Y0170131D01*
X0249915Y0170431D01*
X0251116Y0170431D01*
X0249614Y0171072D02*
X0249614Y0172273D01*
X0249915Y0172273D01*
X0249915Y0168590D02*
X0250515Y0168590D01*
X0250815Y0168290D01*
X0250815Y0167389D01*
X0251416Y0167389D02*
X0249614Y0167389D01*
X0249614Y0168290D01*
X0249915Y0168590D01*
X0240916Y0170651D02*
X0238114Y0170651D01*
X0238114Y0172052D01*
X0238581Y0172519D01*
X0239515Y0172519D01*
X0239982Y0172052D01*
X0239982Y0170651D01*
X0238009Y0168774D02*
X0237542Y0169241D01*
X0236141Y0169241D01*
X0236141Y0166438D01*
X0237542Y0166438D01*
X0238009Y0166905D01*
X0238009Y0168774D01*
X0235247Y0169241D02*
X0235247Y0166438D01*
X0233378Y0169241D01*
X0233378Y0166438D01*
X0232484Y0166905D02*
X0232484Y0167839D01*
X0231550Y0167839D01*
X0230616Y0166905D02*
X0231083Y0166438D01*
X0232017Y0166438D01*
X0232484Y0166905D01*
X0230616Y0166905D02*
X0230616Y0168774D01*
X0231083Y0169241D01*
X0232017Y0169241D01*
X0232484Y0168774D01*
X0230916Y0170651D02*
X0228114Y0170651D01*
X0228114Y0172052D01*
X0228581Y0172519D01*
X0229515Y0172519D01*
X0229982Y0172052D01*
X0229982Y0170651D01*
X0230916Y0173413D02*
X0228114Y0173413D01*
X0228114Y0174815D01*
X0228581Y0175282D01*
X0230449Y0175282D01*
X0230916Y0174815D01*
X0230916Y0173413D01*
X0230449Y0176176D02*
X0230916Y0176643D01*
X0230916Y0177577D01*
X0230449Y0178044D01*
X0229515Y0178044D01*
X0229048Y0177577D01*
X0229048Y0177110D01*
X0229515Y0176176D01*
X0228114Y0176176D01*
X0228114Y0178044D01*
X0220916Y0177577D02*
X0218114Y0177577D01*
X0219515Y0176176D01*
X0219515Y0178044D01*
X0220449Y0175282D02*
X0218581Y0175282D01*
X0218114Y0174815D01*
X0218114Y0173413D01*
X0220916Y0173413D01*
X0220916Y0174815D01*
X0220449Y0175282D01*
X0219515Y0172519D02*
X0218581Y0172519D01*
X0218114Y0172052D01*
X0218114Y0170651D01*
X0220916Y0170651D01*
X0219982Y0170651D02*
X0219982Y0172052D01*
X0219515Y0172519D01*
X0210916Y0173413D02*
X0210916Y0174815D01*
X0210449Y0175282D01*
X0208581Y0175282D01*
X0208114Y0174815D01*
X0208114Y0173413D01*
X0210916Y0173413D01*
X0209982Y0172052D02*
X0209515Y0172519D01*
X0208581Y0172519D01*
X0208114Y0172052D01*
X0208114Y0170651D01*
X0210916Y0170651D01*
X0209982Y0170651D02*
X0209982Y0172052D01*
X0210449Y0176176D02*
X0210916Y0176643D01*
X0210916Y0177577D01*
X0210449Y0178044D01*
X0209982Y0178044D01*
X0209515Y0177577D01*
X0209515Y0177110D01*
X0209515Y0177577D02*
X0209048Y0178044D01*
X0208581Y0178044D01*
X0208114Y0177577D01*
X0208114Y0176643D01*
X0208581Y0176176D01*
X0200916Y0176176D02*
X0199048Y0178044D01*
X0198581Y0178044D01*
X0198114Y0177577D01*
X0198114Y0176643D01*
X0198581Y0176176D01*
X0198581Y0175282D02*
X0198114Y0174815D01*
X0198114Y0173413D01*
X0200916Y0173413D01*
X0200916Y0174815D01*
X0200449Y0175282D01*
X0198581Y0175282D01*
X0200916Y0176176D02*
X0200916Y0178044D01*
X0199515Y0172519D02*
X0199982Y0172052D01*
X0199982Y0170651D01*
X0200916Y0170651D02*
X0198114Y0170651D01*
X0198114Y0172052D01*
X0198581Y0172519D01*
X0199515Y0172519D01*
X0190916Y0171151D02*
X0188114Y0171151D01*
X0188114Y0172552D01*
X0188581Y0173019D01*
X0189515Y0173019D01*
X0189982Y0172552D01*
X0189982Y0171151D01*
X0190916Y0173913D02*
X0188114Y0173913D01*
X0188114Y0175315D01*
X0188581Y0175782D01*
X0190449Y0175782D01*
X0190916Y0175315D01*
X0190916Y0173913D01*
X0190916Y0176676D02*
X0190916Y0178544D01*
X0190916Y0177610D02*
X0188114Y0177610D01*
X0189048Y0176676D01*
X0173416Y0179151D02*
X0170614Y0179151D01*
X0170614Y0180552D01*
X0171081Y0181019D01*
X0172015Y0181019D01*
X0172482Y0180552D01*
X0172482Y0179151D01*
X0173416Y0181913D02*
X0170614Y0181913D01*
X0170614Y0183315D01*
X0171081Y0183782D01*
X0172949Y0183782D01*
X0173416Y0183315D01*
X0173416Y0181913D01*
X0172949Y0184676D02*
X0171081Y0186544D01*
X0172949Y0186544D01*
X0173416Y0186077D01*
X0173416Y0185143D01*
X0172949Y0184676D01*
X0171081Y0184676D01*
X0170614Y0185143D01*
X0170614Y0186077D01*
X0171081Y0186544D01*
X0230616Y0160241D02*
X0230616Y0157438D01*
X0230616Y0158372D02*
X0232017Y0158372D01*
X0232484Y0158839D01*
X0232484Y0159774D01*
X0232017Y0160241D01*
X0230616Y0160241D01*
X0233378Y0159774D02*
X0233378Y0157905D01*
X0233845Y0157438D01*
X0234780Y0157438D01*
X0235247Y0157905D01*
X0236141Y0157905D02*
X0236608Y0157438D01*
X0237542Y0157438D01*
X0238009Y0157905D01*
X0238009Y0158839D01*
X0237542Y0159306D01*
X0237075Y0159306D01*
X0236141Y0158839D01*
X0236141Y0160241D01*
X0238009Y0160241D01*
X0235247Y0159774D02*
X0234780Y0160241D01*
X0233845Y0160241D01*
X0233378Y0159774D01*
X0233845Y0150241D02*
X0233378Y0149774D01*
X0233378Y0147905D01*
X0233845Y0147438D01*
X0234780Y0147438D01*
X0235247Y0147905D01*
X0236141Y0148839D02*
X0237542Y0150241D01*
X0237542Y0147438D01*
X0238009Y0148839D02*
X0236141Y0148839D01*
X0235247Y0149774D02*
X0234780Y0150241D01*
X0233845Y0150241D01*
X0232484Y0149774D02*
X0232484Y0148839D01*
X0232017Y0148372D01*
X0230616Y0148372D01*
X0230616Y0147438D02*
X0230616Y0150241D01*
X0232017Y0150241D01*
X0232484Y0149774D01*
X0232017Y0139241D02*
X0232484Y0138774D01*
X0232484Y0137839D01*
X0232017Y0137372D01*
X0230616Y0137372D01*
X0230616Y0136438D02*
X0230616Y0139241D01*
X0232017Y0139241D01*
X0233378Y0138774D02*
X0233378Y0136905D01*
X0233845Y0136438D01*
X0234780Y0136438D01*
X0235247Y0136905D01*
X0236141Y0136905D02*
X0236608Y0136438D01*
X0237542Y0136438D01*
X0238009Y0136905D01*
X0238009Y0137372D01*
X0237542Y0137839D01*
X0237075Y0137839D01*
X0237542Y0137839D02*
X0238009Y0138306D01*
X0238009Y0138774D01*
X0237542Y0139241D01*
X0236608Y0139241D01*
X0236141Y0138774D01*
X0235247Y0138774D02*
X0234780Y0139241D01*
X0233845Y0139241D01*
X0233378Y0138774D01*
X0233845Y0129241D02*
X0233378Y0128774D01*
X0233378Y0126905D01*
X0233845Y0126438D01*
X0234780Y0126438D01*
X0235247Y0126905D01*
X0236141Y0126438D02*
X0238009Y0128306D01*
X0238009Y0128774D01*
X0237542Y0129241D01*
X0236608Y0129241D01*
X0236141Y0128774D01*
X0235247Y0128774D02*
X0234780Y0129241D01*
X0233845Y0129241D01*
X0232484Y0128774D02*
X0232484Y0127839D01*
X0232017Y0127372D01*
X0230616Y0127372D01*
X0230616Y0126438D02*
X0230616Y0129241D01*
X0232017Y0129241D01*
X0232484Y0128774D01*
X0236141Y0126438D02*
X0238009Y0126438D01*
X0237075Y0119741D02*
X0237075Y0116938D01*
X0236141Y0116938D02*
X0238009Y0116938D01*
X0236141Y0118806D02*
X0237075Y0119741D01*
X0235247Y0119274D02*
X0234780Y0119741D01*
X0233845Y0119741D01*
X0233378Y0119274D01*
X0233378Y0117405D01*
X0233845Y0116938D01*
X0234780Y0116938D01*
X0235247Y0117405D01*
X0232484Y0118339D02*
X0232484Y0119274D01*
X0232017Y0119741D01*
X0230616Y0119741D01*
X0230616Y0116938D01*
X0230616Y0117872D02*
X0232017Y0117872D01*
X0232484Y0118339D01*
X0232017Y0109741D02*
X0232484Y0109274D01*
X0232484Y0108339D01*
X0232017Y0107872D01*
X0230616Y0107872D01*
X0230616Y0106938D02*
X0230616Y0109741D01*
X0232017Y0109741D01*
X0233378Y0109274D02*
X0233378Y0107405D01*
X0233845Y0106938D01*
X0234780Y0106938D01*
X0235247Y0107405D01*
X0236141Y0107405D02*
X0236141Y0109274D01*
X0236608Y0109741D01*
X0237542Y0109741D01*
X0238009Y0109274D01*
X0236141Y0107405D01*
X0236608Y0106938D01*
X0237542Y0106938D01*
X0238009Y0107405D01*
X0238009Y0109274D01*
X0235247Y0109274D02*
X0234780Y0109741D01*
X0233845Y0109741D01*
X0233378Y0109274D01*
X0232878Y0100241D02*
X0234280Y0100241D01*
X0234747Y0099774D01*
X0234747Y0098839D01*
X0234280Y0098372D01*
X0232878Y0098372D01*
X0232878Y0097438D02*
X0232878Y0100241D01*
X0231984Y0099306D02*
X0231984Y0097438D01*
X0231984Y0098839D02*
X0230116Y0098839D01*
X0230116Y0099306D02*
X0231050Y0100241D01*
X0231984Y0099306D01*
X0230116Y0099306D02*
X0230116Y0097438D01*
X0233812Y0098372D02*
X0234747Y0097438D01*
X0235641Y0097438D02*
X0235641Y0100241D01*
X0237509Y0100241D01*
X0238403Y0100241D02*
X0238403Y0097438D01*
X0237509Y0097438D02*
X0235641Y0097438D01*
X0235641Y0098839D02*
X0236575Y0098839D01*
X0238403Y0098839D02*
X0239337Y0098839D01*
X0238403Y0100241D02*
X0240271Y0100241D01*
X0235280Y0089741D02*
X0234345Y0089741D01*
X0233878Y0089274D01*
X0233878Y0087405D01*
X0234345Y0086938D01*
X0235280Y0086938D01*
X0235747Y0087405D01*
X0235747Y0089274D02*
X0235280Y0089741D01*
X0232984Y0089741D02*
X0232984Y0086938D01*
X0231116Y0089741D01*
X0231116Y0086938D01*
X0230616Y0080241D02*
X0230616Y0078372D01*
X0231550Y0077438D01*
X0232484Y0078372D01*
X0232484Y0080241D01*
X0233378Y0079774D02*
X0233378Y0077905D01*
X0233845Y0077438D01*
X0234780Y0077438D01*
X0235247Y0077905D01*
X0236141Y0077905D02*
X0236141Y0079774D01*
X0236608Y0080241D01*
X0237542Y0080241D01*
X0238009Y0079774D01*
X0238009Y0077905D02*
X0237542Y0077438D01*
X0236608Y0077438D01*
X0236141Y0077905D01*
X0235247Y0079774D02*
X0234780Y0080241D01*
X0233845Y0080241D01*
X0233378Y0079774D01*
X0232509Y0070241D02*
X0230641Y0070241D01*
X0230641Y0068839D01*
X0231575Y0069306D01*
X0232042Y0069306D01*
X0232509Y0068839D01*
X0232509Y0067905D01*
X0232042Y0067438D01*
X0231108Y0067438D01*
X0230641Y0067905D01*
X0229747Y0067905D02*
X0229280Y0067438D01*
X0227878Y0067438D01*
X0227878Y0070241D01*
X0229280Y0070241D01*
X0229747Y0069774D01*
X0229747Y0069306D01*
X0229280Y0068839D01*
X0227878Y0068839D01*
X0226984Y0068839D02*
X0226984Y0069774D01*
X0226517Y0070241D01*
X0225116Y0070241D01*
X0225116Y0067438D01*
X0225116Y0068372D02*
X0226517Y0068372D01*
X0226984Y0068839D01*
X0229280Y0068839D02*
X0229747Y0068372D01*
X0229747Y0067905D01*
X0233403Y0067438D02*
X0235271Y0070241D01*
X0236165Y0069774D02*
X0236165Y0069306D01*
X0236632Y0068839D01*
X0237567Y0068839D01*
X0238034Y0068372D01*
X0238034Y0067905D01*
X0237567Y0067438D01*
X0236632Y0067438D01*
X0236165Y0067905D01*
X0236165Y0069774D02*
X0236632Y0070241D01*
X0237567Y0070241D01*
X0238034Y0069774D01*
X0238928Y0069774D02*
X0238928Y0067905D01*
X0239395Y0067438D01*
X0240329Y0067438D01*
X0240796Y0067905D01*
X0241690Y0067438D02*
X0241690Y0070241D01*
X0240796Y0069774D02*
X0240329Y0070241D01*
X0239395Y0070241D01*
X0238928Y0069774D01*
X0241690Y0068372D02*
X0243558Y0070241D01*
X0242157Y0068839D02*
X0243558Y0067438D01*
X0243999Y0060741D02*
X0243532Y0060274D01*
X0243532Y0058405D01*
X0243999Y0057938D01*
X0244933Y0057938D01*
X0245400Y0058405D01*
X0245400Y0060274D01*
X0244933Y0060741D01*
X0243999Y0060741D01*
X0242638Y0060274D02*
X0242170Y0060741D01*
X0241236Y0060741D01*
X0240769Y0060274D01*
X0240769Y0059806D01*
X0241236Y0059339D01*
X0242170Y0059339D01*
X0242638Y0058872D01*
X0242638Y0058405D01*
X0242170Y0057938D01*
X0241236Y0057938D01*
X0240769Y0058405D01*
X0239862Y0057938D02*
X0238928Y0057938D01*
X0239395Y0057938D02*
X0239395Y0060741D01*
X0238928Y0060741D02*
X0239862Y0060741D01*
X0238034Y0060741D02*
X0238034Y0057938D01*
X0236165Y0057938D02*
X0236165Y0060741D01*
X0237099Y0059806D01*
X0238034Y0060741D01*
X0235271Y0060741D02*
X0233403Y0057938D01*
X0232042Y0057938D02*
X0232042Y0060741D01*
X0230641Y0059339D01*
X0232509Y0059339D01*
X0229747Y0058872D02*
X0229747Y0058405D01*
X0229280Y0057938D01*
X0227878Y0057938D01*
X0227878Y0060741D01*
X0229280Y0060741D01*
X0229747Y0060274D01*
X0229747Y0059806D01*
X0229280Y0059339D01*
X0227878Y0059339D01*
X0226984Y0059339D02*
X0226984Y0060274D01*
X0226517Y0060741D01*
X0225116Y0060741D01*
X0225116Y0057938D01*
X0225116Y0058872D02*
X0226517Y0058872D01*
X0226984Y0059339D01*
X0229280Y0059339D02*
X0229747Y0058872D01*
X0230608Y0050741D02*
X0231542Y0050741D01*
X0232009Y0050274D01*
X0232009Y0049806D01*
X0231542Y0049339D01*
X0232009Y0048872D01*
X0232009Y0048405D01*
X0231542Y0047938D01*
X0230608Y0047938D01*
X0230141Y0048405D01*
X0229247Y0048405D02*
X0228780Y0047938D01*
X0227378Y0047938D01*
X0227378Y0050741D01*
X0228780Y0050741D01*
X0229247Y0050274D01*
X0229247Y0049806D01*
X0228780Y0049339D01*
X0227378Y0049339D01*
X0226484Y0049339D02*
X0226017Y0048872D01*
X0224616Y0048872D01*
X0224616Y0047938D02*
X0224616Y0050741D01*
X0226017Y0050741D01*
X0226484Y0050274D01*
X0226484Y0049339D01*
X0228780Y0049339D02*
X0229247Y0048872D01*
X0229247Y0048405D01*
X0231075Y0049339D02*
X0231542Y0049339D01*
X0230141Y0050274D02*
X0230608Y0050741D01*
X0232903Y0047938D02*
X0234771Y0050741D01*
X0235665Y0050741D02*
X0235665Y0047938D01*
X0237534Y0047938D02*
X0237534Y0050741D01*
X0236599Y0049806D01*
X0235665Y0050741D01*
X0238428Y0050274D02*
X0238428Y0048405D01*
X0238895Y0047938D01*
X0239829Y0047938D01*
X0240296Y0048405D01*
X0240296Y0050274D01*
X0239829Y0050741D01*
X0238895Y0050741D01*
X0238428Y0050274D01*
X0241190Y0050274D02*
X0241190Y0049806D01*
X0241657Y0049339D01*
X0242591Y0049339D01*
X0243058Y0048872D01*
X0243058Y0048405D01*
X0242591Y0047938D01*
X0241657Y0047938D01*
X0241190Y0048405D01*
X0241190Y0050274D02*
X0241657Y0050741D01*
X0242591Y0050741D01*
X0243058Y0050274D01*
X0243952Y0050741D02*
X0244887Y0050741D01*
X0244419Y0050741D02*
X0244419Y0047938D01*
X0243952Y0047938D02*
X0244887Y0047938D01*
X0239542Y0040241D02*
X0238608Y0040241D01*
X0238141Y0039774D01*
X0237247Y0039774D02*
X0237247Y0039306D01*
X0236780Y0038839D01*
X0235378Y0038839D01*
X0234484Y0038839D02*
X0234484Y0039774D01*
X0234017Y0040241D01*
X0232616Y0040241D01*
X0232616Y0037438D01*
X0232616Y0038372D02*
X0234017Y0038372D01*
X0234484Y0038839D01*
X0235378Y0037438D02*
X0235378Y0040241D01*
X0236780Y0040241D01*
X0237247Y0039774D01*
X0236780Y0038839D02*
X0237247Y0038372D01*
X0237247Y0037905D01*
X0236780Y0037438D01*
X0235378Y0037438D01*
X0238141Y0037438D02*
X0240009Y0039306D01*
X0240009Y0039774D01*
X0239542Y0040241D01*
X0240009Y0037438D02*
X0238141Y0037438D01*
X0239075Y0030241D02*
X0239075Y0027438D01*
X0238141Y0027438D02*
X0240009Y0027438D01*
X0238141Y0029306D02*
X0239075Y0030241D01*
X0237247Y0029774D02*
X0237247Y0029306D01*
X0236780Y0028839D01*
X0235378Y0028839D01*
X0234484Y0028839D02*
X0234017Y0028372D01*
X0232616Y0028372D01*
X0232616Y0027438D02*
X0232616Y0030241D01*
X0234017Y0030241D01*
X0234484Y0029774D01*
X0234484Y0028839D01*
X0235378Y0027438D02*
X0236780Y0027438D01*
X0237247Y0027905D01*
X0237247Y0028372D01*
X0236780Y0028839D01*
X0237247Y0029774D02*
X0236780Y0030241D01*
X0235378Y0030241D01*
X0235378Y0027438D01*
X0235395Y0021241D02*
X0234928Y0020774D01*
X0234928Y0020306D01*
X0235395Y0019839D01*
X0236329Y0019839D01*
X0236796Y0019372D01*
X0236796Y0018905D01*
X0236329Y0018438D01*
X0235395Y0018438D01*
X0234928Y0018905D01*
X0234034Y0018905D02*
X0233567Y0018438D01*
X0232632Y0018438D01*
X0232165Y0018905D01*
X0232165Y0020774D01*
X0232632Y0021241D01*
X0233567Y0021241D01*
X0234034Y0020774D01*
X0235395Y0021241D02*
X0236329Y0021241D01*
X0236796Y0020774D01*
X0237690Y0021241D02*
X0239558Y0018438D01*
X0239558Y0021241D01*
X0237690Y0021241D02*
X0237690Y0018438D01*
X0231271Y0021241D02*
X0229403Y0018438D01*
X0228509Y0018905D02*
X0228042Y0018438D01*
X0227108Y0018438D01*
X0226641Y0018905D01*
X0228509Y0020774D01*
X0228509Y0018905D01*
X0226641Y0018905D02*
X0226641Y0020774D01*
X0227108Y0021241D01*
X0228042Y0021241D01*
X0228509Y0020774D01*
X0225747Y0020774D02*
X0225747Y0020306D01*
X0225280Y0019839D01*
X0223878Y0019839D01*
X0222984Y0019839D02*
X0222517Y0019372D01*
X0221116Y0019372D01*
X0221116Y0018438D02*
X0221116Y0021241D01*
X0222517Y0021241D01*
X0222984Y0020774D01*
X0222984Y0019839D01*
X0223878Y0018438D02*
X0225280Y0018438D01*
X0225747Y0018905D01*
X0225747Y0019372D01*
X0225280Y0019839D01*
X0225747Y0020774D02*
X0225280Y0021241D01*
X0223878Y0021241D01*
X0223878Y0018438D01*
X0105918Y0036151D02*
X0104050Y0036151D01*
X0103116Y0037085D01*
X0104050Y0038019D01*
X0105918Y0038019D01*
X0105451Y0038913D02*
X0103583Y0038913D01*
X0103116Y0039381D01*
X0103116Y0040315D01*
X0103583Y0040782D01*
X0103583Y0041676D02*
X0103116Y0042143D01*
X0103116Y0043077D01*
X0103583Y0043544D01*
X0103583Y0041676D02*
X0105451Y0041676D01*
X0105918Y0042143D01*
X0105918Y0043077D01*
X0105451Y0043544D01*
X0105451Y0040782D02*
X0105918Y0040315D01*
X0105918Y0039381D01*
X0105451Y0038913D01*
X0095918Y0039381D02*
X0095451Y0038913D01*
X0094984Y0038913D01*
X0094517Y0039381D01*
X0094517Y0040315D01*
X0094050Y0040782D01*
X0093583Y0040782D01*
X0093116Y0040315D01*
X0093116Y0039381D01*
X0093583Y0038913D01*
X0093583Y0038019D02*
X0093116Y0037552D01*
X0093116Y0036618D01*
X0093583Y0036151D01*
X0095451Y0036151D01*
X0095918Y0036618D01*
X0095918Y0037552D01*
X0095451Y0038019D01*
X0095918Y0039381D02*
X0095918Y0040315D01*
X0095451Y0040782D01*
X0095918Y0041676D02*
X0093116Y0041676D01*
X0093116Y0043544D02*
X0095918Y0043544D01*
X0095918Y0041676D02*
X0093116Y0043544D01*
X0093583Y0048413D02*
X0093116Y0048881D01*
X0093116Y0049815D01*
X0093583Y0050282D01*
X0093116Y0051176D02*
X0095918Y0051176D01*
X0095918Y0053044D01*
X0094517Y0052110D02*
X0094517Y0051176D01*
X0095451Y0050282D02*
X0095918Y0049815D01*
X0095918Y0048881D01*
X0095451Y0048413D01*
X0093583Y0048413D01*
X0093116Y0051176D02*
X0093116Y0053044D01*
X0085918Y0053676D02*
X0083116Y0053676D01*
X0084050Y0053676D02*
X0085918Y0055544D01*
X0084517Y0054143D02*
X0083116Y0055544D01*
X0083583Y0052782D02*
X0083116Y0052315D01*
X0083116Y0051381D01*
X0083583Y0050913D01*
X0085451Y0050913D01*
X0085918Y0051381D01*
X0085918Y0052315D01*
X0085451Y0052782D01*
X0085451Y0050019D02*
X0085918Y0049552D01*
X0085918Y0048618D01*
X0085451Y0048151D01*
X0084984Y0048151D01*
X0084517Y0048618D01*
X0084517Y0049552D01*
X0084050Y0050019D01*
X0083583Y0050019D01*
X0083116Y0049552D01*
X0083116Y0048618D01*
X0083583Y0048151D01*
X0083116Y0043671D02*
X0083116Y0042904D01*
X0083116Y0043287D02*
X0085418Y0043287D01*
X0085418Y0042904D02*
X0085418Y0043671D01*
X0085034Y0042136D02*
X0085418Y0041753D01*
X0085418Y0040985D01*
X0085034Y0040602D01*
X0084651Y0040602D01*
X0084267Y0040985D01*
X0084267Y0041753D01*
X0083883Y0042136D01*
X0083500Y0042136D01*
X0083116Y0041753D01*
X0083116Y0040985D01*
X0083500Y0040602D01*
X0083500Y0039834D02*
X0085034Y0039834D01*
X0085418Y0039451D01*
X0085418Y0038683D01*
X0085034Y0038300D01*
X0083500Y0038300D01*
X0083116Y0038683D01*
X0083116Y0039451D01*
X0083500Y0039834D01*
X0083116Y0037532D02*
X0085418Y0037532D01*
X0084651Y0036765D01*
X0085418Y0035998D01*
X0083116Y0035998D01*
X0075918Y0036006D02*
X0075918Y0035072D01*
X0075918Y0035539D02*
X0073116Y0035539D01*
X0073116Y0035072D02*
X0073116Y0036006D01*
X0073116Y0036913D02*
X0075918Y0036913D01*
X0075918Y0038315D01*
X0075451Y0038782D01*
X0074517Y0038782D01*
X0074050Y0038315D01*
X0074050Y0036913D01*
X0074050Y0037848D02*
X0073116Y0038782D01*
X0073583Y0039676D02*
X0073116Y0040143D01*
X0073116Y0041077D01*
X0073583Y0041544D01*
X0075451Y0041544D01*
X0075918Y0041077D01*
X0075918Y0040143D01*
X0075451Y0039676D01*
X0073583Y0039676D01*
X0074050Y0040610D02*
X0073116Y0041544D01*
X0073616Y0048498D02*
X0075918Y0048498D01*
X0075151Y0049265D01*
X0075918Y0050032D01*
X0073616Y0050032D01*
X0073616Y0050800D02*
X0073616Y0051567D01*
X0073616Y0051183D02*
X0075918Y0051183D01*
X0075918Y0050800D02*
X0075918Y0051567D01*
X0075534Y0052334D02*
X0075151Y0052334D01*
X0074767Y0052718D01*
X0074767Y0053485D01*
X0074383Y0053869D01*
X0074000Y0053869D01*
X0073616Y0053485D01*
X0073616Y0052718D01*
X0074000Y0052334D01*
X0075534Y0052334D02*
X0075918Y0052718D01*
X0075918Y0053485D01*
X0075534Y0053869D01*
X0075534Y0054636D02*
X0074000Y0054636D01*
X0073616Y0055020D01*
X0073616Y0055787D01*
X0074000Y0056171D01*
X0075534Y0056171D01*
X0075918Y0055787D01*
X0075918Y0055020D01*
X0075534Y0054636D01*
X0103116Y0054676D02*
X0103116Y0056077D01*
X0103583Y0056544D01*
X0105451Y0056544D01*
X0105918Y0056077D01*
X0105918Y0054676D01*
X0103116Y0054676D01*
X0103116Y0053782D02*
X0105918Y0053782D01*
X0105918Y0051913D02*
X0103116Y0051913D01*
X0103583Y0051019D02*
X0104517Y0051019D01*
X0104517Y0050085D01*
X0103583Y0049151D02*
X0103116Y0049618D01*
X0103116Y0050552D01*
X0103583Y0051019D01*
X0103583Y0049151D02*
X0105451Y0049151D01*
X0105918Y0049618D01*
X0105918Y0050552D01*
X0105451Y0051019D01*
X0105918Y0051913D02*
X0103116Y0053782D01*
X0238114Y0173413D02*
X0238114Y0174815D01*
X0238581Y0175282D01*
X0240449Y0175282D01*
X0240916Y0174815D01*
X0240916Y0173413D01*
X0238114Y0173413D01*
X0239515Y0176176D02*
X0239515Y0177577D01*
X0239982Y0178044D01*
X0240449Y0178044D01*
X0240916Y0177577D01*
X0240916Y0176643D01*
X0240449Y0176176D01*
X0239515Y0176176D01*
X0238581Y0177110D01*
X0238114Y0178044D01*
D13*
X0109516Y0058338D02*
X0099516Y0058338D01*
X0099516Y0033338D01*
X0109516Y0033338D01*
X0109516Y0045838D01*
X0069516Y0045838D01*
X0069516Y0033338D01*
X0079516Y0033338D01*
X0079516Y0058338D01*
X0069516Y0058338D01*
X0069516Y0045838D01*
X0079516Y0033338D02*
X0089516Y0033338D01*
X0089516Y0058338D01*
X0079516Y0058338D01*
X0089516Y0058338D02*
X0099516Y0058338D01*
X0109516Y0058338D02*
X0109516Y0045838D01*
X0099516Y0033338D02*
X0089516Y0033338D01*
D14*
X0208666Y0019638D03*
X0208666Y0019538D03*
X0208666Y0019438D03*
X0208666Y0019338D03*
X0208666Y0019238D03*
X0208666Y0019138D03*
X0208666Y0019038D03*
X0208666Y0018938D03*
X0208666Y0018838D03*
X0209466Y0035538D03*
X0209466Y0035638D03*
X0209466Y0035738D03*
X0209466Y0035838D03*
X0209466Y0035938D03*
X0209466Y0036038D03*
X0209466Y0036138D03*
X0209466Y0036238D03*
X0209466Y0036338D03*
D15*
X0208216Y0020438D03*
X0208216Y0020338D03*
X0208216Y0020238D03*
X0208216Y0020138D03*
X0208216Y0020038D03*
X0208216Y0019938D03*
X0208216Y0019838D03*
X0208216Y0019738D03*
D16*
X0208216Y0020538D03*
X0208216Y0020638D03*
X0208216Y0020738D03*
X0208216Y0020838D03*
X0208216Y0020938D03*
X0208216Y0021038D03*
X0208216Y0021138D03*
X0208216Y0021238D03*
X0208216Y0021338D03*
X0207416Y0034638D03*
X0207416Y0034738D03*
X0207416Y0034838D03*
X0207416Y0034938D03*
X0207416Y0035038D03*
X0207416Y0035138D03*
X0207416Y0035238D03*
X0207416Y0035338D03*
X0207416Y0035438D03*
D17*
X0208216Y0022238D03*
X0208216Y0022138D03*
X0208216Y0022038D03*
X0208216Y0021938D03*
X0208216Y0021838D03*
X0208216Y0021738D03*
X0208216Y0021638D03*
X0208216Y0021538D03*
X0208216Y0021438D03*
D18*
X0208216Y0022338D03*
X0208216Y0022438D03*
X0208216Y0022538D03*
X0208216Y0022638D03*
X0208216Y0022738D03*
X0208216Y0022838D03*
X0208216Y0022938D03*
X0208216Y0023038D03*
X0208216Y0023138D03*
X0208216Y0023238D03*
X0208216Y0023338D03*
X0208216Y0023438D03*
X0208216Y0023538D03*
X0208216Y0023638D03*
X0208216Y0023738D03*
X0208216Y0023838D03*
X0208216Y0023938D03*
X0208216Y0024038D03*
D19*
X0208616Y0024138D03*
X0208616Y0024238D03*
X0208616Y0024338D03*
X0208616Y0024438D03*
X0208616Y0024538D03*
X0208616Y0024638D03*
X0208616Y0024738D03*
X0208616Y0024838D03*
X0205416Y0030238D03*
X0205416Y0030338D03*
X0205416Y0030438D03*
X0205416Y0030538D03*
X0205416Y0030638D03*
X0205416Y0030738D03*
X0205416Y0030838D03*
X0205416Y0030938D03*
X0205416Y0031038D03*
X0206216Y0031138D03*
X0206216Y0031238D03*
X0206216Y0031338D03*
X0206216Y0031438D03*
X0206216Y0031538D03*
X0206216Y0031638D03*
X0206216Y0031738D03*
X0206216Y0031838D03*
X0206216Y0031938D03*
D20*
X0208216Y0027538D03*
X0208216Y0027438D03*
X0208216Y0027338D03*
X0208216Y0027238D03*
X0208216Y0027138D03*
X0208216Y0027038D03*
X0208216Y0026938D03*
X0208216Y0026838D03*
X0208216Y0026738D03*
X0208216Y0026638D03*
X0208216Y0026538D03*
X0208216Y0026438D03*
X0208216Y0026338D03*
X0208216Y0026238D03*
X0208216Y0026138D03*
X0208216Y0026038D03*
X0208216Y0025938D03*
X0208216Y0025838D03*
X0208216Y0025738D03*
X0208216Y0025638D03*
X0208216Y0025538D03*
X0208216Y0025438D03*
X0208216Y0025338D03*
X0208216Y0025238D03*
X0208216Y0025138D03*
X0208216Y0025038D03*
X0208216Y0024938D03*
D21*
X0207816Y0027638D03*
X0207816Y0027738D03*
X0207816Y0027838D03*
X0207816Y0027938D03*
X0207816Y0028038D03*
X0207816Y0028138D03*
X0207816Y0028238D03*
X0207816Y0028338D03*
X0207816Y0028438D03*
X0207016Y0029338D03*
D22*
X0207416Y0029238D03*
X0207416Y0029138D03*
X0207416Y0029038D03*
X0207416Y0028938D03*
X0207416Y0028838D03*
X0207416Y0028738D03*
X0207416Y0028638D03*
X0207416Y0028538D03*
X0206616Y0029438D03*
X0206616Y0029538D03*
X0206616Y0029638D03*
X0206616Y0029738D03*
X0206616Y0029838D03*
X0206616Y0029938D03*
X0206616Y0030038D03*
X0206616Y0030138D03*
D23*
X0207016Y0032038D03*
X0207016Y0032138D03*
X0207016Y0032238D03*
X0207016Y0032338D03*
X0207016Y0032438D03*
X0207016Y0032538D03*
X0207016Y0032638D03*
X0207016Y0032738D03*
X0207016Y0032838D03*
X0207016Y0032938D03*
X0207016Y0033038D03*
X0207016Y0033138D03*
X0207016Y0033238D03*
X0207016Y0033338D03*
X0207016Y0033438D03*
X0207016Y0033538D03*
X0207016Y0033638D03*
D24*
X0207816Y0033738D03*
X0207816Y0033838D03*
X0207816Y0033938D03*
X0207816Y0034038D03*
X0207816Y0034138D03*
X0207816Y0034238D03*
X0207816Y0034338D03*
X0207816Y0034438D03*
X0207816Y0034538D03*
D25*
X0204566Y0035538D03*
X0204566Y0035638D03*
X0204566Y0035738D03*
X0204566Y0035838D03*
X0204566Y0035938D03*
X0204566Y0036038D03*
X0204566Y0036138D03*
X0204566Y0036238D03*
X0204566Y0036338D03*
X0209466Y0037238D03*
X0209466Y0037338D03*
X0209466Y0037438D03*
X0209466Y0037538D03*
X0209466Y0037638D03*
X0209466Y0037738D03*
X0209466Y0037838D03*
X0209466Y0037938D03*
X0209466Y0038038D03*
D26*
X0209466Y0037138D03*
X0209466Y0037038D03*
X0209466Y0036938D03*
X0209466Y0036838D03*
X0209466Y0036738D03*
X0209466Y0036638D03*
X0209466Y0036538D03*
X0209466Y0036438D03*
D27*
X0078016Y0084338D02*
X0078018Y0084499D01*
X0078024Y0084659D01*
X0078034Y0084820D01*
X0078048Y0084980D01*
X0078066Y0085140D01*
X0078087Y0085299D01*
X0078113Y0085458D01*
X0078143Y0085616D01*
X0078176Y0085773D01*
X0078214Y0085930D01*
X0078255Y0086085D01*
X0078300Y0086239D01*
X0078349Y0086392D01*
X0078402Y0086544D01*
X0078458Y0086695D01*
X0078519Y0086844D01*
X0078582Y0086992D01*
X0078650Y0087138D01*
X0078721Y0087282D01*
X0078795Y0087424D01*
X0078873Y0087565D01*
X0078955Y0087703D01*
X0079040Y0087840D01*
X0079128Y0087974D01*
X0079220Y0088106D01*
X0079315Y0088236D01*
X0079413Y0088364D01*
X0079514Y0088489D01*
X0079618Y0088611D01*
X0079725Y0088731D01*
X0079835Y0088848D01*
X0079948Y0088963D01*
X0080064Y0089074D01*
X0080183Y0089183D01*
X0080304Y0089288D01*
X0080428Y0089391D01*
X0080554Y0089491D01*
X0080682Y0089587D01*
X0080813Y0089680D01*
X0080947Y0089770D01*
X0081082Y0089857D01*
X0081220Y0089940D01*
X0081359Y0090020D01*
X0081501Y0090096D01*
X0081644Y0090169D01*
X0081789Y0090238D01*
X0081936Y0090304D01*
X0082084Y0090366D01*
X0082234Y0090424D01*
X0082385Y0090479D01*
X0082538Y0090530D01*
X0082692Y0090577D01*
X0082847Y0090620D01*
X0083003Y0090659D01*
X0083159Y0090695D01*
X0083317Y0090726D01*
X0083475Y0090754D01*
X0083634Y0090778D01*
X0083794Y0090798D01*
X0083954Y0090814D01*
X0084114Y0090826D01*
X0084275Y0090834D01*
X0084436Y0090838D01*
X0084596Y0090838D01*
X0084757Y0090834D01*
X0084918Y0090826D01*
X0085078Y0090814D01*
X0085238Y0090798D01*
X0085398Y0090778D01*
X0085557Y0090754D01*
X0085715Y0090726D01*
X0085873Y0090695D01*
X0086029Y0090659D01*
X0086185Y0090620D01*
X0086340Y0090577D01*
X0086494Y0090530D01*
X0086647Y0090479D01*
X0086798Y0090424D01*
X0086948Y0090366D01*
X0087096Y0090304D01*
X0087243Y0090238D01*
X0087388Y0090169D01*
X0087531Y0090096D01*
X0087673Y0090020D01*
X0087812Y0089940D01*
X0087950Y0089857D01*
X0088085Y0089770D01*
X0088219Y0089680D01*
X0088350Y0089587D01*
X0088478Y0089491D01*
X0088604Y0089391D01*
X0088728Y0089288D01*
X0088849Y0089183D01*
X0088968Y0089074D01*
X0089084Y0088963D01*
X0089197Y0088848D01*
X0089307Y0088731D01*
X0089414Y0088611D01*
X0089518Y0088489D01*
X0089619Y0088364D01*
X0089717Y0088236D01*
X0089812Y0088106D01*
X0089904Y0087974D01*
X0089992Y0087840D01*
X0090077Y0087703D01*
X0090159Y0087565D01*
X0090237Y0087424D01*
X0090311Y0087282D01*
X0090382Y0087138D01*
X0090450Y0086992D01*
X0090513Y0086844D01*
X0090574Y0086695D01*
X0090630Y0086544D01*
X0090683Y0086392D01*
X0090732Y0086239D01*
X0090777Y0086085D01*
X0090818Y0085930D01*
X0090856Y0085773D01*
X0090889Y0085616D01*
X0090919Y0085458D01*
X0090945Y0085299D01*
X0090966Y0085140D01*
X0090984Y0084980D01*
X0090998Y0084820D01*
X0091008Y0084659D01*
X0091014Y0084499D01*
X0091016Y0084338D01*
X0091014Y0084177D01*
X0091008Y0084017D01*
X0090998Y0083856D01*
X0090984Y0083696D01*
X0090966Y0083536D01*
X0090945Y0083377D01*
X0090919Y0083218D01*
X0090889Y0083060D01*
X0090856Y0082903D01*
X0090818Y0082746D01*
X0090777Y0082591D01*
X0090732Y0082437D01*
X0090683Y0082284D01*
X0090630Y0082132D01*
X0090574Y0081981D01*
X0090513Y0081832D01*
X0090450Y0081684D01*
X0090382Y0081538D01*
X0090311Y0081394D01*
X0090237Y0081252D01*
X0090159Y0081111D01*
X0090077Y0080973D01*
X0089992Y0080836D01*
X0089904Y0080702D01*
X0089812Y0080570D01*
X0089717Y0080440D01*
X0089619Y0080312D01*
X0089518Y0080187D01*
X0089414Y0080065D01*
X0089307Y0079945D01*
X0089197Y0079828D01*
X0089084Y0079713D01*
X0088968Y0079602D01*
X0088849Y0079493D01*
X0088728Y0079388D01*
X0088604Y0079285D01*
X0088478Y0079185D01*
X0088350Y0079089D01*
X0088219Y0078996D01*
X0088085Y0078906D01*
X0087950Y0078819D01*
X0087812Y0078736D01*
X0087673Y0078656D01*
X0087531Y0078580D01*
X0087388Y0078507D01*
X0087243Y0078438D01*
X0087096Y0078372D01*
X0086948Y0078310D01*
X0086798Y0078252D01*
X0086647Y0078197D01*
X0086494Y0078146D01*
X0086340Y0078099D01*
X0086185Y0078056D01*
X0086029Y0078017D01*
X0085873Y0077981D01*
X0085715Y0077950D01*
X0085557Y0077922D01*
X0085398Y0077898D01*
X0085238Y0077878D01*
X0085078Y0077862D01*
X0084918Y0077850D01*
X0084757Y0077842D01*
X0084596Y0077838D01*
X0084436Y0077838D01*
X0084275Y0077842D01*
X0084114Y0077850D01*
X0083954Y0077862D01*
X0083794Y0077878D01*
X0083634Y0077898D01*
X0083475Y0077922D01*
X0083317Y0077950D01*
X0083159Y0077981D01*
X0083003Y0078017D01*
X0082847Y0078056D01*
X0082692Y0078099D01*
X0082538Y0078146D01*
X0082385Y0078197D01*
X0082234Y0078252D01*
X0082084Y0078310D01*
X0081936Y0078372D01*
X0081789Y0078438D01*
X0081644Y0078507D01*
X0081501Y0078580D01*
X0081359Y0078656D01*
X0081220Y0078736D01*
X0081082Y0078819D01*
X0080947Y0078906D01*
X0080813Y0078996D01*
X0080682Y0079089D01*
X0080554Y0079185D01*
X0080428Y0079285D01*
X0080304Y0079388D01*
X0080183Y0079493D01*
X0080064Y0079602D01*
X0079948Y0079713D01*
X0079835Y0079828D01*
X0079725Y0079945D01*
X0079618Y0080065D01*
X0079514Y0080187D01*
X0079413Y0080312D01*
X0079315Y0080440D01*
X0079220Y0080570D01*
X0079128Y0080702D01*
X0079040Y0080836D01*
X0078955Y0080973D01*
X0078873Y0081111D01*
X0078795Y0081252D01*
X0078721Y0081394D01*
X0078650Y0081538D01*
X0078582Y0081684D01*
X0078519Y0081832D01*
X0078458Y0081981D01*
X0078402Y0082132D01*
X0078349Y0082284D01*
X0078300Y0082437D01*
X0078255Y0082591D01*
X0078214Y0082746D01*
X0078176Y0082903D01*
X0078143Y0083060D01*
X0078113Y0083218D01*
X0078087Y0083377D01*
X0078066Y0083536D01*
X0078048Y0083696D01*
X0078034Y0083856D01*
X0078024Y0084017D01*
X0078018Y0084177D01*
X0078016Y0084338D01*
M02*
