%
M48
M72
T01C0.02756
T02C0.03200
T03C0.03543
T04C0.03937
T05C0.04000
T06C0.05118
T07C0.13000
%
T01
X169516Y93338
X149516Y88338
X149516Y98338
X149516Y108338
X149516Y118338
X169516Y113338
X174516Y153338
X174516Y163338
X159516Y188338
X149516Y188338
X129516Y188338
X119516Y188338
T02
X224516Y38338
X224516Y48338
X224516Y58338
X224516Y68338
X224516Y78338
X224516Y88338
X224516Y98338
X224516Y108338
X224516Y118338
X224516Y128338
X224516Y138338
X224516Y148338
X224516Y158338
X224516Y168338
X194516Y168338
X194516Y158338
X194516Y148338
X194516Y138338
X194516Y128338
X194516Y118338
X194516Y108338
X194516Y98338
X194516Y88338
X194516Y78338
X194516Y68338
X194516Y58338
X194516Y48338
X194516Y38338
X119516Y78338
X119516Y88338
T03
X129516Y103338
X114516Y103338
X114516Y143338
X129516Y143338
T04
X114516Y163338
X154516Y163338
T05
X244516Y18338
X244516Y28338
X244516Y38338
X244516Y48338
X244516Y58338
X244516Y68338
X244516Y78338
X244516Y88338
X244516Y98338
X244516Y108338
X244516Y118338
X244516Y128338
X244516Y138338
X244516Y148338
X244516Y158338
X244516Y168338
X249516Y183338
X239516Y183338
X229516Y183338
X219516Y183338
X209516Y183338
X199516Y183338
X189516Y183338
X179516Y183338
X94516Y143338
X84516Y143338
X74516Y143338
X116716Y62238
X116716Y44438
X104516Y28338
X94516Y28338
X84516Y28338
X74516Y28338
X74516Y18338
X84516Y18338
X94516Y18338
X104516Y18338
X142316Y44438
X159516Y43338
X169516Y43338
X169516Y33338
X159516Y33338
X159516Y53338
X169516Y53338
X142316Y62238
T06
X91642Y164441
X80618Y183338
X103453Y183338
T07
X84516Y84338
M30
