G75*
%MOIN*%
%OFA0B0*%
%FSLAX25Y25*%
%IPPOS*%
%LPD*%
%AMOC8*
5,1,8,0,0,1.08239X$1,22.5*
%
%ADD10C,0.01600*%
%ADD11C,0.08077*%
%ADD12OC8,0.07800*%
%ADD13C,0.07800*%
%ADD14C,0.05600*%
%ADD15C,0.06900*%
%ADD16C,0.06400*%
%ADD17C,0.00000*%
%ADD18C,0.13400*%
%ADD19R,0.06900X0.06900*%
%ADD20C,0.08200*%
%ADD21R,0.06400X0.06400*%
%ADD22OC8,0.06400*%
D10*
X0063516Y0008338D02*
X0259516Y0008338D01*
X0259516Y0203338D01*
X0063516Y0203338D01*
X0063516Y0008338D01*
D11*
X0091642Y0164441D03*
X0080618Y0183338D03*
X0103453Y0183338D03*
D12*
X0159516Y0053338D03*
X0169516Y0053338D03*
X0169516Y0043338D03*
X0159516Y0043338D03*
X0159516Y0033338D03*
X0169516Y0033338D03*
D13*
X0119516Y0078338D03*
X0119516Y0088338D03*
X0114516Y0103338D03*
X0129516Y0103338D03*
X0129516Y0143338D03*
X0114516Y0143338D03*
X0179516Y0183338D03*
X0189516Y0183338D03*
X0199516Y0183338D03*
X0209516Y0183338D03*
X0219516Y0183338D03*
X0229516Y0183338D03*
X0239516Y0183338D03*
X0249516Y0183338D03*
X0244516Y0168338D03*
X0244516Y0158338D03*
X0244516Y0148338D03*
X0244516Y0138338D03*
X0244516Y0128338D03*
X0244516Y0118338D03*
X0244516Y0108338D03*
X0244516Y0098338D03*
X0244516Y0088338D03*
X0244516Y0078338D03*
X0244516Y0068338D03*
X0244516Y0058338D03*
X0244516Y0048338D03*
X0244516Y0038338D03*
X0244516Y0028338D03*
X0244516Y0018338D03*
D14*
X0227116Y0038338D02*
X0221916Y0038338D01*
X0221916Y0048338D02*
X0227116Y0048338D01*
X0227116Y0058338D02*
X0221916Y0058338D01*
X0221916Y0068338D02*
X0227116Y0068338D01*
X0227116Y0078338D02*
X0221916Y0078338D01*
X0221916Y0088338D02*
X0227116Y0088338D01*
X0227116Y0098338D02*
X0221916Y0098338D01*
X0221916Y0108338D02*
X0227116Y0108338D01*
X0227116Y0118338D02*
X0221916Y0118338D01*
X0221916Y0128338D02*
X0227116Y0128338D01*
X0227116Y0138338D02*
X0221916Y0138338D01*
X0221916Y0148338D02*
X0227116Y0148338D01*
X0227116Y0158338D02*
X0221916Y0158338D01*
X0221916Y0168338D02*
X0227116Y0168338D01*
X0197116Y0168338D02*
X0191916Y0168338D01*
X0191916Y0158338D02*
X0197116Y0158338D01*
X0197116Y0148338D02*
X0191916Y0148338D01*
X0191916Y0138338D02*
X0197116Y0138338D01*
X0197116Y0128338D02*
X0191916Y0128338D01*
X0191916Y0118338D02*
X0197116Y0118338D01*
X0197116Y0108338D02*
X0191916Y0108338D01*
X0191916Y0098338D02*
X0197116Y0098338D01*
X0197116Y0088338D02*
X0191916Y0088338D01*
X0191916Y0078338D02*
X0197116Y0078338D01*
X0197116Y0068338D02*
X0191916Y0068338D01*
X0191916Y0058338D02*
X0197116Y0058338D01*
X0197116Y0048338D02*
X0191916Y0048338D01*
X0191916Y0038338D02*
X0197116Y0038338D01*
D15*
X0149516Y0088338D03*
X0149516Y0098338D03*
X0149516Y0108338D03*
X0149516Y0118338D03*
X0169516Y0113338D03*
X0169516Y0093338D03*
X0174516Y0163338D03*
X0149516Y0188338D03*
X0119516Y0188338D03*
D16*
X0094516Y0146338D02*
X0094516Y0140338D01*
X0084516Y0140338D02*
X0084516Y0146338D01*
X0074516Y0146338D02*
X0074516Y0140338D01*
X0113716Y0062238D02*
X0119716Y0062238D01*
X0139316Y0062238D02*
X0145316Y0062238D01*
X0145316Y0044438D02*
X0139316Y0044438D01*
X0119716Y0044438D02*
X0113716Y0044438D01*
D17*
X0078016Y0084338D02*
X0078018Y0084499D01*
X0078024Y0084659D01*
X0078034Y0084820D01*
X0078048Y0084980D01*
X0078066Y0085140D01*
X0078087Y0085299D01*
X0078113Y0085458D01*
X0078143Y0085616D01*
X0078176Y0085773D01*
X0078214Y0085930D01*
X0078255Y0086085D01*
X0078300Y0086239D01*
X0078349Y0086392D01*
X0078402Y0086544D01*
X0078458Y0086695D01*
X0078519Y0086844D01*
X0078582Y0086992D01*
X0078650Y0087138D01*
X0078721Y0087282D01*
X0078795Y0087424D01*
X0078873Y0087565D01*
X0078955Y0087703D01*
X0079040Y0087840D01*
X0079128Y0087974D01*
X0079220Y0088106D01*
X0079315Y0088236D01*
X0079413Y0088364D01*
X0079514Y0088489D01*
X0079618Y0088611D01*
X0079725Y0088731D01*
X0079835Y0088848D01*
X0079948Y0088963D01*
X0080064Y0089074D01*
X0080183Y0089183D01*
X0080304Y0089288D01*
X0080428Y0089391D01*
X0080554Y0089491D01*
X0080682Y0089587D01*
X0080813Y0089680D01*
X0080947Y0089770D01*
X0081082Y0089857D01*
X0081220Y0089940D01*
X0081359Y0090020D01*
X0081501Y0090096D01*
X0081644Y0090169D01*
X0081789Y0090238D01*
X0081936Y0090304D01*
X0082084Y0090366D01*
X0082234Y0090424D01*
X0082385Y0090479D01*
X0082538Y0090530D01*
X0082692Y0090577D01*
X0082847Y0090620D01*
X0083003Y0090659D01*
X0083159Y0090695D01*
X0083317Y0090726D01*
X0083475Y0090754D01*
X0083634Y0090778D01*
X0083794Y0090798D01*
X0083954Y0090814D01*
X0084114Y0090826D01*
X0084275Y0090834D01*
X0084436Y0090838D01*
X0084596Y0090838D01*
X0084757Y0090834D01*
X0084918Y0090826D01*
X0085078Y0090814D01*
X0085238Y0090798D01*
X0085398Y0090778D01*
X0085557Y0090754D01*
X0085715Y0090726D01*
X0085873Y0090695D01*
X0086029Y0090659D01*
X0086185Y0090620D01*
X0086340Y0090577D01*
X0086494Y0090530D01*
X0086647Y0090479D01*
X0086798Y0090424D01*
X0086948Y0090366D01*
X0087096Y0090304D01*
X0087243Y0090238D01*
X0087388Y0090169D01*
X0087531Y0090096D01*
X0087673Y0090020D01*
X0087812Y0089940D01*
X0087950Y0089857D01*
X0088085Y0089770D01*
X0088219Y0089680D01*
X0088350Y0089587D01*
X0088478Y0089491D01*
X0088604Y0089391D01*
X0088728Y0089288D01*
X0088849Y0089183D01*
X0088968Y0089074D01*
X0089084Y0088963D01*
X0089197Y0088848D01*
X0089307Y0088731D01*
X0089414Y0088611D01*
X0089518Y0088489D01*
X0089619Y0088364D01*
X0089717Y0088236D01*
X0089812Y0088106D01*
X0089904Y0087974D01*
X0089992Y0087840D01*
X0090077Y0087703D01*
X0090159Y0087565D01*
X0090237Y0087424D01*
X0090311Y0087282D01*
X0090382Y0087138D01*
X0090450Y0086992D01*
X0090513Y0086844D01*
X0090574Y0086695D01*
X0090630Y0086544D01*
X0090683Y0086392D01*
X0090732Y0086239D01*
X0090777Y0086085D01*
X0090818Y0085930D01*
X0090856Y0085773D01*
X0090889Y0085616D01*
X0090919Y0085458D01*
X0090945Y0085299D01*
X0090966Y0085140D01*
X0090984Y0084980D01*
X0090998Y0084820D01*
X0091008Y0084659D01*
X0091014Y0084499D01*
X0091016Y0084338D01*
X0091014Y0084177D01*
X0091008Y0084017D01*
X0090998Y0083856D01*
X0090984Y0083696D01*
X0090966Y0083536D01*
X0090945Y0083377D01*
X0090919Y0083218D01*
X0090889Y0083060D01*
X0090856Y0082903D01*
X0090818Y0082746D01*
X0090777Y0082591D01*
X0090732Y0082437D01*
X0090683Y0082284D01*
X0090630Y0082132D01*
X0090574Y0081981D01*
X0090513Y0081832D01*
X0090450Y0081684D01*
X0090382Y0081538D01*
X0090311Y0081394D01*
X0090237Y0081252D01*
X0090159Y0081111D01*
X0090077Y0080973D01*
X0089992Y0080836D01*
X0089904Y0080702D01*
X0089812Y0080570D01*
X0089717Y0080440D01*
X0089619Y0080312D01*
X0089518Y0080187D01*
X0089414Y0080065D01*
X0089307Y0079945D01*
X0089197Y0079828D01*
X0089084Y0079713D01*
X0088968Y0079602D01*
X0088849Y0079493D01*
X0088728Y0079388D01*
X0088604Y0079285D01*
X0088478Y0079185D01*
X0088350Y0079089D01*
X0088219Y0078996D01*
X0088085Y0078906D01*
X0087950Y0078819D01*
X0087812Y0078736D01*
X0087673Y0078656D01*
X0087531Y0078580D01*
X0087388Y0078507D01*
X0087243Y0078438D01*
X0087096Y0078372D01*
X0086948Y0078310D01*
X0086798Y0078252D01*
X0086647Y0078197D01*
X0086494Y0078146D01*
X0086340Y0078099D01*
X0086185Y0078056D01*
X0086029Y0078017D01*
X0085873Y0077981D01*
X0085715Y0077950D01*
X0085557Y0077922D01*
X0085398Y0077898D01*
X0085238Y0077878D01*
X0085078Y0077862D01*
X0084918Y0077850D01*
X0084757Y0077842D01*
X0084596Y0077838D01*
X0084436Y0077838D01*
X0084275Y0077842D01*
X0084114Y0077850D01*
X0083954Y0077862D01*
X0083794Y0077878D01*
X0083634Y0077898D01*
X0083475Y0077922D01*
X0083317Y0077950D01*
X0083159Y0077981D01*
X0083003Y0078017D01*
X0082847Y0078056D01*
X0082692Y0078099D01*
X0082538Y0078146D01*
X0082385Y0078197D01*
X0082234Y0078252D01*
X0082084Y0078310D01*
X0081936Y0078372D01*
X0081789Y0078438D01*
X0081644Y0078507D01*
X0081501Y0078580D01*
X0081359Y0078656D01*
X0081220Y0078736D01*
X0081082Y0078819D01*
X0080947Y0078906D01*
X0080813Y0078996D01*
X0080682Y0079089D01*
X0080554Y0079185D01*
X0080428Y0079285D01*
X0080304Y0079388D01*
X0080183Y0079493D01*
X0080064Y0079602D01*
X0079948Y0079713D01*
X0079835Y0079828D01*
X0079725Y0079945D01*
X0079618Y0080065D01*
X0079514Y0080187D01*
X0079413Y0080312D01*
X0079315Y0080440D01*
X0079220Y0080570D01*
X0079128Y0080702D01*
X0079040Y0080836D01*
X0078955Y0080973D01*
X0078873Y0081111D01*
X0078795Y0081252D01*
X0078721Y0081394D01*
X0078650Y0081538D01*
X0078582Y0081684D01*
X0078519Y0081832D01*
X0078458Y0081981D01*
X0078402Y0082132D01*
X0078349Y0082284D01*
X0078300Y0082437D01*
X0078255Y0082591D01*
X0078214Y0082746D01*
X0078176Y0082903D01*
X0078143Y0083060D01*
X0078113Y0083218D01*
X0078087Y0083377D01*
X0078066Y0083536D01*
X0078048Y0083696D01*
X0078034Y0083856D01*
X0078024Y0084017D01*
X0078018Y0084177D01*
X0078016Y0084338D01*
D18*
X0084516Y0084338D03*
D19*
X0174516Y0153338D03*
X0159516Y0188338D03*
X0129516Y0188338D03*
D20*
X0114516Y0163338D03*
X0154516Y0163338D03*
D21*
X0104516Y0028338D03*
D22*
X0094516Y0028338D03*
X0084516Y0028338D03*
X0074516Y0028338D03*
X0074516Y0018338D03*
X0084516Y0018338D03*
X0094516Y0018338D03*
X0104516Y0018338D03*
M02*
