G75*
%MOIN*%
%OFA0B0*%
%FSLAX25Y25*%
%IPPOS*%
%LPD*%
%AMOC8*
5,1,8,0,0,1.08239X$1,22.5*
%
%ADD10C,0.01600*%
%ADD11C,0.00200*%
%ADD12C,0.00300*%
%ADD13C,0.00800*%
%ADD14C,0.00100*%
%ADD15C,0.00500*%
%ADD16C,0.00600*%
%ADD17C,0.00700*%
%ADD18C,0.00400*%
%ADD19R,0.05000X0.03500*%
%ADD20C,0.00000*%
%ADD21C,0.01000*%
%ADD22C,0.00591*%
D10*
X0063516Y0008338D02*
X0259516Y0008338D01*
X0259516Y0203338D01*
X0063516Y0203338D01*
X0063516Y0008338D01*
D11*
X0066516Y0098338D02*
X0102516Y0098338D01*
X0102516Y0130838D01*
X0066516Y0130838D01*
X0066516Y0098338D01*
X0123116Y0169938D02*
X0124217Y0169938D01*
X0124584Y0170305D01*
X0124584Y0171773D01*
X0124217Y0172140D01*
X0123116Y0172140D01*
X0123116Y0169938D01*
X0125326Y0169938D02*
X0126794Y0169938D01*
X0126060Y0169938D02*
X0126060Y0172140D01*
X0125326Y0171406D01*
X0199614Y0112077D02*
X0200081Y0112544D01*
X0201015Y0112544D01*
X0201482Y0112077D01*
X0201482Y0110676D01*
X0201482Y0109782D02*
X0201949Y0109782D01*
X0202416Y0109315D01*
X0202416Y0108380D01*
X0201949Y0107913D01*
X0201482Y0107913D01*
X0201015Y0108380D01*
X0201015Y0109315D01*
X0201482Y0109782D01*
X0201015Y0109315D02*
X0200548Y0109782D01*
X0200081Y0109782D01*
X0199614Y0109315D01*
X0199614Y0108380D01*
X0200081Y0107913D01*
X0200548Y0107913D01*
X0201015Y0108380D01*
X0200548Y0107019D02*
X0200081Y0107019D01*
X0199614Y0106552D01*
X0199614Y0105618D01*
X0200081Y0105151D01*
X0200081Y0104257D02*
X0200548Y0104257D01*
X0201015Y0103790D01*
X0201482Y0104257D01*
X0201949Y0104257D01*
X0202416Y0103790D01*
X0202416Y0102856D01*
X0201949Y0102389D01*
X0202416Y0101495D02*
X0200548Y0101495D01*
X0199614Y0100560D01*
X0200548Y0099626D01*
X0202416Y0099626D01*
X0201949Y0098732D02*
X0201015Y0098732D01*
X0201015Y0097798D01*
X0201949Y0096864D02*
X0202416Y0097331D01*
X0202416Y0098265D01*
X0201949Y0098732D01*
X0201015Y0099626D02*
X0201015Y0101495D01*
X0200081Y0102389D02*
X0199614Y0102856D01*
X0199614Y0103790D01*
X0200081Y0104257D01*
X0201015Y0103790D02*
X0201015Y0103323D01*
X0202416Y0105151D02*
X0200548Y0107019D01*
X0202416Y0107019D02*
X0202416Y0105151D01*
X0202416Y0110676D02*
X0199614Y0110676D01*
X0199614Y0112077D01*
X0200081Y0098732D02*
X0199614Y0098265D01*
X0199614Y0097331D01*
X0200081Y0096864D01*
X0201949Y0096864D01*
X0202416Y0095970D02*
X0202416Y0094102D01*
X0199614Y0094102D01*
X0199614Y0095970D01*
X0201015Y0095036D02*
X0201015Y0094102D01*
X0199614Y0093208D02*
X0202416Y0093208D01*
X0202416Y0091339D02*
X0199614Y0091339D01*
X0200548Y0092273D01*
X0199614Y0093208D01*
X0199614Y0090445D02*
X0199614Y0088577D01*
X0199614Y0089511D02*
X0202416Y0089511D01*
X0202416Y0087683D02*
X0200548Y0087683D01*
X0199614Y0086749D01*
X0200548Y0085815D01*
X0202416Y0085815D01*
X0201015Y0085815D02*
X0201015Y0087683D01*
X0209614Y0159018D02*
X0211449Y0159018D01*
X0211816Y0159385D01*
X0211816Y0160119D01*
X0211449Y0160486D01*
X0209614Y0160486D01*
X0210348Y0161228D02*
X0209614Y0161962D01*
X0211816Y0161962D01*
X0211816Y0161228D02*
X0211816Y0162696D01*
D12*
X0176867Y0177191D02*
X0174399Y0177191D01*
X0174399Y0173488D01*
X0173184Y0173488D02*
X0173184Y0175957D01*
X0174399Y0175340D02*
X0175633Y0175340D01*
X0173184Y0173488D02*
X0171333Y0173488D01*
X0170715Y0174105D01*
X0170715Y0175957D01*
X0169501Y0176574D02*
X0167032Y0174105D01*
X0167649Y0173488D01*
X0168884Y0173488D01*
X0169501Y0174105D01*
X0169501Y0176574D01*
X0168884Y0177191D01*
X0167649Y0177191D01*
X0167032Y0176574D01*
X0167032Y0174105D01*
X0165818Y0174105D02*
X0165201Y0173488D01*
X0163966Y0173488D01*
X0163349Y0174105D01*
X0165818Y0176574D01*
X0165818Y0174105D01*
X0163349Y0174105D02*
X0163349Y0176574D01*
X0163966Y0177191D01*
X0165201Y0177191D01*
X0165818Y0176574D01*
X0162135Y0173488D02*
X0159666Y0173488D01*
X0160900Y0173488D02*
X0160900Y0177191D01*
X0159666Y0175957D01*
X0143184Y0177191D02*
X0140715Y0177191D01*
X0140715Y0173488D01*
X0139501Y0173488D02*
X0139501Y0175957D01*
X0140715Y0175340D02*
X0141950Y0175340D01*
X0139501Y0173488D02*
X0137649Y0173488D01*
X0137032Y0174105D01*
X0137032Y0175957D01*
X0135818Y0176574D02*
X0135818Y0174105D01*
X0135201Y0173488D01*
X0133966Y0173488D01*
X0133349Y0174105D01*
X0135818Y0176574D01*
X0135201Y0177191D01*
X0133966Y0177191D01*
X0133349Y0176574D01*
X0133349Y0174105D01*
X0132135Y0173488D02*
X0129666Y0173488D01*
X0130900Y0173488D02*
X0130900Y0177191D01*
X0129666Y0175957D01*
X0160663Y0153848D02*
X0160663Y0151379D01*
X0164366Y0151379D01*
X0164366Y0150165D02*
X0161897Y0150165D01*
X0162514Y0151379D02*
X0162514Y0152614D01*
X0164366Y0150165D02*
X0164366Y0148313D01*
X0163749Y0147696D01*
X0161897Y0147696D01*
X0160663Y0145247D02*
X0164366Y0145247D01*
X0164366Y0144013D02*
X0164366Y0146482D01*
X0161897Y0144013D02*
X0160663Y0145247D01*
X0163749Y0142789D02*
X0164366Y0142789D01*
X0164366Y0142171D01*
X0163749Y0142171D01*
X0163749Y0142789D01*
X0163749Y0140957D02*
X0161280Y0140957D01*
X0163749Y0138488D01*
X0164366Y0139105D01*
X0164366Y0140340D01*
X0163749Y0140957D01*
X0163749Y0138488D02*
X0161280Y0138488D01*
X0160663Y0139105D01*
X0160663Y0140340D01*
X0161280Y0140957D01*
X0140663Y0122006D02*
X0140663Y0119538D01*
X0144366Y0119538D01*
X0143749Y0118323D02*
X0144366Y0117706D01*
X0144366Y0115854D01*
X0144366Y0114640D02*
X0144366Y0112171D01*
X0141897Y0114640D01*
X0141280Y0114640D01*
X0140663Y0114023D01*
X0140663Y0112789D01*
X0141280Y0112171D01*
X0141280Y0110957D02*
X0140663Y0110340D01*
X0140663Y0109105D01*
X0141280Y0108488D01*
X0141280Y0110957D02*
X0141897Y0110957D01*
X0144366Y0108488D01*
X0144366Y0110957D01*
X0145600Y0115854D02*
X0141897Y0115854D01*
X0141897Y0117706D01*
X0142514Y0118323D01*
X0143749Y0118323D01*
X0142514Y0119538D02*
X0142514Y0120772D01*
X0156897Y0105690D02*
X0159366Y0103221D01*
X0159366Y0105690D01*
X0156897Y0105690D02*
X0156897Y0103221D01*
X0157514Y0102006D02*
X0157514Y0099538D01*
X0155663Y0099538D02*
X0159366Y0099538D01*
X0159366Y0098323D02*
X0155663Y0098323D01*
X0156897Y0097089D01*
X0155663Y0095854D01*
X0159366Y0095854D01*
X0158749Y0094640D02*
X0158132Y0094640D01*
X0157514Y0094023D01*
X0157514Y0092171D01*
X0158749Y0092171D01*
X0159366Y0092789D01*
X0159366Y0094023D01*
X0158749Y0094640D01*
X0156280Y0093406D02*
X0157514Y0092171D01*
X0156280Y0093406D02*
X0155663Y0094640D01*
X0159366Y0090957D02*
X0159366Y0088488D01*
X0159366Y0089723D02*
X0155663Y0089723D01*
X0156897Y0088488D01*
X0144366Y0088488D02*
X0141897Y0090957D01*
X0141280Y0090957D01*
X0140663Y0090340D01*
X0140663Y0089105D01*
X0141280Y0088488D01*
X0141280Y0092171D02*
X0140663Y0092789D01*
X0140663Y0094023D01*
X0141280Y0094640D01*
X0141897Y0094640D01*
X0144366Y0092171D01*
X0144366Y0094640D01*
X0144366Y0095854D02*
X0144366Y0097706D01*
X0143749Y0098323D01*
X0142514Y0098323D01*
X0141897Y0097706D01*
X0141897Y0095854D01*
X0145600Y0095854D01*
X0144366Y0099538D02*
X0140663Y0099538D01*
X0140663Y0102006D01*
X0142514Y0100772D02*
X0142514Y0099538D01*
X0144366Y0090957D02*
X0144366Y0088488D01*
X0155663Y0102006D02*
X0159366Y0102006D01*
X0220280Y0014774D02*
X0221514Y0014774D01*
X0222132Y0014157D01*
X0222132Y0012305D01*
X0222132Y0011091D02*
X0222749Y0011091D01*
X0223366Y0010473D01*
X0223366Y0009239D01*
X0222749Y0008622D01*
X0222749Y0007408D02*
X0223366Y0006790D01*
X0223366Y0005556D01*
X0222749Y0004939D01*
X0220280Y0004939D01*
X0219663Y0005556D01*
X0219663Y0006790D01*
X0220280Y0007408D01*
X0220280Y0008622D02*
X0220897Y0008622D01*
X0221514Y0009239D01*
X0221514Y0010473D01*
X0222132Y0011091D01*
X0223366Y0012305D02*
X0219663Y0012305D01*
X0219663Y0014157D01*
X0220280Y0014774D01*
X0220280Y0011091D02*
X0219663Y0010473D01*
X0219663Y0009239D01*
X0220280Y0008622D01*
X0219663Y0003718D02*
X0219663Y0002483D01*
X0219663Y0003101D02*
X0223366Y0003101D01*
X0223366Y0003718D02*
X0223366Y0002483D01*
D13*
X0221516Y0033338D02*
X0197516Y0033338D01*
X0197516Y0034338D01*
X0175835Y0035838D02*
X0175835Y0030838D01*
X0174516Y0030838D02*
X0174516Y0035838D01*
X0172016Y0038338D01*
X0157016Y0038338D01*
X0154516Y0040838D01*
X0154516Y0045838D01*
X0157016Y0048338D01*
X0172016Y0048338D01*
X0174516Y0050838D01*
X0174516Y0055838D01*
X0172016Y0058338D01*
X0157016Y0058338D01*
X0154516Y0055838D01*
X0154516Y0050838D01*
X0157016Y0048338D01*
X0157016Y0038338D02*
X0154516Y0035838D01*
X0154516Y0030838D01*
X0157016Y0028338D01*
X0172016Y0028338D01*
X0174516Y0030838D01*
X0172016Y0038338D02*
X0174516Y0040838D01*
X0174516Y0045838D01*
X0172016Y0048338D01*
X0141516Y0049338D02*
X0141516Y0057267D01*
X0138016Y0065338D02*
X0121016Y0065338D01*
X0117516Y0057385D02*
X0117516Y0049338D01*
X0121016Y0041338D02*
X0138016Y0041338D01*
X0122516Y0053338D02*
X0122518Y0053510D01*
X0122524Y0053681D01*
X0122535Y0053853D01*
X0122550Y0054024D01*
X0122569Y0054195D01*
X0122592Y0054365D01*
X0122619Y0054535D01*
X0122651Y0054704D01*
X0122686Y0054872D01*
X0122726Y0055039D01*
X0122770Y0055205D01*
X0122817Y0055370D01*
X0122869Y0055534D01*
X0122925Y0055696D01*
X0122985Y0055857D01*
X0123049Y0056017D01*
X0123117Y0056175D01*
X0123188Y0056331D01*
X0123263Y0056485D01*
X0123343Y0056638D01*
X0123425Y0056788D01*
X0123512Y0056937D01*
X0123602Y0057083D01*
X0123696Y0057227D01*
X0123793Y0057369D01*
X0123894Y0057508D01*
X0123998Y0057645D01*
X0124105Y0057779D01*
X0124216Y0057910D01*
X0124329Y0058039D01*
X0124446Y0058165D01*
X0124566Y0058288D01*
X0124689Y0058408D01*
X0124815Y0058525D01*
X0124944Y0058638D01*
X0125075Y0058749D01*
X0125209Y0058856D01*
X0125346Y0058960D01*
X0125485Y0059061D01*
X0125627Y0059158D01*
X0125771Y0059252D01*
X0125917Y0059342D01*
X0126066Y0059429D01*
X0126216Y0059511D01*
X0126369Y0059591D01*
X0126523Y0059666D01*
X0126679Y0059737D01*
X0126837Y0059805D01*
X0126997Y0059869D01*
X0127158Y0059929D01*
X0127320Y0059985D01*
X0127484Y0060037D01*
X0127649Y0060084D01*
X0127815Y0060128D01*
X0127982Y0060168D01*
X0128150Y0060203D01*
X0128319Y0060235D01*
X0128489Y0060262D01*
X0128659Y0060285D01*
X0128830Y0060304D01*
X0129001Y0060319D01*
X0129173Y0060330D01*
X0129344Y0060336D01*
X0129516Y0060338D01*
X0129688Y0060336D01*
X0129859Y0060330D01*
X0130031Y0060319D01*
X0130202Y0060304D01*
X0130373Y0060285D01*
X0130543Y0060262D01*
X0130713Y0060235D01*
X0130882Y0060203D01*
X0131050Y0060168D01*
X0131217Y0060128D01*
X0131383Y0060084D01*
X0131548Y0060037D01*
X0131712Y0059985D01*
X0131874Y0059929D01*
X0132035Y0059869D01*
X0132195Y0059805D01*
X0132353Y0059737D01*
X0132509Y0059666D01*
X0132663Y0059591D01*
X0132816Y0059511D01*
X0132966Y0059429D01*
X0133115Y0059342D01*
X0133261Y0059252D01*
X0133405Y0059158D01*
X0133547Y0059061D01*
X0133686Y0058960D01*
X0133823Y0058856D01*
X0133957Y0058749D01*
X0134088Y0058638D01*
X0134217Y0058525D01*
X0134343Y0058408D01*
X0134466Y0058288D01*
X0134586Y0058165D01*
X0134703Y0058039D01*
X0134816Y0057910D01*
X0134927Y0057779D01*
X0135034Y0057645D01*
X0135138Y0057508D01*
X0135239Y0057369D01*
X0135336Y0057227D01*
X0135430Y0057083D01*
X0135520Y0056937D01*
X0135607Y0056788D01*
X0135689Y0056638D01*
X0135769Y0056485D01*
X0135844Y0056331D01*
X0135915Y0056175D01*
X0135983Y0056017D01*
X0136047Y0055857D01*
X0136107Y0055696D01*
X0136163Y0055534D01*
X0136215Y0055370D01*
X0136262Y0055205D01*
X0136306Y0055039D01*
X0136346Y0054872D01*
X0136381Y0054704D01*
X0136413Y0054535D01*
X0136440Y0054365D01*
X0136463Y0054195D01*
X0136482Y0054024D01*
X0136497Y0053853D01*
X0136508Y0053681D01*
X0136514Y0053510D01*
X0136516Y0053338D01*
X0136514Y0053166D01*
X0136508Y0052995D01*
X0136497Y0052823D01*
X0136482Y0052652D01*
X0136463Y0052481D01*
X0136440Y0052311D01*
X0136413Y0052141D01*
X0136381Y0051972D01*
X0136346Y0051804D01*
X0136306Y0051637D01*
X0136262Y0051471D01*
X0136215Y0051306D01*
X0136163Y0051142D01*
X0136107Y0050980D01*
X0136047Y0050819D01*
X0135983Y0050659D01*
X0135915Y0050501D01*
X0135844Y0050345D01*
X0135769Y0050191D01*
X0135689Y0050038D01*
X0135607Y0049888D01*
X0135520Y0049739D01*
X0135430Y0049593D01*
X0135336Y0049449D01*
X0135239Y0049307D01*
X0135138Y0049168D01*
X0135034Y0049031D01*
X0134927Y0048897D01*
X0134816Y0048766D01*
X0134703Y0048637D01*
X0134586Y0048511D01*
X0134466Y0048388D01*
X0134343Y0048268D01*
X0134217Y0048151D01*
X0134088Y0048038D01*
X0133957Y0047927D01*
X0133823Y0047820D01*
X0133686Y0047716D01*
X0133547Y0047615D01*
X0133405Y0047518D01*
X0133261Y0047424D01*
X0133115Y0047334D01*
X0132966Y0047247D01*
X0132816Y0047165D01*
X0132663Y0047085D01*
X0132509Y0047010D01*
X0132353Y0046939D01*
X0132195Y0046871D01*
X0132035Y0046807D01*
X0131874Y0046747D01*
X0131712Y0046691D01*
X0131548Y0046639D01*
X0131383Y0046592D01*
X0131217Y0046548D01*
X0131050Y0046508D01*
X0130882Y0046473D01*
X0130713Y0046441D01*
X0130543Y0046414D01*
X0130373Y0046391D01*
X0130202Y0046372D01*
X0130031Y0046357D01*
X0129859Y0046346D01*
X0129688Y0046340D01*
X0129516Y0046338D01*
X0129344Y0046340D01*
X0129173Y0046346D01*
X0129001Y0046357D01*
X0128830Y0046372D01*
X0128659Y0046391D01*
X0128489Y0046414D01*
X0128319Y0046441D01*
X0128150Y0046473D01*
X0127982Y0046508D01*
X0127815Y0046548D01*
X0127649Y0046592D01*
X0127484Y0046639D01*
X0127320Y0046691D01*
X0127158Y0046747D01*
X0126997Y0046807D01*
X0126837Y0046871D01*
X0126679Y0046939D01*
X0126523Y0047010D01*
X0126369Y0047085D01*
X0126216Y0047165D01*
X0126066Y0047247D01*
X0125917Y0047334D01*
X0125771Y0047424D01*
X0125627Y0047518D01*
X0125485Y0047615D01*
X0125346Y0047716D01*
X0125209Y0047820D01*
X0125075Y0047927D01*
X0124944Y0048038D01*
X0124815Y0048151D01*
X0124689Y0048268D01*
X0124566Y0048388D01*
X0124446Y0048511D01*
X0124329Y0048637D01*
X0124216Y0048766D01*
X0124105Y0048897D01*
X0123998Y0049031D01*
X0123894Y0049168D01*
X0123793Y0049307D01*
X0123696Y0049449D01*
X0123602Y0049593D01*
X0123512Y0049739D01*
X0123425Y0049888D01*
X0123343Y0050038D01*
X0123263Y0050191D01*
X0123188Y0050345D01*
X0123117Y0050501D01*
X0123049Y0050659D01*
X0122985Y0050819D01*
X0122925Y0050980D01*
X0122869Y0051142D01*
X0122817Y0051306D01*
X0122770Y0051471D01*
X0122726Y0051637D01*
X0122686Y0051804D01*
X0122651Y0051972D01*
X0122619Y0052141D01*
X0122592Y0052311D01*
X0122569Y0052481D01*
X0122550Y0052652D01*
X0122535Y0052823D01*
X0122524Y0052995D01*
X0122518Y0053166D01*
X0122516Y0053338D01*
X0160516Y0089838D02*
X0160516Y0116838D01*
X0160519Y0117057D01*
X0160527Y0117276D01*
X0160540Y0117495D01*
X0160559Y0117713D01*
X0160583Y0117931D01*
X0160612Y0118148D01*
X0160646Y0118365D01*
X0160686Y0118580D01*
X0160731Y0118795D01*
X0160782Y0119008D01*
X0160837Y0119220D01*
X0160898Y0119431D01*
X0160963Y0119640D01*
X0161034Y0119847D01*
X0161110Y0120053D01*
X0161191Y0120257D01*
X0161276Y0120459D01*
X0161367Y0120658D01*
X0161462Y0120855D01*
X0161563Y0121050D01*
X0161668Y0121243D01*
X0161777Y0121433D01*
X0161891Y0121620D01*
X0162010Y0121804D01*
X0162133Y0121985D01*
X0162261Y0122163D01*
X0162393Y0122339D01*
X0162529Y0122510D01*
X0162669Y0122679D01*
X0162813Y0122844D01*
X0162961Y0123005D01*
X0163113Y0123163D01*
X0163269Y0123317D01*
X0163429Y0123467D01*
X0163592Y0123614D01*
X0163759Y0123756D01*
X0163929Y0123894D01*
X0164103Y0124028D01*
X0164279Y0124158D01*
X0164459Y0124283D01*
X0164642Y0124404D01*
X0164828Y0124520D01*
X0165016Y0124632D01*
X0165207Y0124739D01*
X0165401Y0124842D01*
X0165597Y0124940D01*
X0165795Y0125033D01*
X0165996Y0125121D01*
X0166199Y0125204D01*
X0166404Y0125283D01*
X0166610Y0125356D01*
X0166818Y0125424D01*
X0167028Y0125487D01*
X0167240Y0125545D01*
X0167452Y0125598D01*
X0167666Y0125646D01*
X0167881Y0125688D01*
X0168097Y0125725D01*
X0168314Y0125757D01*
X0168532Y0125784D01*
X0168750Y0125805D01*
X0168968Y0125821D01*
X0169187Y0125832D01*
X0169406Y0125837D01*
X0169626Y0125837D01*
X0169845Y0125832D01*
X0170064Y0125821D01*
X0170282Y0125805D01*
X0170500Y0125784D01*
X0170718Y0125757D01*
X0170935Y0125725D01*
X0171151Y0125688D01*
X0171366Y0125646D01*
X0171580Y0125598D01*
X0171792Y0125545D01*
X0172004Y0125487D01*
X0172214Y0125424D01*
X0172422Y0125356D01*
X0172628Y0125283D01*
X0172833Y0125204D01*
X0173036Y0125121D01*
X0173237Y0125033D01*
X0173435Y0124940D01*
X0173631Y0124842D01*
X0173825Y0124739D01*
X0174016Y0124632D01*
X0174204Y0124520D01*
X0174390Y0124404D01*
X0174573Y0124283D01*
X0174753Y0124158D01*
X0174929Y0124028D01*
X0175103Y0123894D01*
X0175273Y0123756D01*
X0175440Y0123614D01*
X0175603Y0123467D01*
X0175763Y0123317D01*
X0175919Y0123163D01*
X0176071Y0123005D01*
X0176219Y0122844D01*
X0176363Y0122679D01*
X0176503Y0122510D01*
X0176639Y0122339D01*
X0176771Y0122163D01*
X0176899Y0121985D01*
X0177022Y0121804D01*
X0177141Y0121620D01*
X0177255Y0121433D01*
X0177364Y0121243D01*
X0177469Y0121050D01*
X0177570Y0120855D01*
X0177665Y0120658D01*
X0177756Y0120459D01*
X0177841Y0120257D01*
X0177922Y0120053D01*
X0177998Y0119847D01*
X0178069Y0119640D01*
X0178134Y0119431D01*
X0178195Y0119220D01*
X0178250Y0119008D01*
X0178301Y0118795D01*
X0178346Y0118580D01*
X0178386Y0118365D01*
X0178420Y0118148D01*
X0178449Y0117931D01*
X0178473Y0117713D01*
X0178492Y0117495D01*
X0178505Y0117276D01*
X0178513Y0117057D01*
X0178516Y0116838D01*
X0178516Y0089838D01*
X0178513Y0089619D01*
X0178505Y0089400D01*
X0178492Y0089181D01*
X0178473Y0088963D01*
X0178449Y0088745D01*
X0178420Y0088528D01*
X0178386Y0088311D01*
X0178346Y0088096D01*
X0178301Y0087881D01*
X0178250Y0087668D01*
X0178195Y0087456D01*
X0178134Y0087245D01*
X0178069Y0087036D01*
X0177998Y0086829D01*
X0177922Y0086623D01*
X0177841Y0086419D01*
X0177756Y0086217D01*
X0177665Y0086018D01*
X0177570Y0085821D01*
X0177469Y0085626D01*
X0177364Y0085433D01*
X0177255Y0085243D01*
X0177141Y0085056D01*
X0177022Y0084872D01*
X0176899Y0084691D01*
X0176771Y0084513D01*
X0176639Y0084337D01*
X0176503Y0084166D01*
X0176363Y0083997D01*
X0176219Y0083832D01*
X0176071Y0083671D01*
X0175919Y0083513D01*
X0175763Y0083359D01*
X0175603Y0083209D01*
X0175440Y0083062D01*
X0175273Y0082920D01*
X0175103Y0082782D01*
X0174929Y0082648D01*
X0174753Y0082518D01*
X0174573Y0082393D01*
X0174390Y0082272D01*
X0174204Y0082156D01*
X0174016Y0082044D01*
X0173825Y0081937D01*
X0173631Y0081834D01*
X0173435Y0081736D01*
X0173237Y0081643D01*
X0173036Y0081555D01*
X0172833Y0081472D01*
X0172628Y0081393D01*
X0172422Y0081320D01*
X0172214Y0081252D01*
X0172004Y0081189D01*
X0171792Y0081131D01*
X0171580Y0081078D01*
X0171366Y0081030D01*
X0171151Y0080988D01*
X0170935Y0080951D01*
X0170718Y0080919D01*
X0170500Y0080892D01*
X0170282Y0080871D01*
X0170064Y0080855D01*
X0169845Y0080844D01*
X0169626Y0080839D01*
X0169406Y0080839D01*
X0169187Y0080844D01*
X0168968Y0080855D01*
X0168750Y0080871D01*
X0168532Y0080892D01*
X0168314Y0080919D01*
X0168097Y0080951D01*
X0167881Y0080988D01*
X0167666Y0081030D01*
X0167452Y0081078D01*
X0167240Y0081131D01*
X0167028Y0081189D01*
X0166818Y0081252D01*
X0166610Y0081320D01*
X0166404Y0081393D01*
X0166199Y0081472D01*
X0165996Y0081555D01*
X0165795Y0081643D01*
X0165597Y0081736D01*
X0165401Y0081834D01*
X0165207Y0081937D01*
X0165016Y0082044D01*
X0164828Y0082156D01*
X0164642Y0082272D01*
X0164459Y0082393D01*
X0164279Y0082518D01*
X0164103Y0082648D01*
X0163929Y0082782D01*
X0163759Y0082920D01*
X0163592Y0083062D01*
X0163429Y0083209D01*
X0163269Y0083359D01*
X0163113Y0083513D01*
X0162961Y0083671D01*
X0162813Y0083832D01*
X0162669Y0083997D01*
X0162529Y0084166D01*
X0162393Y0084337D01*
X0162261Y0084513D01*
X0162133Y0084691D01*
X0162010Y0084872D01*
X0161891Y0085056D01*
X0161777Y0085243D01*
X0161668Y0085433D01*
X0161563Y0085626D01*
X0161462Y0085821D01*
X0161367Y0086018D01*
X0161276Y0086217D01*
X0161191Y0086419D01*
X0161110Y0086623D01*
X0161034Y0086829D01*
X0160963Y0087036D01*
X0160898Y0087245D01*
X0160837Y0087456D01*
X0160782Y0087668D01*
X0160731Y0087881D01*
X0160686Y0088096D01*
X0160646Y0088311D01*
X0160612Y0088528D01*
X0160583Y0088745D01*
X0160559Y0088963D01*
X0160540Y0089181D01*
X0160527Y0089400D01*
X0160519Y0089619D01*
X0160516Y0089838D01*
X0152016Y0093338D02*
X0147016Y0093338D01*
X0127016Y0093338D02*
X0112016Y0093338D01*
X0109792Y0110937D02*
X0109792Y0135740D01*
X0119240Y0135740D01*
X0119240Y0110937D01*
X0109792Y0110937D01*
X0124792Y0110937D02*
X0124792Y0135740D01*
X0134240Y0135740D01*
X0134240Y0110937D01*
X0124792Y0110937D01*
X0147016Y0113338D02*
X0152016Y0113338D01*
X0161721Y0158338D02*
X0161725Y0158652D01*
X0161736Y0158966D01*
X0161756Y0159279D01*
X0161783Y0159592D01*
X0161817Y0159904D01*
X0161859Y0160215D01*
X0161909Y0160525D01*
X0161967Y0160834D01*
X0162032Y0161141D01*
X0162104Y0161447D01*
X0162184Y0161751D01*
X0162272Y0162052D01*
X0162367Y0162352D01*
X0162469Y0162649D01*
X0162578Y0162943D01*
X0162695Y0163234D01*
X0162819Y0163523D01*
X0162949Y0163809D01*
X0163087Y0164091D01*
X0163232Y0164370D01*
X0163383Y0164645D01*
X0163541Y0164916D01*
X0163706Y0165183D01*
X0163877Y0165447D01*
X0164055Y0165705D01*
X0164239Y0165960D01*
X0164429Y0166210D01*
X0164625Y0166455D01*
X0164828Y0166695D01*
X0165036Y0166931D01*
X0165249Y0167161D01*
X0165469Y0167385D01*
X0165693Y0167605D01*
X0165923Y0167818D01*
X0166159Y0168026D01*
X0166399Y0168229D01*
X0166644Y0168425D01*
X0166894Y0168615D01*
X0167149Y0168799D01*
X0167407Y0168977D01*
X0167671Y0169148D01*
X0167938Y0169313D01*
X0168209Y0169471D01*
X0168484Y0169622D01*
X0168763Y0169767D01*
X0169045Y0169905D01*
X0169331Y0170035D01*
X0169620Y0170159D01*
X0169911Y0170276D01*
X0170205Y0170385D01*
X0170502Y0170487D01*
X0170802Y0170582D01*
X0171103Y0170670D01*
X0171407Y0170750D01*
X0171713Y0170822D01*
X0172020Y0170887D01*
X0172329Y0170945D01*
X0172639Y0170995D01*
X0172950Y0171037D01*
X0173262Y0171071D01*
X0173575Y0171098D01*
X0173888Y0171118D01*
X0174202Y0171129D01*
X0174516Y0171133D01*
X0174830Y0171129D01*
X0175144Y0171118D01*
X0175457Y0171098D01*
X0175770Y0171071D01*
X0176082Y0171037D01*
X0176393Y0170995D01*
X0176703Y0170945D01*
X0177012Y0170887D01*
X0177319Y0170822D01*
X0177625Y0170750D01*
X0177929Y0170670D01*
X0178230Y0170582D01*
X0178530Y0170487D01*
X0178827Y0170385D01*
X0179121Y0170276D01*
X0179412Y0170159D01*
X0179701Y0170035D01*
X0179987Y0169905D01*
X0180269Y0169767D01*
X0180548Y0169622D01*
X0180823Y0169471D01*
X0181094Y0169313D01*
X0181361Y0169148D01*
X0181625Y0168977D01*
X0181883Y0168799D01*
X0182138Y0168615D01*
X0182388Y0168425D01*
X0182633Y0168229D01*
X0182873Y0168026D01*
X0183109Y0167818D01*
X0183339Y0167605D01*
X0183563Y0167385D01*
X0183783Y0167161D01*
X0183996Y0166931D01*
X0184204Y0166695D01*
X0184407Y0166455D01*
X0184603Y0166210D01*
X0184793Y0165960D01*
X0184977Y0165705D01*
X0185155Y0165447D01*
X0185326Y0165183D01*
X0185491Y0164916D01*
X0185649Y0164645D01*
X0185800Y0164370D01*
X0185945Y0164091D01*
X0186083Y0163809D01*
X0186213Y0163523D01*
X0186337Y0163234D01*
X0186454Y0162943D01*
X0186563Y0162649D01*
X0186665Y0162352D01*
X0186760Y0162052D01*
X0186848Y0161751D01*
X0186928Y0161447D01*
X0187000Y0161141D01*
X0187065Y0160834D01*
X0187123Y0160525D01*
X0187173Y0160215D01*
X0187215Y0159904D01*
X0187249Y0159592D01*
X0187276Y0159279D01*
X0187296Y0158966D01*
X0187307Y0158652D01*
X0187311Y0158338D01*
X0187307Y0158024D01*
X0187296Y0157710D01*
X0187276Y0157397D01*
X0187249Y0157084D01*
X0187215Y0156772D01*
X0187173Y0156461D01*
X0187123Y0156151D01*
X0187065Y0155842D01*
X0187000Y0155535D01*
X0186928Y0155229D01*
X0186848Y0154925D01*
X0186760Y0154624D01*
X0186665Y0154324D01*
X0186563Y0154027D01*
X0186454Y0153733D01*
X0186337Y0153442D01*
X0186213Y0153153D01*
X0186083Y0152867D01*
X0185945Y0152585D01*
X0185800Y0152306D01*
X0185649Y0152031D01*
X0185491Y0151760D01*
X0185326Y0151493D01*
X0185155Y0151229D01*
X0184977Y0150971D01*
X0184793Y0150716D01*
X0184603Y0150466D01*
X0184407Y0150221D01*
X0184204Y0149981D01*
X0183996Y0149745D01*
X0183783Y0149515D01*
X0183563Y0149291D01*
X0183339Y0149071D01*
X0183109Y0148858D01*
X0182873Y0148650D01*
X0182633Y0148447D01*
X0182388Y0148251D01*
X0182138Y0148061D01*
X0181883Y0147877D01*
X0181625Y0147699D01*
X0181361Y0147528D01*
X0181094Y0147363D01*
X0180823Y0147205D01*
X0180548Y0147054D01*
X0180269Y0146909D01*
X0179987Y0146771D01*
X0179701Y0146641D01*
X0179412Y0146517D01*
X0179121Y0146400D01*
X0178827Y0146291D01*
X0178530Y0146189D01*
X0178230Y0146094D01*
X0177929Y0146006D01*
X0177625Y0145926D01*
X0177319Y0145854D01*
X0177012Y0145789D01*
X0176703Y0145731D01*
X0176393Y0145681D01*
X0176082Y0145639D01*
X0175770Y0145605D01*
X0175457Y0145578D01*
X0175144Y0145558D01*
X0174830Y0145547D01*
X0174516Y0145543D01*
X0174202Y0145547D01*
X0173888Y0145558D01*
X0173575Y0145578D01*
X0173262Y0145605D01*
X0172950Y0145639D01*
X0172639Y0145681D01*
X0172329Y0145731D01*
X0172020Y0145789D01*
X0171713Y0145854D01*
X0171407Y0145926D01*
X0171103Y0146006D01*
X0170802Y0146094D01*
X0170502Y0146189D01*
X0170205Y0146291D01*
X0169911Y0146400D01*
X0169620Y0146517D01*
X0169331Y0146641D01*
X0169045Y0146771D01*
X0168763Y0146909D01*
X0168484Y0147054D01*
X0168209Y0147205D01*
X0167938Y0147363D01*
X0167671Y0147528D01*
X0167407Y0147699D01*
X0167149Y0147877D01*
X0166894Y0148061D01*
X0166644Y0148251D01*
X0166399Y0148447D01*
X0166159Y0148650D01*
X0165923Y0148858D01*
X0165693Y0149071D01*
X0165469Y0149291D01*
X0165249Y0149515D01*
X0165036Y0149745D01*
X0164828Y0149981D01*
X0164625Y0150221D01*
X0164429Y0150466D01*
X0164239Y0150716D01*
X0164055Y0150971D01*
X0163877Y0151229D01*
X0163706Y0151493D01*
X0163541Y0151760D01*
X0163383Y0152031D01*
X0163232Y0152306D01*
X0163087Y0152585D01*
X0162949Y0152867D01*
X0162819Y0153153D01*
X0162695Y0153442D01*
X0162578Y0153733D01*
X0162469Y0154027D01*
X0162367Y0154324D01*
X0162272Y0154624D01*
X0162184Y0154925D01*
X0162104Y0155229D01*
X0162032Y0155535D01*
X0161967Y0155842D01*
X0161909Y0156151D01*
X0161859Y0156461D01*
X0161817Y0156772D01*
X0161783Y0157084D01*
X0161756Y0157397D01*
X0161736Y0157710D01*
X0161725Y0158024D01*
X0161721Y0158338D01*
X0179516Y0160838D02*
X0179516Y0165838D01*
X0197516Y0172338D02*
X0197516Y0173338D01*
X0204516Y0173338D01*
X0204518Y0173198D01*
X0204524Y0173058D01*
X0204534Y0172918D01*
X0204547Y0172778D01*
X0204565Y0172639D01*
X0204587Y0172500D01*
X0204612Y0172363D01*
X0204641Y0172225D01*
X0204674Y0172089D01*
X0204711Y0171954D01*
X0204752Y0171820D01*
X0204797Y0171687D01*
X0204845Y0171555D01*
X0204897Y0171425D01*
X0204952Y0171296D01*
X0205011Y0171169D01*
X0205074Y0171043D01*
X0205140Y0170919D01*
X0205209Y0170798D01*
X0205282Y0170678D01*
X0205359Y0170560D01*
X0205438Y0170445D01*
X0205521Y0170331D01*
X0205607Y0170221D01*
X0205696Y0170112D01*
X0205788Y0170006D01*
X0205883Y0169903D01*
X0205980Y0169802D01*
X0206081Y0169705D01*
X0206184Y0169610D01*
X0206290Y0169518D01*
X0206399Y0169429D01*
X0206509Y0169343D01*
X0206623Y0169260D01*
X0206738Y0169181D01*
X0206856Y0169104D01*
X0206976Y0169031D01*
X0207097Y0168962D01*
X0207221Y0168896D01*
X0207347Y0168833D01*
X0207474Y0168774D01*
X0207603Y0168719D01*
X0207733Y0168667D01*
X0207865Y0168619D01*
X0207998Y0168574D01*
X0208132Y0168533D01*
X0208267Y0168496D01*
X0208403Y0168463D01*
X0208541Y0168434D01*
X0208678Y0168409D01*
X0208817Y0168387D01*
X0208956Y0168369D01*
X0209096Y0168356D01*
X0209236Y0168346D01*
X0209376Y0168340D01*
X0209516Y0168338D01*
X0209656Y0168340D01*
X0209796Y0168346D01*
X0209936Y0168356D01*
X0210076Y0168369D01*
X0210215Y0168387D01*
X0210354Y0168409D01*
X0210491Y0168434D01*
X0210629Y0168463D01*
X0210765Y0168496D01*
X0210900Y0168533D01*
X0211034Y0168574D01*
X0211167Y0168619D01*
X0211299Y0168667D01*
X0211429Y0168719D01*
X0211558Y0168774D01*
X0211685Y0168833D01*
X0211811Y0168896D01*
X0211935Y0168962D01*
X0212056Y0169031D01*
X0212176Y0169104D01*
X0212294Y0169181D01*
X0212409Y0169260D01*
X0212523Y0169343D01*
X0212633Y0169429D01*
X0212742Y0169518D01*
X0212848Y0169610D01*
X0212951Y0169705D01*
X0213052Y0169802D01*
X0213149Y0169903D01*
X0213244Y0170006D01*
X0213336Y0170112D01*
X0213425Y0170221D01*
X0213511Y0170331D01*
X0213594Y0170445D01*
X0213673Y0170560D01*
X0213750Y0170678D01*
X0213823Y0170798D01*
X0213892Y0170919D01*
X0213958Y0171043D01*
X0214021Y0171169D01*
X0214080Y0171296D01*
X0214135Y0171425D01*
X0214187Y0171555D01*
X0214235Y0171687D01*
X0214280Y0171820D01*
X0214321Y0171954D01*
X0214358Y0172089D01*
X0214391Y0172225D01*
X0214420Y0172363D01*
X0214445Y0172500D01*
X0214467Y0172639D01*
X0214485Y0172778D01*
X0214498Y0172918D01*
X0214508Y0173058D01*
X0214514Y0173198D01*
X0214516Y0173338D01*
X0221516Y0173338D01*
X0221516Y0172338D01*
X0141721Y0188338D02*
X0141725Y0188652D01*
X0141736Y0188966D01*
X0141756Y0189279D01*
X0141783Y0189592D01*
X0141817Y0189904D01*
X0141859Y0190215D01*
X0141909Y0190525D01*
X0141967Y0190834D01*
X0142032Y0191141D01*
X0142104Y0191447D01*
X0142184Y0191751D01*
X0142272Y0192052D01*
X0142367Y0192352D01*
X0142469Y0192649D01*
X0142578Y0192943D01*
X0142695Y0193234D01*
X0142819Y0193523D01*
X0142949Y0193809D01*
X0143087Y0194091D01*
X0143232Y0194370D01*
X0143383Y0194645D01*
X0143541Y0194916D01*
X0143706Y0195183D01*
X0143877Y0195447D01*
X0144055Y0195705D01*
X0144239Y0195960D01*
X0144429Y0196210D01*
X0144625Y0196455D01*
X0144828Y0196695D01*
X0145036Y0196931D01*
X0145249Y0197161D01*
X0145469Y0197385D01*
X0145693Y0197605D01*
X0145923Y0197818D01*
X0146159Y0198026D01*
X0146399Y0198229D01*
X0146644Y0198425D01*
X0146894Y0198615D01*
X0147149Y0198799D01*
X0147407Y0198977D01*
X0147671Y0199148D01*
X0147938Y0199313D01*
X0148209Y0199471D01*
X0148484Y0199622D01*
X0148763Y0199767D01*
X0149045Y0199905D01*
X0149331Y0200035D01*
X0149620Y0200159D01*
X0149911Y0200276D01*
X0150205Y0200385D01*
X0150502Y0200487D01*
X0150802Y0200582D01*
X0151103Y0200670D01*
X0151407Y0200750D01*
X0151713Y0200822D01*
X0152020Y0200887D01*
X0152329Y0200945D01*
X0152639Y0200995D01*
X0152950Y0201037D01*
X0153262Y0201071D01*
X0153575Y0201098D01*
X0153888Y0201118D01*
X0154202Y0201129D01*
X0154516Y0201133D01*
X0154830Y0201129D01*
X0155144Y0201118D01*
X0155457Y0201098D01*
X0155770Y0201071D01*
X0156082Y0201037D01*
X0156393Y0200995D01*
X0156703Y0200945D01*
X0157012Y0200887D01*
X0157319Y0200822D01*
X0157625Y0200750D01*
X0157929Y0200670D01*
X0158230Y0200582D01*
X0158530Y0200487D01*
X0158827Y0200385D01*
X0159121Y0200276D01*
X0159412Y0200159D01*
X0159701Y0200035D01*
X0159987Y0199905D01*
X0160269Y0199767D01*
X0160548Y0199622D01*
X0160823Y0199471D01*
X0161094Y0199313D01*
X0161361Y0199148D01*
X0161625Y0198977D01*
X0161883Y0198799D01*
X0162138Y0198615D01*
X0162388Y0198425D01*
X0162633Y0198229D01*
X0162873Y0198026D01*
X0163109Y0197818D01*
X0163339Y0197605D01*
X0163563Y0197385D01*
X0163783Y0197161D01*
X0163996Y0196931D01*
X0164204Y0196695D01*
X0164407Y0196455D01*
X0164603Y0196210D01*
X0164793Y0195960D01*
X0164977Y0195705D01*
X0165155Y0195447D01*
X0165326Y0195183D01*
X0165491Y0194916D01*
X0165649Y0194645D01*
X0165800Y0194370D01*
X0165945Y0194091D01*
X0166083Y0193809D01*
X0166213Y0193523D01*
X0166337Y0193234D01*
X0166454Y0192943D01*
X0166563Y0192649D01*
X0166665Y0192352D01*
X0166760Y0192052D01*
X0166848Y0191751D01*
X0166928Y0191447D01*
X0167000Y0191141D01*
X0167065Y0190834D01*
X0167123Y0190525D01*
X0167173Y0190215D01*
X0167215Y0189904D01*
X0167249Y0189592D01*
X0167276Y0189279D01*
X0167296Y0188966D01*
X0167307Y0188652D01*
X0167311Y0188338D01*
X0167307Y0188024D01*
X0167296Y0187710D01*
X0167276Y0187397D01*
X0167249Y0187084D01*
X0167215Y0186772D01*
X0167173Y0186461D01*
X0167123Y0186151D01*
X0167065Y0185842D01*
X0167000Y0185535D01*
X0166928Y0185229D01*
X0166848Y0184925D01*
X0166760Y0184624D01*
X0166665Y0184324D01*
X0166563Y0184027D01*
X0166454Y0183733D01*
X0166337Y0183442D01*
X0166213Y0183153D01*
X0166083Y0182867D01*
X0165945Y0182585D01*
X0165800Y0182306D01*
X0165649Y0182031D01*
X0165491Y0181760D01*
X0165326Y0181493D01*
X0165155Y0181229D01*
X0164977Y0180971D01*
X0164793Y0180716D01*
X0164603Y0180466D01*
X0164407Y0180221D01*
X0164204Y0179981D01*
X0163996Y0179745D01*
X0163783Y0179515D01*
X0163563Y0179291D01*
X0163339Y0179071D01*
X0163109Y0178858D01*
X0162873Y0178650D01*
X0162633Y0178447D01*
X0162388Y0178251D01*
X0162138Y0178061D01*
X0161883Y0177877D01*
X0161625Y0177699D01*
X0161361Y0177528D01*
X0161094Y0177363D01*
X0160823Y0177205D01*
X0160548Y0177054D01*
X0160269Y0176909D01*
X0159987Y0176771D01*
X0159701Y0176641D01*
X0159412Y0176517D01*
X0159121Y0176400D01*
X0158827Y0176291D01*
X0158530Y0176189D01*
X0158230Y0176094D01*
X0157929Y0176006D01*
X0157625Y0175926D01*
X0157319Y0175854D01*
X0157012Y0175789D01*
X0156703Y0175731D01*
X0156393Y0175681D01*
X0156082Y0175639D01*
X0155770Y0175605D01*
X0155457Y0175578D01*
X0155144Y0175558D01*
X0154830Y0175547D01*
X0154516Y0175543D01*
X0154202Y0175547D01*
X0153888Y0175558D01*
X0153575Y0175578D01*
X0153262Y0175605D01*
X0152950Y0175639D01*
X0152639Y0175681D01*
X0152329Y0175731D01*
X0152020Y0175789D01*
X0151713Y0175854D01*
X0151407Y0175926D01*
X0151103Y0176006D01*
X0150802Y0176094D01*
X0150502Y0176189D01*
X0150205Y0176291D01*
X0149911Y0176400D01*
X0149620Y0176517D01*
X0149331Y0176641D01*
X0149045Y0176771D01*
X0148763Y0176909D01*
X0148484Y0177054D01*
X0148209Y0177205D01*
X0147938Y0177363D01*
X0147671Y0177528D01*
X0147407Y0177699D01*
X0147149Y0177877D01*
X0146894Y0178061D01*
X0146644Y0178251D01*
X0146399Y0178447D01*
X0146159Y0178650D01*
X0145923Y0178858D01*
X0145693Y0179071D01*
X0145469Y0179291D01*
X0145249Y0179515D01*
X0145036Y0179745D01*
X0144828Y0179981D01*
X0144625Y0180221D01*
X0144429Y0180466D01*
X0144239Y0180716D01*
X0144055Y0180971D01*
X0143877Y0181229D01*
X0143706Y0181493D01*
X0143541Y0181760D01*
X0143383Y0182031D01*
X0143232Y0182306D01*
X0143087Y0182585D01*
X0142949Y0182867D01*
X0142819Y0183153D01*
X0142695Y0183442D01*
X0142578Y0183733D01*
X0142469Y0184027D01*
X0142367Y0184324D01*
X0142272Y0184624D01*
X0142184Y0184925D01*
X0142104Y0185229D01*
X0142032Y0185535D01*
X0141967Y0185842D01*
X0141909Y0186151D01*
X0141859Y0186461D01*
X0141817Y0186772D01*
X0141783Y0187084D01*
X0141756Y0187397D01*
X0141736Y0187710D01*
X0141725Y0188024D01*
X0141721Y0188338D01*
X0147016Y0193338D02*
X0152016Y0193338D01*
X0111721Y0188338D02*
X0111725Y0188652D01*
X0111736Y0188966D01*
X0111756Y0189279D01*
X0111783Y0189592D01*
X0111817Y0189904D01*
X0111859Y0190215D01*
X0111909Y0190525D01*
X0111967Y0190834D01*
X0112032Y0191141D01*
X0112104Y0191447D01*
X0112184Y0191751D01*
X0112272Y0192052D01*
X0112367Y0192352D01*
X0112469Y0192649D01*
X0112578Y0192943D01*
X0112695Y0193234D01*
X0112819Y0193523D01*
X0112949Y0193809D01*
X0113087Y0194091D01*
X0113232Y0194370D01*
X0113383Y0194645D01*
X0113541Y0194916D01*
X0113706Y0195183D01*
X0113877Y0195447D01*
X0114055Y0195705D01*
X0114239Y0195960D01*
X0114429Y0196210D01*
X0114625Y0196455D01*
X0114828Y0196695D01*
X0115036Y0196931D01*
X0115249Y0197161D01*
X0115469Y0197385D01*
X0115693Y0197605D01*
X0115923Y0197818D01*
X0116159Y0198026D01*
X0116399Y0198229D01*
X0116644Y0198425D01*
X0116894Y0198615D01*
X0117149Y0198799D01*
X0117407Y0198977D01*
X0117671Y0199148D01*
X0117938Y0199313D01*
X0118209Y0199471D01*
X0118484Y0199622D01*
X0118763Y0199767D01*
X0119045Y0199905D01*
X0119331Y0200035D01*
X0119620Y0200159D01*
X0119911Y0200276D01*
X0120205Y0200385D01*
X0120502Y0200487D01*
X0120802Y0200582D01*
X0121103Y0200670D01*
X0121407Y0200750D01*
X0121713Y0200822D01*
X0122020Y0200887D01*
X0122329Y0200945D01*
X0122639Y0200995D01*
X0122950Y0201037D01*
X0123262Y0201071D01*
X0123575Y0201098D01*
X0123888Y0201118D01*
X0124202Y0201129D01*
X0124516Y0201133D01*
X0124830Y0201129D01*
X0125144Y0201118D01*
X0125457Y0201098D01*
X0125770Y0201071D01*
X0126082Y0201037D01*
X0126393Y0200995D01*
X0126703Y0200945D01*
X0127012Y0200887D01*
X0127319Y0200822D01*
X0127625Y0200750D01*
X0127929Y0200670D01*
X0128230Y0200582D01*
X0128530Y0200487D01*
X0128827Y0200385D01*
X0129121Y0200276D01*
X0129412Y0200159D01*
X0129701Y0200035D01*
X0129987Y0199905D01*
X0130269Y0199767D01*
X0130548Y0199622D01*
X0130823Y0199471D01*
X0131094Y0199313D01*
X0131361Y0199148D01*
X0131625Y0198977D01*
X0131883Y0198799D01*
X0132138Y0198615D01*
X0132388Y0198425D01*
X0132633Y0198229D01*
X0132873Y0198026D01*
X0133109Y0197818D01*
X0133339Y0197605D01*
X0133563Y0197385D01*
X0133783Y0197161D01*
X0133996Y0196931D01*
X0134204Y0196695D01*
X0134407Y0196455D01*
X0134603Y0196210D01*
X0134793Y0195960D01*
X0134977Y0195705D01*
X0135155Y0195447D01*
X0135326Y0195183D01*
X0135491Y0194916D01*
X0135649Y0194645D01*
X0135800Y0194370D01*
X0135945Y0194091D01*
X0136083Y0193809D01*
X0136213Y0193523D01*
X0136337Y0193234D01*
X0136454Y0192943D01*
X0136563Y0192649D01*
X0136665Y0192352D01*
X0136760Y0192052D01*
X0136848Y0191751D01*
X0136928Y0191447D01*
X0137000Y0191141D01*
X0137065Y0190834D01*
X0137123Y0190525D01*
X0137173Y0190215D01*
X0137215Y0189904D01*
X0137249Y0189592D01*
X0137276Y0189279D01*
X0137296Y0188966D01*
X0137307Y0188652D01*
X0137311Y0188338D01*
X0137307Y0188024D01*
X0137296Y0187710D01*
X0137276Y0187397D01*
X0137249Y0187084D01*
X0137215Y0186772D01*
X0137173Y0186461D01*
X0137123Y0186151D01*
X0137065Y0185842D01*
X0137000Y0185535D01*
X0136928Y0185229D01*
X0136848Y0184925D01*
X0136760Y0184624D01*
X0136665Y0184324D01*
X0136563Y0184027D01*
X0136454Y0183733D01*
X0136337Y0183442D01*
X0136213Y0183153D01*
X0136083Y0182867D01*
X0135945Y0182585D01*
X0135800Y0182306D01*
X0135649Y0182031D01*
X0135491Y0181760D01*
X0135326Y0181493D01*
X0135155Y0181229D01*
X0134977Y0180971D01*
X0134793Y0180716D01*
X0134603Y0180466D01*
X0134407Y0180221D01*
X0134204Y0179981D01*
X0133996Y0179745D01*
X0133783Y0179515D01*
X0133563Y0179291D01*
X0133339Y0179071D01*
X0133109Y0178858D01*
X0132873Y0178650D01*
X0132633Y0178447D01*
X0132388Y0178251D01*
X0132138Y0178061D01*
X0131883Y0177877D01*
X0131625Y0177699D01*
X0131361Y0177528D01*
X0131094Y0177363D01*
X0130823Y0177205D01*
X0130548Y0177054D01*
X0130269Y0176909D01*
X0129987Y0176771D01*
X0129701Y0176641D01*
X0129412Y0176517D01*
X0129121Y0176400D01*
X0128827Y0176291D01*
X0128530Y0176189D01*
X0128230Y0176094D01*
X0127929Y0176006D01*
X0127625Y0175926D01*
X0127319Y0175854D01*
X0127012Y0175789D01*
X0126703Y0175731D01*
X0126393Y0175681D01*
X0126082Y0175639D01*
X0125770Y0175605D01*
X0125457Y0175578D01*
X0125144Y0175558D01*
X0124830Y0175547D01*
X0124516Y0175543D01*
X0124202Y0175547D01*
X0123888Y0175558D01*
X0123575Y0175578D01*
X0123262Y0175605D01*
X0122950Y0175639D01*
X0122639Y0175681D01*
X0122329Y0175731D01*
X0122020Y0175789D01*
X0121713Y0175854D01*
X0121407Y0175926D01*
X0121103Y0176006D01*
X0120802Y0176094D01*
X0120502Y0176189D01*
X0120205Y0176291D01*
X0119911Y0176400D01*
X0119620Y0176517D01*
X0119331Y0176641D01*
X0119045Y0176771D01*
X0118763Y0176909D01*
X0118484Y0177054D01*
X0118209Y0177205D01*
X0117938Y0177363D01*
X0117671Y0177528D01*
X0117407Y0177699D01*
X0117149Y0177877D01*
X0116894Y0178061D01*
X0116644Y0178251D01*
X0116399Y0178447D01*
X0116159Y0178650D01*
X0115923Y0178858D01*
X0115693Y0179071D01*
X0115469Y0179291D01*
X0115249Y0179515D01*
X0115036Y0179745D01*
X0114828Y0179981D01*
X0114625Y0180221D01*
X0114429Y0180466D01*
X0114239Y0180716D01*
X0114055Y0180971D01*
X0113877Y0181229D01*
X0113706Y0181493D01*
X0113541Y0181760D01*
X0113383Y0182031D01*
X0113232Y0182306D01*
X0113087Y0182585D01*
X0112949Y0182867D01*
X0112819Y0183153D01*
X0112695Y0183442D01*
X0112578Y0183733D01*
X0112469Y0184027D01*
X0112367Y0184324D01*
X0112272Y0184624D01*
X0112184Y0184925D01*
X0112104Y0185229D01*
X0112032Y0185535D01*
X0111967Y0185842D01*
X0111909Y0186151D01*
X0111859Y0186461D01*
X0111817Y0186772D01*
X0111783Y0187084D01*
X0111756Y0187397D01*
X0111736Y0187710D01*
X0111725Y0188024D01*
X0111721Y0188338D01*
X0106996Y0186882D02*
X0106996Y0201055D01*
X0063689Y0201055D01*
X0063689Y0165622D01*
X0086918Y0165622D01*
X0096366Y0165622D02*
X0106996Y0165622D01*
X0106996Y0179795D01*
X0117016Y0193338D02*
X0122016Y0193338D01*
X0221516Y0034338D02*
X0221516Y0033338D01*
D14*
X0144466Y0090638D02*
X0144466Y0091139D01*
X0144216Y0091389D01*
X0144216Y0091861D02*
X0144466Y0092112D01*
X0144466Y0092612D01*
X0144216Y0092862D01*
X0143966Y0092862D01*
X0143715Y0092612D01*
X0143715Y0092362D01*
X0143715Y0092612D02*
X0143465Y0092862D01*
X0143215Y0092862D01*
X0142965Y0092612D01*
X0142965Y0092112D01*
X0143215Y0091861D01*
X0143215Y0091389D02*
X0142965Y0091139D01*
X0142965Y0090638D01*
X0143215Y0090388D01*
X0144216Y0090388D01*
X0144466Y0090638D01*
X0111707Y0093667D02*
X0112247Y0092947D01*
X0112246Y0092948D02*
X0112013Y0092767D01*
X0111785Y0092581D01*
X0111561Y0092389D01*
X0111342Y0092192D01*
X0111128Y0091990D01*
X0110919Y0091782D01*
X0110716Y0091569D01*
X0110517Y0091352D01*
X0110324Y0091129D01*
X0110136Y0090902D01*
X0109954Y0090671D01*
X0109777Y0090435D01*
X0109607Y0090194D01*
X0109442Y0089950D01*
X0109284Y0089702D01*
X0109131Y0089450D01*
X0108985Y0089194D01*
X0108845Y0088935D01*
X0108711Y0088672D01*
X0108584Y0088407D01*
X0108463Y0088138D01*
X0108349Y0087866D01*
X0108242Y0087592D01*
X0108141Y0087315D01*
X0108047Y0087036D01*
X0107960Y0086754D01*
X0107880Y0086471D01*
X0107807Y0086185D01*
X0107741Y0085898D01*
X0107682Y0085609D01*
X0107630Y0085319D01*
X0107585Y0085028D01*
X0107547Y0084736D01*
X0107517Y0084443D01*
X0107493Y0084149D01*
X0107477Y0083855D01*
X0107468Y0083561D01*
X0107466Y0083266D01*
X0107472Y0082971D01*
X0107484Y0082677D01*
X0107504Y0082383D01*
X0107531Y0082090D01*
X0107565Y0081797D01*
X0107606Y0081505D01*
X0107655Y0081215D01*
X0107710Y0080925D01*
X0107772Y0080638D01*
X0107842Y0080351D01*
X0107919Y0080067D01*
X0108002Y0079784D01*
X0108092Y0079504D01*
X0108189Y0079226D01*
X0108293Y0078950D01*
X0108404Y0078677D01*
X0108521Y0078407D01*
X0108645Y0078139D01*
X0108775Y0077875D01*
X0108912Y0077614D01*
X0109055Y0077357D01*
X0109205Y0077103D01*
X0109360Y0076852D01*
X0109522Y0076606D01*
X0109689Y0076364D01*
X0109863Y0076126D01*
X0110042Y0075892D01*
X0110227Y0075662D01*
X0110417Y0075438D01*
X0110613Y0075217D01*
X0110814Y0075002D01*
X0111021Y0074792D01*
X0111232Y0074587D01*
X0111449Y0074387D01*
X0111670Y0074192D01*
X0111896Y0074003D01*
X0112126Y0073820D01*
X0112361Y0073642D01*
X0112601Y0073470D01*
X0112844Y0073304D01*
X0113091Y0073144D01*
X0113342Y0072990D01*
X0113597Y0072842D01*
X0113856Y0072700D01*
X0114117Y0072565D01*
X0114382Y0072436D01*
X0114650Y0072314D01*
X0114921Y0072198D01*
X0115195Y0072089D01*
X0115471Y0071987D01*
X0115750Y0071892D01*
X0116031Y0071803D01*
X0116314Y0071721D01*
X0116599Y0071646D01*
X0116886Y0071579D01*
X0117174Y0071518D01*
X0117464Y0071464D01*
X0117755Y0071417D01*
X0118047Y0071378D01*
X0118339Y0071346D01*
X0118633Y0071320D01*
X0118927Y0071302D01*
X0119221Y0071292D01*
X0119516Y0071288D01*
X0119811Y0071292D01*
X0120105Y0071302D01*
X0120399Y0071320D01*
X0120693Y0071346D01*
X0120985Y0071378D01*
X0121277Y0071417D01*
X0121568Y0071464D01*
X0121858Y0071518D01*
X0122146Y0071579D01*
X0122433Y0071646D01*
X0122718Y0071721D01*
X0123001Y0071803D01*
X0123282Y0071892D01*
X0123561Y0071987D01*
X0123837Y0072089D01*
X0124111Y0072198D01*
X0124382Y0072314D01*
X0124650Y0072436D01*
X0124915Y0072565D01*
X0125176Y0072700D01*
X0125435Y0072842D01*
X0125690Y0072990D01*
X0125941Y0073144D01*
X0126188Y0073304D01*
X0126431Y0073470D01*
X0126671Y0073642D01*
X0126906Y0073820D01*
X0127136Y0074003D01*
X0127362Y0074192D01*
X0127583Y0074387D01*
X0127800Y0074587D01*
X0128011Y0074792D01*
X0128218Y0075002D01*
X0128419Y0075217D01*
X0128615Y0075438D01*
X0128805Y0075662D01*
X0128990Y0075892D01*
X0129169Y0076126D01*
X0129343Y0076364D01*
X0129510Y0076606D01*
X0129672Y0076852D01*
X0129827Y0077103D01*
X0129977Y0077357D01*
X0130120Y0077614D01*
X0130257Y0077875D01*
X0130387Y0078139D01*
X0130511Y0078407D01*
X0130628Y0078677D01*
X0130739Y0078950D01*
X0130843Y0079226D01*
X0130940Y0079504D01*
X0131030Y0079784D01*
X0131113Y0080067D01*
X0131190Y0080351D01*
X0131260Y0080638D01*
X0131322Y0080925D01*
X0131377Y0081215D01*
X0131426Y0081505D01*
X0131467Y0081797D01*
X0131501Y0082090D01*
X0131528Y0082383D01*
X0131548Y0082677D01*
X0131560Y0082971D01*
X0131566Y0083266D01*
X0131564Y0083561D01*
X0131555Y0083855D01*
X0131539Y0084149D01*
X0131515Y0084443D01*
X0131485Y0084736D01*
X0131447Y0085028D01*
X0131402Y0085319D01*
X0131350Y0085609D01*
X0131291Y0085898D01*
X0131225Y0086185D01*
X0131152Y0086471D01*
X0131072Y0086754D01*
X0130985Y0087036D01*
X0130891Y0087315D01*
X0130790Y0087592D01*
X0130683Y0087866D01*
X0130569Y0088138D01*
X0130448Y0088407D01*
X0130321Y0088672D01*
X0130187Y0088935D01*
X0130047Y0089194D01*
X0129901Y0089450D01*
X0129748Y0089702D01*
X0129590Y0089950D01*
X0129425Y0090194D01*
X0129255Y0090435D01*
X0129078Y0090671D01*
X0128896Y0090902D01*
X0128708Y0091129D01*
X0128515Y0091352D01*
X0128316Y0091569D01*
X0128113Y0091782D01*
X0127904Y0091990D01*
X0127690Y0092192D01*
X0127471Y0092389D01*
X0127247Y0092581D01*
X0127019Y0092767D01*
X0126786Y0092948D01*
X0127325Y0093667D01*
X0127326Y0093668D01*
X0127576Y0093474D01*
X0127822Y0093274D01*
X0128062Y0093068D01*
X0128297Y0092856D01*
X0128527Y0092638D01*
X0128752Y0092415D01*
X0128971Y0092187D01*
X0129185Y0091953D01*
X0129393Y0091714D01*
X0129595Y0091470D01*
X0129790Y0091221D01*
X0129980Y0090967D01*
X0130163Y0090709D01*
X0130340Y0090447D01*
X0130511Y0090180D01*
X0130675Y0089909D01*
X0130832Y0089634D01*
X0130983Y0089356D01*
X0131127Y0089073D01*
X0131263Y0088788D01*
X0131393Y0088499D01*
X0131516Y0088207D01*
X0131631Y0087912D01*
X0131739Y0087615D01*
X0131840Y0087314D01*
X0131934Y0087012D01*
X0132020Y0086707D01*
X0132099Y0086400D01*
X0132170Y0086092D01*
X0132233Y0085782D01*
X0132289Y0085470D01*
X0132338Y0085157D01*
X0132378Y0084843D01*
X0132411Y0084528D01*
X0132436Y0084212D01*
X0132454Y0083896D01*
X0132464Y0083580D01*
X0132466Y0083263D01*
X0132460Y0082946D01*
X0132447Y0082630D01*
X0132425Y0082314D01*
X0132397Y0081999D01*
X0132360Y0081684D01*
X0132316Y0081371D01*
X0132264Y0081058D01*
X0132204Y0080747D01*
X0132137Y0080438D01*
X0132062Y0080130D01*
X0131980Y0079824D01*
X0131891Y0079521D01*
X0131794Y0079219D01*
X0131689Y0078920D01*
X0131577Y0078624D01*
X0131459Y0078330D01*
X0131333Y0078040D01*
X0131200Y0077753D01*
X0131059Y0077468D01*
X0130912Y0077188D01*
X0130759Y0076911D01*
X0130598Y0076638D01*
X0130431Y0076369D01*
X0130257Y0076104D01*
X0130077Y0075844D01*
X0129891Y0075588D01*
X0129698Y0075337D01*
X0129500Y0075090D01*
X0129295Y0074848D01*
X0129085Y0074612D01*
X0128868Y0074380D01*
X0128646Y0074155D01*
X0128419Y0073934D01*
X0128187Y0073719D01*
X0127949Y0073510D01*
X0127706Y0073307D01*
X0127458Y0073109D01*
X0127206Y0072918D01*
X0126949Y0072733D01*
X0126687Y0072555D01*
X0126421Y0072383D01*
X0126152Y0072217D01*
X0125878Y0072058D01*
X0125600Y0071906D01*
X0125319Y0071761D01*
X0125034Y0071622D01*
X0124746Y0071491D01*
X0124454Y0071367D01*
X0124160Y0071249D01*
X0123863Y0071139D01*
X0123564Y0071037D01*
X0123262Y0070942D01*
X0122958Y0070854D01*
X0122651Y0070773D01*
X0122343Y0070700D01*
X0122033Y0070635D01*
X0121722Y0070577D01*
X0121409Y0070527D01*
X0121095Y0070485D01*
X0120781Y0070450D01*
X0120465Y0070423D01*
X0120149Y0070403D01*
X0119833Y0070392D01*
X0119516Y0070388D01*
X0119199Y0070392D01*
X0118883Y0070403D01*
X0118567Y0070423D01*
X0118251Y0070450D01*
X0117937Y0070485D01*
X0117623Y0070527D01*
X0117310Y0070577D01*
X0116999Y0070635D01*
X0116689Y0070700D01*
X0116381Y0070773D01*
X0116074Y0070854D01*
X0115770Y0070942D01*
X0115468Y0071037D01*
X0115169Y0071139D01*
X0114872Y0071249D01*
X0114578Y0071367D01*
X0114286Y0071491D01*
X0113998Y0071622D01*
X0113713Y0071761D01*
X0113432Y0071906D01*
X0113154Y0072058D01*
X0112880Y0072217D01*
X0112611Y0072383D01*
X0112345Y0072555D01*
X0112083Y0072733D01*
X0111826Y0072918D01*
X0111574Y0073109D01*
X0111326Y0073307D01*
X0111083Y0073510D01*
X0110845Y0073719D01*
X0110613Y0073934D01*
X0110386Y0074155D01*
X0110164Y0074380D01*
X0109947Y0074612D01*
X0109737Y0074848D01*
X0109532Y0075090D01*
X0109334Y0075337D01*
X0109141Y0075588D01*
X0108955Y0075844D01*
X0108775Y0076104D01*
X0108601Y0076369D01*
X0108434Y0076638D01*
X0108273Y0076911D01*
X0108120Y0077188D01*
X0107973Y0077468D01*
X0107832Y0077753D01*
X0107699Y0078040D01*
X0107573Y0078330D01*
X0107455Y0078624D01*
X0107343Y0078920D01*
X0107238Y0079219D01*
X0107141Y0079521D01*
X0107052Y0079824D01*
X0106970Y0080130D01*
X0106895Y0080438D01*
X0106828Y0080747D01*
X0106768Y0081058D01*
X0106716Y0081371D01*
X0106672Y0081684D01*
X0106635Y0081999D01*
X0106607Y0082314D01*
X0106585Y0082630D01*
X0106572Y0082946D01*
X0106566Y0083263D01*
X0106568Y0083580D01*
X0106578Y0083896D01*
X0106596Y0084212D01*
X0106621Y0084528D01*
X0106654Y0084843D01*
X0106694Y0085157D01*
X0106743Y0085470D01*
X0106799Y0085782D01*
X0106862Y0086092D01*
X0106933Y0086400D01*
X0107012Y0086707D01*
X0107098Y0087012D01*
X0107192Y0087314D01*
X0107293Y0087615D01*
X0107401Y0087912D01*
X0107516Y0088207D01*
X0107639Y0088499D01*
X0107769Y0088788D01*
X0107905Y0089073D01*
X0108049Y0089356D01*
X0108200Y0089634D01*
X0108357Y0089909D01*
X0108521Y0090180D01*
X0108692Y0090447D01*
X0108869Y0090709D01*
X0109052Y0090967D01*
X0109242Y0091221D01*
X0109437Y0091470D01*
X0109639Y0091714D01*
X0109847Y0091953D01*
X0110061Y0092187D01*
X0110280Y0092415D01*
X0110505Y0092638D01*
X0110735Y0092856D01*
X0110970Y0093068D01*
X0111210Y0093274D01*
X0111456Y0093474D01*
X0111706Y0093668D01*
X0111762Y0093593D01*
X0111514Y0093400D01*
X0111270Y0093201D01*
X0111032Y0092997D01*
X0110798Y0092787D01*
X0110570Y0092571D01*
X0110347Y0092349D01*
X0110129Y0092122D01*
X0109917Y0091890D01*
X0109711Y0091653D01*
X0109510Y0091411D01*
X0109316Y0091163D01*
X0109128Y0090912D01*
X0108946Y0090655D01*
X0108770Y0090395D01*
X0108601Y0090130D01*
X0108438Y0089861D01*
X0108282Y0089588D01*
X0108132Y0089312D01*
X0107990Y0089032D01*
X0107854Y0088748D01*
X0107725Y0088461D01*
X0107603Y0088171D01*
X0107489Y0087879D01*
X0107381Y0087583D01*
X0107281Y0087285D01*
X0107188Y0086985D01*
X0107103Y0086682D01*
X0107025Y0086378D01*
X0106954Y0086072D01*
X0106891Y0085764D01*
X0106835Y0085454D01*
X0106787Y0085144D01*
X0106747Y0084832D01*
X0106714Y0084519D01*
X0106689Y0084206D01*
X0106672Y0083892D01*
X0106662Y0083578D01*
X0106660Y0083263D01*
X0106666Y0082949D01*
X0106679Y0082635D01*
X0106700Y0082321D01*
X0106729Y0082008D01*
X0106765Y0081696D01*
X0106809Y0081385D01*
X0106861Y0081075D01*
X0106920Y0080766D01*
X0106987Y0080459D01*
X0107061Y0080153D01*
X0107142Y0079850D01*
X0107231Y0079548D01*
X0107328Y0079249D01*
X0107431Y0078952D01*
X0107542Y0078658D01*
X0107660Y0078367D01*
X0107785Y0078078D01*
X0107917Y0077793D01*
X0108056Y0077511D01*
X0108202Y0077233D01*
X0108355Y0076958D01*
X0108514Y0076687D01*
X0108680Y0076420D01*
X0108853Y0076157D01*
X0109031Y0075898D01*
X0109216Y0075644D01*
X0109408Y0075395D01*
X0109605Y0075150D01*
X0109808Y0074910D01*
X0110017Y0074675D01*
X0110232Y0074445D01*
X0110452Y0074221D01*
X0110677Y0074002D01*
X0110908Y0073789D01*
X0111144Y0073581D01*
X0111386Y0073379D01*
X0111631Y0073184D01*
X0111882Y0072994D01*
X0112137Y0072810D01*
X0112397Y0072633D01*
X0112661Y0072462D01*
X0112929Y0072298D01*
X0113201Y0072140D01*
X0113476Y0071989D01*
X0113756Y0071845D01*
X0114038Y0071707D01*
X0114324Y0071577D01*
X0114613Y0071453D01*
X0114906Y0071337D01*
X0115200Y0071228D01*
X0115498Y0071126D01*
X0115797Y0071032D01*
X0116100Y0070944D01*
X0116404Y0070864D01*
X0116709Y0070792D01*
X0117017Y0070727D01*
X0117326Y0070670D01*
X0117637Y0070620D01*
X0117948Y0070578D01*
X0118261Y0070543D01*
X0118574Y0070517D01*
X0118888Y0070497D01*
X0119202Y0070486D01*
X0119516Y0070482D01*
X0119830Y0070486D01*
X0120144Y0070497D01*
X0120458Y0070517D01*
X0120771Y0070543D01*
X0121084Y0070578D01*
X0121395Y0070620D01*
X0121706Y0070670D01*
X0122015Y0070727D01*
X0122323Y0070792D01*
X0122628Y0070864D01*
X0122932Y0070944D01*
X0123235Y0071032D01*
X0123534Y0071126D01*
X0123832Y0071228D01*
X0124126Y0071337D01*
X0124419Y0071453D01*
X0124708Y0071577D01*
X0124994Y0071707D01*
X0125276Y0071845D01*
X0125556Y0071989D01*
X0125831Y0072140D01*
X0126103Y0072298D01*
X0126371Y0072462D01*
X0126635Y0072633D01*
X0126895Y0072810D01*
X0127150Y0072994D01*
X0127401Y0073184D01*
X0127646Y0073379D01*
X0127888Y0073581D01*
X0128124Y0073789D01*
X0128355Y0074002D01*
X0128580Y0074221D01*
X0128800Y0074445D01*
X0129015Y0074675D01*
X0129224Y0074910D01*
X0129427Y0075150D01*
X0129624Y0075395D01*
X0129816Y0075644D01*
X0130001Y0075898D01*
X0130179Y0076157D01*
X0130352Y0076420D01*
X0130518Y0076687D01*
X0130677Y0076958D01*
X0130830Y0077233D01*
X0130976Y0077511D01*
X0131115Y0077793D01*
X0131247Y0078078D01*
X0131372Y0078367D01*
X0131490Y0078658D01*
X0131601Y0078952D01*
X0131704Y0079249D01*
X0131801Y0079548D01*
X0131890Y0079850D01*
X0131971Y0080153D01*
X0132045Y0080459D01*
X0132112Y0080766D01*
X0132171Y0081075D01*
X0132223Y0081385D01*
X0132267Y0081696D01*
X0132303Y0082008D01*
X0132332Y0082321D01*
X0132353Y0082635D01*
X0132366Y0082949D01*
X0132372Y0083263D01*
X0132370Y0083578D01*
X0132360Y0083892D01*
X0132343Y0084206D01*
X0132318Y0084519D01*
X0132285Y0084832D01*
X0132245Y0085144D01*
X0132197Y0085454D01*
X0132141Y0085764D01*
X0132078Y0086072D01*
X0132007Y0086378D01*
X0131929Y0086682D01*
X0131844Y0086985D01*
X0131751Y0087285D01*
X0131651Y0087583D01*
X0131543Y0087879D01*
X0131429Y0088171D01*
X0131307Y0088461D01*
X0131178Y0088748D01*
X0131042Y0089032D01*
X0130900Y0089312D01*
X0130750Y0089588D01*
X0130594Y0089861D01*
X0130431Y0090130D01*
X0130262Y0090395D01*
X0130086Y0090655D01*
X0129904Y0090912D01*
X0129716Y0091163D01*
X0129522Y0091411D01*
X0129321Y0091653D01*
X0129115Y0091890D01*
X0128903Y0092122D01*
X0128685Y0092349D01*
X0128462Y0092571D01*
X0128234Y0092787D01*
X0128000Y0092997D01*
X0127762Y0093201D01*
X0127518Y0093400D01*
X0127270Y0093593D01*
X0127213Y0093518D01*
X0127460Y0093326D01*
X0127702Y0093129D01*
X0127939Y0092926D01*
X0128170Y0092717D01*
X0128397Y0092503D01*
X0128619Y0092283D01*
X0128835Y0092058D01*
X0129045Y0091827D01*
X0129250Y0091592D01*
X0129449Y0091351D01*
X0129642Y0091106D01*
X0129828Y0090856D01*
X0130009Y0090602D01*
X0130184Y0090343D01*
X0130352Y0090080D01*
X0130513Y0089813D01*
X0130668Y0089542D01*
X0130817Y0089268D01*
X0130958Y0088990D01*
X0131093Y0088708D01*
X0131221Y0088424D01*
X0131342Y0088136D01*
X0131456Y0087845D01*
X0131562Y0087552D01*
X0131662Y0087256D01*
X0131754Y0086958D01*
X0131839Y0086658D01*
X0131916Y0086355D01*
X0131986Y0086051D01*
X0132049Y0085746D01*
X0132104Y0085439D01*
X0132152Y0085130D01*
X0132192Y0084821D01*
X0132224Y0084510D01*
X0132249Y0084199D01*
X0132266Y0083888D01*
X0132276Y0083576D01*
X0132278Y0083264D01*
X0132272Y0082952D01*
X0132259Y0082640D01*
X0132238Y0082329D01*
X0132210Y0082018D01*
X0132173Y0081708D01*
X0132130Y0081399D01*
X0132079Y0081091D01*
X0132020Y0080784D01*
X0131954Y0080480D01*
X0131880Y0080176D01*
X0131799Y0079875D01*
X0131711Y0079576D01*
X0131615Y0079279D01*
X0131512Y0078984D01*
X0131402Y0078692D01*
X0131285Y0078403D01*
X0131161Y0078116D01*
X0131030Y0077833D01*
X0130892Y0077553D01*
X0130747Y0077277D01*
X0130595Y0077004D01*
X0130437Y0076735D01*
X0130272Y0076470D01*
X0130101Y0076209D01*
X0129924Y0075953D01*
X0129740Y0075700D01*
X0129550Y0075453D01*
X0129355Y0075210D01*
X0129153Y0074971D01*
X0128945Y0074738D01*
X0128732Y0074510D01*
X0128514Y0074288D01*
X0128290Y0074070D01*
X0128061Y0073859D01*
X0127826Y0073653D01*
X0127587Y0073452D01*
X0127343Y0073258D01*
X0127094Y0073070D01*
X0126841Y0072887D01*
X0126583Y0072711D01*
X0126321Y0072542D01*
X0126055Y0072379D01*
X0125785Y0072222D01*
X0125511Y0072072D01*
X0125234Y0071929D01*
X0124954Y0071792D01*
X0124670Y0071663D01*
X0124383Y0071540D01*
X0124093Y0071425D01*
X0123800Y0071317D01*
X0123505Y0071215D01*
X0123207Y0071121D01*
X0122907Y0071035D01*
X0122606Y0070956D01*
X0122302Y0070884D01*
X0121997Y0070819D01*
X0121690Y0070762D01*
X0121382Y0070713D01*
X0121072Y0070671D01*
X0120762Y0070637D01*
X0120451Y0070610D01*
X0120140Y0070591D01*
X0119828Y0070580D01*
X0119516Y0070576D01*
X0119204Y0070580D01*
X0118892Y0070591D01*
X0118581Y0070610D01*
X0118270Y0070637D01*
X0117960Y0070671D01*
X0117650Y0070713D01*
X0117342Y0070762D01*
X0117035Y0070819D01*
X0116730Y0070884D01*
X0116426Y0070956D01*
X0116125Y0071035D01*
X0115825Y0071121D01*
X0115527Y0071215D01*
X0115232Y0071317D01*
X0114939Y0071425D01*
X0114649Y0071540D01*
X0114362Y0071663D01*
X0114078Y0071792D01*
X0113798Y0071929D01*
X0113521Y0072072D01*
X0113247Y0072222D01*
X0112977Y0072379D01*
X0112711Y0072542D01*
X0112449Y0072711D01*
X0112191Y0072887D01*
X0111938Y0073070D01*
X0111689Y0073258D01*
X0111445Y0073452D01*
X0111206Y0073653D01*
X0110971Y0073859D01*
X0110742Y0074070D01*
X0110518Y0074288D01*
X0110300Y0074510D01*
X0110087Y0074738D01*
X0109879Y0074971D01*
X0109677Y0075210D01*
X0109482Y0075453D01*
X0109292Y0075700D01*
X0109108Y0075953D01*
X0108931Y0076209D01*
X0108760Y0076470D01*
X0108595Y0076735D01*
X0108437Y0077004D01*
X0108285Y0077277D01*
X0108140Y0077553D01*
X0108002Y0077833D01*
X0107871Y0078116D01*
X0107747Y0078403D01*
X0107630Y0078692D01*
X0107520Y0078984D01*
X0107417Y0079279D01*
X0107321Y0079576D01*
X0107233Y0079875D01*
X0107152Y0080176D01*
X0107078Y0080480D01*
X0107012Y0080784D01*
X0106953Y0081091D01*
X0106902Y0081399D01*
X0106859Y0081708D01*
X0106822Y0082018D01*
X0106794Y0082329D01*
X0106773Y0082640D01*
X0106760Y0082952D01*
X0106754Y0083264D01*
X0106756Y0083576D01*
X0106766Y0083888D01*
X0106783Y0084199D01*
X0106808Y0084510D01*
X0106840Y0084821D01*
X0106880Y0085130D01*
X0106928Y0085439D01*
X0106983Y0085746D01*
X0107046Y0086051D01*
X0107116Y0086355D01*
X0107193Y0086658D01*
X0107278Y0086958D01*
X0107370Y0087256D01*
X0107470Y0087552D01*
X0107576Y0087845D01*
X0107690Y0088136D01*
X0107811Y0088424D01*
X0107939Y0088708D01*
X0108074Y0088990D01*
X0108215Y0089268D01*
X0108364Y0089542D01*
X0108519Y0089813D01*
X0108680Y0090080D01*
X0108848Y0090343D01*
X0109023Y0090602D01*
X0109204Y0090856D01*
X0109390Y0091106D01*
X0109583Y0091351D01*
X0109782Y0091592D01*
X0109987Y0091827D01*
X0110197Y0092058D01*
X0110413Y0092283D01*
X0110635Y0092503D01*
X0110862Y0092717D01*
X0111093Y0092926D01*
X0111330Y0093129D01*
X0111572Y0093326D01*
X0111819Y0093518D01*
X0111875Y0093442D01*
X0111630Y0093252D01*
X0111390Y0093057D01*
X0111155Y0092855D01*
X0110925Y0092648D01*
X0110700Y0092435D01*
X0110480Y0092217D01*
X0110266Y0091993D01*
X0110057Y0091764D01*
X0109854Y0091531D01*
X0109656Y0091292D01*
X0109465Y0091049D01*
X0109279Y0090800D01*
X0109100Y0090548D01*
X0108927Y0090291D01*
X0108760Y0090030D01*
X0108599Y0089765D01*
X0108446Y0089496D01*
X0108298Y0089224D01*
X0108158Y0088948D01*
X0108024Y0088668D01*
X0107897Y0088386D01*
X0107777Y0088100D01*
X0107664Y0087812D01*
X0107558Y0087521D01*
X0107460Y0087227D01*
X0107368Y0086931D01*
X0107284Y0086633D01*
X0107207Y0086333D01*
X0107138Y0086031D01*
X0107075Y0085728D01*
X0107021Y0085423D01*
X0106973Y0085117D01*
X0106934Y0084809D01*
X0106902Y0084501D01*
X0106877Y0084193D01*
X0106860Y0083883D01*
X0106850Y0083574D01*
X0106848Y0083264D01*
X0106854Y0082954D01*
X0106867Y0082645D01*
X0106888Y0082336D01*
X0106916Y0082027D01*
X0106952Y0081720D01*
X0106995Y0081413D01*
X0107046Y0081107D01*
X0107104Y0080803D01*
X0107170Y0080500D01*
X0107243Y0080199D01*
X0107323Y0079900D01*
X0107411Y0079603D01*
X0107506Y0079308D01*
X0107608Y0079016D01*
X0107717Y0078726D01*
X0107834Y0078439D01*
X0107957Y0078155D01*
X0108087Y0077874D01*
X0108224Y0077596D01*
X0108368Y0077322D01*
X0108518Y0077051D01*
X0108675Y0076784D01*
X0108839Y0076521D01*
X0109009Y0076262D01*
X0109185Y0076007D01*
X0109367Y0075756D01*
X0109556Y0075511D01*
X0109750Y0075269D01*
X0109950Y0075033D01*
X0110156Y0074802D01*
X0110368Y0074575D01*
X0110585Y0074354D01*
X0110807Y0074139D01*
X0111034Y0073928D01*
X0111267Y0073724D01*
X0111505Y0073525D01*
X0111747Y0073332D01*
X0111994Y0073145D01*
X0112245Y0072964D01*
X0112501Y0072790D01*
X0112761Y0072621D01*
X0113025Y0072459D01*
X0113293Y0072304D01*
X0113565Y0072155D01*
X0113840Y0072013D01*
X0114119Y0071877D01*
X0114400Y0071749D01*
X0114685Y0071627D01*
X0114973Y0071513D01*
X0115264Y0071405D01*
X0115557Y0071305D01*
X0115852Y0071211D01*
X0116150Y0071125D01*
X0116449Y0071047D01*
X0116751Y0070976D01*
X0117054Y0070912D01*
X0117358Y0070855D01*
X0117664Y0070806D01*
X0117971Y0070765D01*
X0118279Y0070731D01*
X0118588Y0070704D01*
X0118897Y0070685D01*
X0119206Y0070674D01*
X0119516Y0070670D01*
X0119826Y0070674D01*
X0120135Y0070685D01*
X0120444Y0070704D01*
X0120753Y0070731D01*
X0121061Y0070765D01*
X0121368Y0070806D01*
X0121674Y0070855D01*
X0121978Y0070912D01*
X0122281Y0070976D01*
X0122583Y0071047D01*
X0122882Y0071125D01*
X0123180Y0071211D01*
X0123475Y0071305D01*
X0123768Y0071405D01*
X0124059Y0071513D01*
X0124347Y0071627D01*
X0124632Y0071749D01*
X0124913Y0071877D01*
X0125192Y0072013D01*
X0125467Y0072155D01*
X0125739Y0072304D01*
X0126007Y0072459D01*
X0126271Y0072621D01*
X0126531Y0072790D01*
X0126787Y0072964D01*
X0127038Y0073145D01*
X0127285Y0073332D01*
X0127527Y0073525D01*
X0127765Y0073724D01*
X0127998Y0073928D01*
X0128225Y0074139D01*
X0128447Y0074354D01*
X0128664Y0074575D01*
X0128876Y0074802D01*
X0129082Y0075033D01*
X0129282Y0075269D01*
X0129476Y0075511D01*
X0129665Y0075756D01*
X0129847Y0076007D01*
X0130023Y0076262D01*
X0130193Y0076521D01*
X0130357Y0076784D01*
X0130514Y0077051D01*
X0130664Y0077322D01*
X0130808Y0077596D01*
X0130945Y0077874D01*
X0131075Y0078155D01*
X0131198Y0078439D01*
X0131315Y0078726D01*
X0131424Y0079016D01*
X0131526Y0079308D01*
X0131621Y0079603D01*
X0131709Y0079900D01*
X0131789Y0080199D01*
X0131862Y0080500D01*
X0131928Y0080803D01*
X0131986Y0081107D01*
X0132037Y0081413D01*
X0132080Y0081720D01*
X0132116Y0082027D01*
X0132144Y0082336D01*
X0132165Y0082645D01*
X0132178Y0082954D01*
X0132184Y0083264D01*
X0132182Y0083574D01*
X0132172Y0083883D01*
X0132155Y0084193D01*
X0132130Y0084501D01*
X0132098Y0084809D01*
X0132059Y0085117D01*
X0132011Y0085423D01*
X0131957Y0085728D01*
X0131894Y0086031D01*
X0131825Y0086333D01*
X0131748Y0086633D01*
X0131664Y0086931D01*
X0131572Y0087227D01*
X0131474Y0087521D01*
X0131368Y0087812D01*
X0131255Y0088100D01*
X0131135Y0088386D01*
X0131008Y0088668D01*
X0130874Y0088948D01*
X0130734Y0089224D01*
X0130586Y0089496D01*
X0130433Y0089765D01*
X0130272Y0090030D01*
X0130105Y0090291D01*
X0129932Y0090548D01*
X0129753Y0090800D01*
X0129567Y0091049D01*
X0129376Y0091292D01*
X0129178Y0091531D01*
X0128975Y0091764D01*
X0128766Y0091993D01*
X0128552Y0092217D01*
X0128332Y0092435D01*
X0128107Y0092648D01*
X0127877Y0092855D01*
X0127642Y0093057D01*
X0127402Y0093252D01*
X0127157Y0093442D01*
X0127100Y0093367D01*
X0127343Y0093179D01*
X0127582Y0092984D01*
X0127815Y0092784D01*
X0128043Y0092579D01*
X0128267Y0092367D01*
X0128485Y0092151D01*
X0128698Y0091929D01*
X0128905Y0091702D01*
X0129107Y0091470D01*
X0129303Y0091233D01*
X0129493Y0090991D01*
X0129677Y0090745D01*
X0129855Y0090494D01*
X0130027Y0090239D01*
X0130192Y0089980D01*
X0130352Y0089717D01*
X0130504Y0089450D01*
X0130651Y0089180D01*
X0130790Y0088906D01*
X0130923Y0088629D01*
X0131049Y0088348D01*
X0131168Y0088065D01*
X0131280Y0087778D01*
X0131385Y0087489D01*
X0131483Y0087198D01*
X0131574Y0086904D01*
X0131657Y0086608D01*
X0131734Y0086311D01*
X0131803Y0086011D01*
X0131864Y0085710D01*
X0131919Y0085407D01*
X0131965Y0085103D01*
X0132005Y0084798D01*
X0132037Y0084493D01*
X0132061Y0084186D01*
X0132078Y0083879D01*
X0132088Y0083572D01*
X0132090Y0083264D01*
X0132084Y0082957D01*
X0132071Y0082650D01*
X0132051Y0082343D01*
X0132022Y0082037D01*
X0131987Y0081731D01*
X0131944Y0081427D01*
X0131893Y0081124D01*
X0131836Y0080822D01*
X0131770Y0080521D01*
X0131698Y0080222D01*
X0131618Y0079926D01*
X0131531Y0079631D01*
X0131437Y0079338D01*
X0131335Y0079048D01*
X0131227Y0078760D01*
X0131112Y0078475D01*
X0130989Y0078193D01*
X0130860Y0077914D01*
X0130724Y0077638D01*
X0130581Y0077366D01*
X0130432Y0077097D01*
X0130276Y0076832D01*
X0130114Y0076571D01*
X0129945Y0076314D01*
X0129770Y0076061D01*
X0129589Y0075813D01*
X0129402Y0075569D01*
X0129209Y0075329D01*
X0129011Y0075095D01*
X0128806Y0074865D01*
X0128596Y0074640D01*
X0128381Y0074421D01*
X0128160Y0074207D01*
X0127935Y0073998D01*
X0127704Y0073795D01*
X0127468Y0073598D01*
X0127227Y0073406D01*
X0126982Y0073221D01*
X0126733Y0073041D01*
X0126479Y0072868D01*
X0126221Y0072701D01*
X0125959Y0072540D01*
X0125693Y0072386D01*
X0125423Y0072238D01*
X0125150Y0072097D01*
X0124873Y0071962D01*
X0124594Y0071835D01*
X0124311Y0071714D01*
X0124025Y0071600D01*
X0123737Y0071494D01*
X0123446Y0071394D01*
X0123153Y0071301D01*
X0122857Y0071216D01*
X0122560Y0071138D01*
X0122261Y0071067D01*
X0121960Y0071004D01*
X0121658Y0070948D01*
X0121354Y0070899D01*
X0121049Y0070858D01*
X0120744Y0070824D01*
X0120438Y0070798D01*
X0120131Y0070779D01*
X0119823Y0070768D01*
X0119516Y0070764D01*
X0119209Y0070768D01*
X0118901Y0070779D01*
X0118594Y0070798D01*
X0118288Y0070824D01*
X0117983Y0070858D01*
X0117678Y0070899D01*
X0117374Y0070948D01*
X0117072Y0071004D01*
X0116771Y0071067D01*
X0116472Y0071138D01*
X0116175Y0071216D01*
X0115879Y0071301D01*
X0115586Y0071394D01*
X0115295Y0071494D01*
X0115007Y0071600D01*
X0114721Y0071714D01*
X0114438Y0071835D01*
X0114159Y0071962D01*
X0113882Y0072097D01*
X0113609Y0072238D01*
X0113339Y0072386D01*
X0113073Y0072540D01*
X0112811Y0072701D01*
X0112553Y0072868D01*
X0112299Y0073041D01*
X0112050Y0073221D01*
X0111805Y0073406D01*
X0111564Y0073598D01*
X0111328Y0073795D01*
X0111097Y0073998D01*
X0110872Y0074207D01*
X0110651Y0074421D01*
X0110436Y0074640D01*
X0110226Y0074865D01*
X0110021Y0075095D01*
X0109823Y0075329D01*
X0109630Y0075569D01*
X0109443Y0075813D01*
X0109262Y0076061D01*
X0109087Y0076314D01*
X0108918Y0076571D01*
X0108756Y0076832D01*
X0108600Y0077097D01*
X0108451Y0077366D01*
X0108308Y0077638D01*
X0108172Y0077914D01*
X0108043Y0078193D01*
X0107920Y0078475D01*
X0107805Y0078760D01*
X0107697Y0079048D01*
X0107595Y0079338D01*
X0107501Y0079631D01*
X0107414Y0079926D01*
X0107334Y0080222D01*
X0107262Y0080521D01*
X0107196Y0080822D01*
X0107139Y0081124D01*
X0107088Y0081427D01*
X0107045Y0081731D01*
X0107010Y0082037D01*
X0106981Y0082343D01*
X0106961Y0082650D01*
X0106948Y0082957D01*
X0106942Y0083264D01*
X0106944Y0083572D01*
X0106954Y0083879D01*
X0106971Y0084186D01*
X0106995Y0084493D01*
X0107027Y0084798D01*
X0107067Y0085103D01*
X0107113Y0085407D01*
X0107168Y0085710D01*
X0107229Y0086011D01*
X0107298Y0086311D01*
X0107375Y0086608D01*
X0107458Y0086904D01*
X0107549Y0087198D01*
X0107647Y0087489D01*
X0107752Y0087778D01*
X0107864Y0088065D01*
X0107983Y0088348D01*
X0108109Y0088629D01*
X0108242Y0088906D01*
X0108381Y0089180D01*
X0108528Y0089450D01*
X0108680Y0089717D01*
X0108840Y0089980D01*
X0109005Y0090239D01*
X0109177Y0090494D01*
X0109355Y0090745D01*
X0109539Y0090991D01*
X0109729Y0091233D01*
X0109925Y0091470D01*
X0110127Y0091702D01*
X0110334Y0091929D01*
X0110547Y0092151D01*
X0110765Y0092367D01*
X0110989Y0092579D01*
X0111217Y0092784D01*
X0111450Y0092984D01*
X0111689Y0093179D01*
X0111932Y0093367D01*
X0111988Y0093292D01*
X0111747Y0093105D01*
X0111510Y0092912D01*
X0111279Y0092713D01*
X0111052Y0092509D01*
X0110830Y0092300D01*
X0110614Y0092085D01*
X0110403Y0091864D01*
X0110197Y0091639D01*
X0109997Y0091409D01*
X0109802Y0091173D01*
X0109614Y0090934D01*
X0109431Y0090689D01*
X0109254Y0090440D01*
X0109084Y0090187D01*
X0108919Y0089930D01*
X0108761Y0089669D01*
X0108610Y0089404D01*
X0108465Y0089136D01*
X0108326Y0088864D01*
X0108194Y0088589D01*
X0108069Y0088310D01*
X0107951Y0088029D01*
X0107840Y0087745D01*
X0107736Y0087458D01*
X0107638Y0087169D01*
X0107548Y0086877D01*
X0107465Y0086584D01*
X0107390Y0086288D01*
X0107321Y0085991D01*
X0107260Y0085692D01*
X0107206Y0085391D01*
X0107160Y0085090D01*
X0107120Y0084787D01*
X0107089Y0084484D01*
X0107064Y0084179D01*
X0107048Y0083875D01*
X0107038Y0083570D01*
X0107036Y0083265D01*
X0107042Y0082960D01*
X0107055Y0082655D01*
X0107075Y0082350D01*
X0107103Y0082046D01*
X0107138Y0081743D01*
X0107181Y0081441D01*
X0107231Y0081140D01*
X0107288Y0080840D01*
X0107353Y0080542D01*
X0107425Y0080246D01*
X0107504Y0079951D01*
X0107591Y0079658D01*
X0107684Y0079368D01*
X0107785Y0079080D01*
X0107893Y0078794D01*
X0108007Y0078511D01*
X0108129Y0078231D01*
X0108257Y0077954D01*
X0108392Y0077681D01*
X0108533Y0077411D01*
X0108682Y0077144D01*
X0108836Y0076881D01*
X0108997Y0076622D01*
X0109165Y0076366D01*
X0109338Y0076115D01*
X0109518Y0075869D01*
X0109704Y0075627D01*
X0109895Y0075389D01*
X0110092Y0075156D01*
X0110295Y0074928D01*
X0110504Y0074705D01*
X0110717Y0074487D01*
X0110936Y0074275D01*
X0111160Y0074068D01*
X0111390Y0073866D01*
X0111624Y0073670D01*
X0111862Y0073480D01*
X0112106Y0073296D01*
X0112353Y0073118D01*
X0112605Y0072946D01*
X0112862Y0072780D01*
X0113122Y0072621D01*
X0113386Y0072467D01*
X0113653Y0072321D01*
X0113924Y0072181D01*
X0114199Y0072047D01*
X0114476Y0071921D01*
X0114757Y0071801D01*
X0115041Y0071688D01*
X0115327Y0071582D01*
X0115615Y0071483D01*
X0115906Y0071391D01*
X0116200Y0071307D01*
X0116495Y0071229D01*
X0116792Y0071159D01*
X0117090Y0071096D01*
X0117390Y0071040D01*
X0117692Y0070992D01*
X0117994Y0070951D01*
X0118297Y0070918D01*
X0118601Y0070892D01*
X0118906Y0070873D01*
X0119211Y0070862D01*
X0119516Y0070858D01*
X0119821Y0070862D01*
X0120126Y0070873D01*
X0120431Y0070892D01*
X0120735Y0070918D01*
X0121038Y0070951D01*
X0121340Y0070992D01*
X0121642Y0071040D01*
X0121942Y0071096D01*
X0122240Y0071159D01*
X0122537Y0071229D01*
X0122832Y0071307D01*
X0123126Y0071391D01*
X0123417Y0071483D01*
X0123705Y0071582D01*
X0123991Y0071688D01*
X0124275Y0071801D01*
X0124556Y0071921D01*
X0124833Y0072047D01*
X0125108Y0072181D01*
X0125379Y0072321D01*
X0125646Y0072467D01*
X0125910Y0072621D01*
X0126170Y0072780D01*
X0126427Y0072946D01*
X0126679Y0073118D01*
X0126926Y0073296D01*
X0127170Y0073480D01*
X0127408Y0073670D01*
X0127642Y0073866D01*
X0127872Y0074068D01*
X0128096Y0074275D01*
X0128315Y0074487D01*
X0128528Y0074705D01*
X0128737Y0074928D01*
X0128940Y0075156D01*
X0129137Y0075389D01*
X0129328Y0075627D01*
X0129514Y0075869D01*
X0129694Y0076115D01*
X0129867Y0076366D01*
X0130035Y0076622D01*
X0130196Y0076881D01*
X0130350Y0077144D01*
X0130499Y0077411D01*
X0130640Y0077681D01*
X0130775Y0077954D01*
X0130903Y0078231D01*
X0131025Y0078511D01*
X0131139Y0078794D01*
X0131247Y0079080D01*
X0131348Y0079368D01*
X0131441Y0079658D01*
X0131528Y0079951D01*
X0131607Y0080246D01*
X0131679Y0080542D01*
X0131744Y0080840D01*
X0131801Y0081140D01*
X0131851Y0081441D01*
X0131894Y0081743D01*
X0131929Y0082046D01*
X0131957Y0082350D01*
X0131977Y0082655D01*
X0131990Y0082960D01*
X0131996Y0083265D01*
X0131994Y0083570D01*
X0131984Y0083875D01*
X0131968Y0084179D01*
X0131943Y0084484D01*
X0131912Y0084787D01*
X0131872Y0085090D01*
X0131826Y0085391D01*
X0131772Y0085692D01*
X0131711Y0085991D01*
X0131642Y0086288D01*
X0131567Y0086584D01*
X0131484Y0086877D01*
X0131394Y0087169D01*
X0131296Y0087458D01*
X0131192Y0087745D01*
X0131081Y0088029D01*
X0130963Y0088310D01*
X0130838Y0088589D01*
X0130706Y0088864D01*
X0130567Y0089136D01*
X0130422Y0089404D01*
X0130271Y0089669D01*
X0130113Y0089930D01*
X0129948Y0090187D01*
X0129778Y0090440D01*
X0129601Y0090689D01*
X0129418Y0090934D01*
X0129230Y0091173D01*
X0129035Y0091409D01*
X0128835Y0091639D01*
X0128629Y0091864D01*
X0128418Y0092085D01*
X0128202Y0092300D01*
X0127980Y0092509D01*
X0127753Y0092713D01*
X0127522Y0092912D01*
X0127285Y0093105D01*
X0127044Y0093292D01*
X0126988Y0093217D01*
X0127227Y0093031D01*
X0127462Y0092840D01*
X0127691Y0092643D01*
X0127916Y0092440D01*
X0128137Y0092232D01*
X0128351Y0092018D01*
X0128561Y0091800D01*
X0128765Y0091576D01*
X0128964Y0091348D01*
X0129157Y0091114D01*
X0129344Y0090876D01*
X0129525Y0090634D01*
X0129701Y0090387D01*
X0129870Y0090136D01*
X0130033Y0089880D01*
X0130190Y0089621D01*
X0130340Y0089358D01*
X0130484Y0089092D01*
X0130622Y0088822D01*
X0130753Y0088549D01*
X0130877Y0088273D01*
X0130994Y0087993D01*
X0131104Y0087711D01*
X0131208Y0087427D01*
X0131304Y0087140D01*
X0131394Y0086850D01*
X0131476Y0086559D01*
X0131551Y0086266D01*
X0131619Y0085970D01*
X0131680Y0085674D01*
X0131733Y0085376D01*
X0131779Y0085076D01*
X0131818Y0084776D01*
X0131850Y0084475D01*
X0131874Y0084173D01*
X0131891Y0083870D01*
X0131900Y0083568D01*
X0131902Y0083265D01*
X0131896Y0082962D01*
X0131883Y0082660D01*
X0131863Y0082357D01*
X0131835Y0082056D01*
X0131800Y0081755D01*
X0131758Y0081455D01*
X0131708Y0081156D01*
X0131651Y0080859D01*
X0131587Y0080563D01*
X0131516Y0080269D01*
X0131437Y0079976D01*
X0131351Y0079686D01*
X0131258Y0079397D01*
X0131159Y0079112D01*
X0131052Y0078828D01*
X0130938Y0078548D01*
X0130818Y0078270D01*
X0130690Y0077995D01*
X0130556Y0077723D01*
X0130416Y0077455D01*
X0130269Y0077190D01*
X0130115Y0076929D01*
X0129955Y0076672D01*
X0129789Y0076419D01*
X0129617Y0076170D01*
X0129439Y0075925D01*
X0129254Y0075684D01*
X0129064Y0075449D01*
X0128869Y0075218D01*
X0128667Y0074991D01*
X0128461Y0074770D01*
X0128248Y0074554D01*
X0128031Y0074343D01*
X0127809Y0074138D01*
X0127581Y0073938D01*
X0127349Y0073743D01*
X0127112Y0073555D01*
X0126870Y0073372D01*
X0126625Y0073195D01*
X0126374Y0073024D01*
X0126120Y0072860D01*
X0125862Y0072701D01*
X0125600Y0072549D01*
X0125335Y0072404D01*
X0125066Y0072265D01*
X0124793Y0072132D01*
X0124518Y0072007D01*
X0124239Y0071888D01*
X0123958Y0071776D01*
X0123674Y0071671D01*
X0123387Y0071572D01*
X0123098Y0071481D01*
X0122807Y0071397D01*
X0122514Y0071320D01*
X0122220Y0071251D01*
X0121923Y0071188D01*
X0121626Y0071133D01*
X0121327Y0071085D01*
X0121027Y0071044D01*
X0120725Y0071011D01*
X0120424Y0070985D01*
X0120121Y0070967D01*
X0119819Y0070956D01*
X0119516Y0070952D01*
X0119213Y0070956D01*
X0118911Y0070967D01*
X0118608Y0070985D01*
X0118307Y0071011D01*
X0118005Y0071044D01*
X0117705Y0071085D01*
X0117406Y0071133D01*
X0117109Y0071188D01*
X0116812Y0071251D01*
X0116518Y0071320D01*
X0116225Y0071397D01*
X0115934Y0071481D01*
X0115645Y0071572D01*
X0115358Y0071671D01*
X0115074Y0071776D01*
X0114793Y0071888D01*
X0114514Y0072007D01*
X0114239Y0072132D01*
X0113966Y0072265D01*
X0113697Y0072404D01*
X0113432Y0072549D01*
X0113170Y0072701D01*
X0112912Y0072860D01*
X0112658Y0073024D01*
X0112407Y0073195D01*
X0112162Y0073372D01*
X0111920Y0073555D01*
X0111683Y0073743D01*
X0111451Y0073938D01*
X0111223Y0074138D01*
X0111001Y0074343D01*
X0110784Y0074554D01*
X0110571Y0074770D01*
X0110365Y0074991D01*
X0110163Y0075218D01*
X0109968Y0075449D01*
X0109778Y0075684D01*
X0109593Y0075925D01*
X0109415Y0076170D01*
X0109243Y0076419D01*
X0109077Y0076672D01*
X0108917Y0076929D01*
X0108763Y0077190D01*
X0108616Y0077455D01*
X0108476Y0077723D01*
X0108342Y0077995D01*
X0108214Y0078270D01*
X0108094Y0078548D01*
X0107980Y0078828D01*
X0107873Y0079112D01*
X0107774Y0079397D01*
X0107681Y0079686D01*
X0107595Y0079976D01*
X0107516Y0080269D01*
X0107445Y0080563D01*
X0107381Y0080859D01*
X0107324Y0081156D01*
X0107274Y0081455D01*
X0107232Y0081755D01*
X0107197Y0082056D01*
X0107169Y0082357D01*
X0107149Y0082660D01*
X0107136Y0082962D01*
X0107130Y0083265D01*
X0107132Y0083568D01*
X0107141Y0083870D01*
X0107158Y0084173D01*
X0107182Y0084475D01*
X0107214Y0084776D01*
X0107253Y0085076D01*
X0107299Y0085376D01*
X0107352Y0085674D01*
X0107413Y0085970D01*
X0107481Y0086266D01*
X0107556Y0086559D01*
X0107638Y0086850D01*
X0107728Y0087140D01*
X0107824Y0087427D01*
X0107928Y0087711D01*
X0108038Y0087993D01*
X0108155Y0088273D01*
X0108279Y0088549D01*
X0108410Y0088822D01*
X0108548Y0089092D01*
X0108692Y0089358D01*
X0108842Y0089621D01*
X0108999Y0089880D01*
X0109162Y0090136D01*
X0109331Y0090387D01*
X0109507Y0090634D01*
X0109688Y0090876D01*
X0109875Y0091114D01*
X0110068Y0091348D01*
X0110267Y0091576D01*
X0110471Y0091800D01*
X0110681Y0092018D01*
X0110895Y0092232D01*
X0111116Y0092440D01*
X0111341Y0092643D01*
X0111570Y0092840D01*
X0111805Y0093031D01*
X0112044Y0093217D01*
X0112101Y0093142D01*
X0111863Y0092957D01*
X0111631Y0092767D01*
X0111402Y0092572D01*
X0111179Y0092371D01*
X0110961Y0092164D01*
X0110747Y0091952D01*
X0110539Y0091735D01*
X0110337Y0091513D01*
X0110140Y0091286D01*
X0109948Y0091055D01*
X0109762Y0090819D01*
X0109582Y0090578D01*
X0109408Y0090333D01*
X0109240Y0090084D01*
X0109078Y0089830D01*
X0108923Y0089573D01*
X0108774Y0089312D01*
X0108631Y0089048D01*
X0108494Y0088780D01*
X0108365Y0088509D01*
X0108242Y0088235D01*
X0108125Y0087958D01*
X0108016Y0087678D01*
X0107913Y0087395D01*
X0107817Y0087111D01*
X0107729Y0086823D01*
X0107647Y0086534D01*
X0107572Y0086243D01*
X0107505Y0085950D01*
X0107444Y0085656D01*
X0107391Y0085360D01*
X0107346Y0085063D01*
X0107307Y0084765D01*
X0107276Y0084466D01*
X0107252Y0084166D01*
X0107235Y0083866D01*
X0107226Y0083566D01*
X0107224Y0083265D01*
X0107230Y0082965D01*
X0107242Y0082664D01*
X0107263Y0082365D01*
X0107290Y0082065D01*
X0107325Y0081767D01*
X0107367Y0081469D01*
X0107416Y0081173D01*
X0107473Y0080878D01*
X0107537Y0080584D01*
X0107607Y0080292D01*
X0107685Y0080002D01*
X0107771Y0079713D01*
X0107863Y0079427D01*
X0107962Y0079143D01*
X0108068Y0078862D01*
X0108181Y0078584D01*
X0108300Y0078308D01*
X0108427Y0078035D01*
X0108560Y0077766D01*
X0108699Y0077500D01*
X0108845Y0077237D01*
X0108997Y0076978D01*
X0109156Y0076722D01*
X0109321Y0076471D01*
X0109492Y0076224D01*
X0109669Y0075981D01*
X0109852Y0075742D01*
X0110040Y0075508D01*
X0110234Y0075279D01*
X0110434Y0075055D01*
X0110639Y0074835D01*
X0110850Y0074621D01*
X0111066Y0074411D01*
X0111286Y0074207D01*
X0111512Y0074009D01*
X0111743Y0073816D01*
X0111978Y0073629D01*
X0112217Y0073447D01*
X0112461Y0073272D01*
X0112710Y0073102D01*
X0112962Y0072939D01*
X0113218Y0072782D01*
X0113478Y0072631D01*
X0113742Y0072487D01*
X0114009Y0072349D01*
X0114279Y0072217D01*
X0114552Y0072093D01*
X0114829Y0071975D01*
X0115108Y0071864D01*
X0115390Y0071759D01*
X0115674Y0071662D01*
X0115961Y0071571D01*
X0116250Y0071488D01*
X0116540Y0071412D01*
X0116833Y0071342D01*
X0117127Y0071280D01*
X0117422Y0071226D01*
X0117719Y0071178D01*
X0118017Y0071138D01*
X0118316Y0071105D01*
X0118615Y0071079D01*
X0118915Y0071061D01*
X0119215Y0071050D01*
X0119516Y0071046D01*
X0119817Y0071050D01*
X0120117Y0071061D01*
X0120417Y0071079D01*
X0120716Y0071105D01*
X0121015Y0071138D01*
X0121313Y0071178D01*
X0121610Y0071226D01*
X0121905Y0071280D01*
X0122199Y0071342D01*
X0122492Y0071412D01*
X0122782Y0071488D01*
X0123071Y0071571D01*
X0123358Y0071662D01*
X0123642Y0071759D01*
X0123924Y0071864D01*
X0124203Y0071975D01*
X0124480Y0072093D01*
X0124753Y0072217D01*
X0125023Y0072349D01*
X0125290Y0072487D01*
X0125554Y0072631D01*
X0125814Y0072782D01*
X0126070Y0072939D01*
X0126322Y0073102D01*
X0126571Y0073272D01*
X0126815Y0073447D01*
X0127054Y0073629D01*
X0127289Y0073816D01*
X0127520Y0074009D01*
X0127746Y0074207D01*
X0127966Y0074411D01*
X0128182Y0074621D01*
X0128393Y0074835D01*
X0128598Y0075055D01*
X0128798Y0075279D01*
X0128992Y0075508D01*
X0129180Y0075742D01*
X0129363Y0075981D01*
X0129540Y0076224D01*
X0129711Y0076471D01*
X0129876Y0076722D01*
X0130035Y0076978D01*
X0130187Y0077237D01*
X0130333Y0077500D01*
X0130472Y0077766D01*
X0130605Y0078035D01*
X0130732Y0078308D01*
X0130851Y0078584D01*
X0130964Y0078862D01*
X0131070Y0079143D01*
X0131169Y0079427D01*
X0131261Y0079713D01*
X0131347Y0080002D01*
X0131425Y0080292D01*
X0131495Y0080584D01*
X0131559Y0080878D01*
X0131616Y0081173D01*
X0131665Y0081469D01*
X0131707Y0081767D01*
X0131742Y0082065D01*
X0131769Y0082365D01*
X0131790Y0082664D01*
X0131802Y0082965D01*
X0131808Y0083265D01*
X0131806Y0083566D01*
X0131797Y0083866D01*
X0131780Y0084166D01*
X0131756Y0084466D01*
X0131725Y0084765D01*
X0131686Y0085063D01*
X0131641Y0085360D01*
X0131588Y0085656D01*
X0131527Y0085950D01*
X0131460Y0086243D01*
X0131385Y0086534D01*
X0131303Y0086823D01*
X0131215Y0087111D01*
X0131119Y0087395D01*
X0131016Y0087678D01*
X0130907Y0087958D01*
X0130790Y0088235D01*
X0130667Y0088509D01*
X0130538Y0088780D01*
X0130401Y0089048D01*
X0130258Y0089312D01*
X0130109Y0089573D01*
X0129954Y0089830D01*
X0129792Y0090084D01*
X0129624Y0090333D01*
X0129450Y0090578D01*
X0129270Y0090819D01*
X0129084Y0091055D01*
X0128892Y0091286D01*
X0128695Y0091513D01*
X0128493Y0091735D01*
X0128285Y0091952D01*
X0128071Y0092164D01*
X0127853Y0092371D01*
X0127630Y0092572D01*
X0127401Y0092767D01*
X0127169Y0092957D01*
X0126931Y0093142D01*
X0126875Y0093066D01*
X0127110Y0092884D01*
X0127341Y0092695D01*
X0127568Y0092501D01*
X0127790Y0092301D01*
X0128006Y0092096D01*
X0128218Y0091886D01*
X0128424Y0091671D01*
X0128625Y0091451D01*
X0128821Y0091225D01*
X0129011Y0090996D01*
X0129195Y0090761D01*
X0129374Y0090522D01*
X0129547Y0090279D01*
X0129713Y0090032D01*
X0129874Y0089780D01*
X0130028Y0089525D01*
X0130176Y0089266D01*
X0130318Y0089004D01*
X0130453Y0088738D01*
X0130582Y0088469D01*
X0130704Y0088197D01*
X0130820Y0087922D01*
X0130929Y0087644D01*
X0131030Y0087364D01*
X0131125Y0087081D01*
X0131213Y0086796D01*
X0131294Y0086509D01*
X0131369Y0086221D01*
X0131435Y0085930D01*
X0131495Y0085638D01*
X0131548Y0085344D01*
X0131593Y0085049D01*
X0131632Y0084754D01*
X0131663Y0084457D01*
X0131686Y0084160D01*
X0131703Y0083862D01*
X0131712Y0083564D01*
X0131714Y0083266D01*
X0131708Y0082967D01*
X0131696Y0082669D01*
X0131676Y0082372D01*
X0131648Y0082075D01*
X0131614Y0081779D01*
X0131572Y0081483D01*
X0131523Y0081189D01*
X0131467Y0080896D01*
X0131404Y0080605D01*
X0131333Y0080315D01*
X0131256Y0080027D01*
X0131172Y0079741D01*
X0131080Y0079457D01*
X0130982Y0079175D01*
X0130877Y0078896D01*
X0130765Y0078620D01*
X0130646Y0078346D01*
X0130521Y0078076D01*
X0130389Y0077808D01*
X0130250Y0077544D01*
X0130105Y0077283D01*
X0129954Y0077026D01*
X0129797Y0076773D01*
X0129633Y0076524D01*
X0129463Y0076278D01*
X0129288Y0076037D01*
X0129106Y0075800D01*
X0128919Y0075568D01*
X0128727Y0075341D01*
X0128528Y0075118D01*
X0128325Y0074900D01*
X0128116Y0074687D01*
X0127902Y0074479D01*
X0127682Y0074277D01*
X0127459Y0074080D01*
X0127230Y0073889D01*
X0126996Y0073703D01*
X0126759Y0073523D01*
X0126517Y0073349D01*
X0126270Y0073181D01*
X0126020Y0073019D01*
X0125766Y0072863D01*
X0125508Y0072713D01*
X0125246Y0072570D01*
X0124981Y0072433D01*
X0124713Y0072302D01*
X0124442Y0072179D01*
X0124167Y0072062D01*
X0123890Y0071951D01*
X0123610Y0071848D01*
X0123328Y0071751D01*
X0123044Y0071661D01*
X0122757Y0071579D01*
X0122469Y0071503D01*
X0122179Y0071434D01*
X0121887Y0071373D01*
X0121594Y0071318D01*
X0121299Y0071271D01*
X0121004Y0071231D01*
X0120707Y0071198D01*
X0120410Y0071173D01*
X0120112Y0071155D01*
X0119814Y0071144D01*
X0119516Y0071140D01*
X0119218Y0071144D01*
X0118920Y0071155D01*
X0118622Y0071173D01*
X0118325Y0071198D01*
X0118028Y0071231D01*
X0117733Y0071271D01*
X0117438Y0071318D01*
X0117145Y0071373D01*
X0116853Y0071434D01*
X0116563Y0071503D01*
X0116275Y0071579D01*
X0115988Y0071661D01*
X0115704Y0071751D01*
X0115422Y0071848D01*
X0115142Y0071951D01*
X0114865Y0072062D01*
X0114590Y0072179D01*
X0114319Y0072302D01*
X0114051Y0072433D01*
X0113786Y0072570D01*
X0113524Y0072713D01*
X0113266Y0072863D01*
X0113012Y0073019D01*
X0112762Y0073181D01*
X0112515Y0073349D01*
X0112273Y0073523D01*
X0112036Y0073703D01*
X0111802Y0073889D01*
X0111573Y0074080D01*
X0111350Y0074277D01*
X0111130Y0074479D01*
X0110916Y0074687D01*
X0110707Y0074900D01*
X0110504Y0075118D01*
X0110305Y0075341D01*
X0110113Y0075568D01*
X0109926Y0075800D01*
X0109744Y0076037D01*
X0109569Y0076278D01*
X0109399Y0076524D01*
X0109235Y0076773D01*
X0109078Y0077026D01*
X0108927Y0077283D01*
X0108782Y0077544D01*
X0108643Y0077808D01*
X0108511Y0078076D01*
X0108386Y0078346D01*
X0108267Y0078620D01*
X0108155Y0078896D01*
X0108050Y0079175D01*
X0107952Y0079457D01*
X0107860Y0079741D01*
X0107776Y0080027D01*
X0107699Y0080315D01*
X0107628Y0080605D01*
X0107565Y0080896D01*
X0107509Y0081189D01*
X0107460Y0081483D01*
X0107418Y0081779D01*
X0107384Y0082075D01*
X0107356Y0082372D01*
X0107336Y0082669D01*
X0107324Y0082967D01*
X0107318Y0083266D01*
X0107320Y0083564D01*
X0107329Y0083862D01*
X0107346Y0084160D01*
X0107369Y0084457D01*
X0107400Y0084754D01*
X0107439Y0085049D01*
X0107484Y0085344D01*
X0107537Y0085638D01*
X0107597Y0085930D01*
X0107663Y0086221D01*
X0107738Y0086509D01*
X0107819Y0086796D01*
X0107907Y0087081D01*
X0108002Y0087364D01*
X0108103Y0087644D01*
X0108212Y0087922D01*
X0108328Y0088197D01*
X0108450Y0088469D01*
X0108579Y0088738D01*
X0108714Y0089004D01*
X0108856Y0089266D01*
X0109004Y0089525D01*
X0109158Y0089780D01*
X0109319Y0090032D01*
X0109485Y0090279D01*
X0109658Y0090522D01*
X0109837Y0090761D01*
X0110021Y0090996D01*
X0110211Y0091225D01*
X0110407Y0091451D01*
X0110608Y0091671D01*
X0110814Y0091886D01*
X0111026Y0092096D01*
X0111242Y0092301D01*
X0111464Y0092501D01*
X0111691Y0092695D01*
X0111922Y0092884D01*
X0112157Y0093066D01*
X0112214Y0092991D01*
X0111980Y0092810D01*
X0111751Y0092623D01*
X0111526Y0092430D01*
X0111306Y0092232D01*
X0111091Y0092029D01*
X0110881Y0091820D01*
X0110676Y0091606D01*
X0110477Y0091388D01*
X0110283Y0091164D01*
X0110094Y0090936D01*
X0109911Y0090704D01*
X0109734Y0090467D01*
X0109563Y0090225D01*
X0109397Y0089980D01*
X0109238Y0089731D01*
X0109085Y0089477D01*
X0108938Y0089221D01*
X0108797Y0088960D01*
X0108663Y0088696D01*
X0108535Y0088429D01*
X0108414Y0088159D01*
X0108299Y0087887D01*
X0108191Y0087611D01*
X0108090Y0087333D01*
X0107996Y0087052D01*
X0107909Y0086770D01*
X0107828Y0086485D01*
X0107755Y0086198D01*
X0107688Y0085910D01*
X0107629Y0085620D01*
X0107577Y0085328D01*
X0107532Y0085036D01*
X0107494Y0084742D01*
X0107463Y0084448D01*
X0107439Y0084153D01*
X0107423Y0083858D01*
X0107414Y0083562D01*
X0107412Y0083266D01*
X0107418Y0082970D01*
X0107430Y0082674D01*
X0107450Y0082379D01*
X0107477Y0082084D01*
X0107511Y0081790D01*
X0107553Y0081497D01*
X0107601Y0081205D01*
X0107657Y0080915D01*
X0107720Y0080626D01*
X0107790Y0080338D01*
X0107867Y0080052D01*
X0107950Y0079768D01*
X0108041Y0079487D01*
X0108139Y0079207D01*
X0108243Y0078930D01*
X0108354Y0078656D01*
X0108472Y0078385D01*
X0108596Y0078116D01*
X0108727Y0077851D01*
X0108865Y0077589D01*
X0109008Y0077330D01*
X0109158Y0077075D01*
X0109315Y0076823D01*
X0109477Y0076576D01*
X0109645Y0076333D01*
X0109820Y0076093D01*
X0110000Y0075858D01*
X0110185Y0075628D01*
X0110377Y0075402D01*
X0110573Y0075181D01*
X0110775Y0074965D01*
X0110983Y0074754D01*
X0111195Y0074548D01*
X0111413Y0074347D01*
X0111635Y0074151D01*
X0111862Y0073961D01*
X0112093Y0073777D01*
X0112329Y0073599D01*
X0112569Y0073426D01*
X0112814Y0073259D01*
X0113062Y0073098D01*
X0113315Y0072943D01*
X0113571Y0072795D01*
X0113830Y0072653D01*
X0114093Y0072517D01*
X0114359Y0072387D01*
X0114628Y0072265D01*
X0114901Y0072148D01*
X0115176Y0072039D01*
X0115453Y0071936D01*
X0115733Y0071840D01*
X0116015Y0071751D01*
X0116300Y0071669D01*
X0116586Y0071594D01*
X0116874Y0071526D01*
X0117163Y0071465D01*
X0117454Y0071411D01*
X0117747Y0071364D01*
X0118040Y0071324D01*
X0118334Y0071292D01*
X0118629Y0071267D01*
X0118924Y0071248D01*
X0119220Y0071238D01*
X0119516Y0071234D01*
X0119812Y0071238D01*
X0120108Y0071248D01*
X0120403Y0071267D01*
X0120698Y0071292D01*
X0120992Y0071324D01*
X0121285Y0071364D01*
X0121578Y0071411D01*
X0121869Y0071465D01*
X0122158Y0071526D01*
X0122446Y0071594D01*
X0122732Y0071669D01*
X0123017Y0071751D01*
X0123299Y0071840D01*
X0123579Y0071936D01*
X0123856Y0072039D01*
X0124131Y0072148D01*
X0124404Y0072265D01*
X0124673Y0072387D01*
X0124939Y0072517D01*
X0125202Y0072653D01*
X0125461Y0072795D01*
X0125717Y0072943D01*
X0125970Y0073098D01*
X0126218Y0073259D01*
X0126463Y0073426D01*
X0126703Y0073599D01*
X0126939Y0073777D01*
X0127170Y0073961D01*
X0127397Y0074151D01*
X0127619Y0074347D01*
X0127837Y0074548D01*
X0128049Y0074754D01*
X0128257Y0074965D01*
X0128459Y0075181D01*
X0128655Y0075402D01*
X0128847Y0075628D01*
X0129032Y0075858D01*
X0129212Y0076093D01*
X0129387Y0076333D01*
X0129555Y0076576D01*
X0129717Y0076823D01*
X0129874Y0077075D01*
X0130024Y0077330D01*
X0130167Y0077589D01*
X0130305Y0077851D01*
X0130436Y0078116D01*
X0130560Y0078385D01*
X0130678Y0078656D01*
X0130789Y0078930D01*
X0130893Y0079207D01*
X0130991Y0079487D01*
X0131082Y0079768D01*
X0131165Y0080052D01*
X0131242Y0080338D01*
X0131312Y0080626D01*
X0131375Y0080915D01*
X0131431Y0081205D01*
X0131479Y0081497D01*
X0131521Y0081790D01*
X0131555Y0082084D01*
X0131582Y0082379D01*
X0131602Y0082674D01*
X0131614Y0082970D01*
X0131620Y0083266D01*
X0131618Y0083562D01*
X0131609Y0083858D01*
X0131593Y0084153D01*
X0131569Y0084448D01*
X0131538Y0084742D01*
X0131500Y0085036D01*
X0131455Y0085328D01*
X0131403Y0085620D01*
X0131344Y0085910D01*
X0131277Y0086198D01*
X0131204Y0086485D01*
X0131123Y0086770D01*
X0131036Y0087052D01*
X0130942Y0087333D01*
X0130841Y0087611D01*
X0130733Y0087887D01*
X0130618Y0088159D01*
X0130497Y0088429D01*
X0130369Y0088696D01*
X0130235Y0088960D01*
X0130094Y0089221D01*
X0129947Y0089477D01*
X0129794Y0089731D01*
X0129635Y0089980D01*
X0129469Y0090225D01*
X0129298Y0090467D01*
X0129121Y0090704D01*
X0128938Y0090936D01*
X0128749Y0091164D01*
X0128555Y0091388D01*
X0128356Y0091606D01*
X0128151Y0091820D01*
X0127941Y0092029D01*
X0127726Y0092232D01*
X0127506Y0092430D01*
X0127281Y0092623D01*
X0127052Y0092810D01*
X0126818Y0092991D01*
X0154565Y0113692D02*
X0154815Y0113442D01*
X0155816Y0113442D01*
X0156066Y0113692D01*
X0156066Y0114192D01*
X0155816Y0114443D01*
X0155315Y0114915D02*
X0154565Y0115666D01*
X0156066Y0115666D01*
X0155315Y0115916D02*
X0155315Y0114915D01*
X0154815Y0114443D02*
X0154565Y0114192D01*
X0154565Y0113692D01*
X0181315Y0158442D02*
X0182316Y0158442D01*
X0182566Y0158692D01*
X0182566Y0159192D01*
X0182316Y0159443D01*
X0182566Y0159915D02*
X0182566Y0160916D01*
X0182566Y0160415D02*
X0181065Y0160415D01*
X0181565Y0159915D01*
X0181315Y0159443D02*
X0181065Y0159192D01*
X0181065Y0158692D01*
X0181315Y0158442D01*
X0153039Y0194888D02*
X0153039Y0195138D01*
X0154040Y0196139D01*
X0154040Y0196389D01*
X0153039Y0196389D01*
X0152567Y0196139D02*
X0152317Y0196389D01*
X0151816Y0196389D01*
X0151566Y0196139D01*
X0151566Y0195138D01*
X0151816Y0194888D01*
X0152317Y0194888D01*
X0152567Y0195138D01*
X0124040Y0195138D02*
X0124040Y0195389D01*
X0123790Y0195639D01*
X0123039Y0195639D01*
X0123039Y0195138D01*
X0123289Y0194888D01*
X0123790Y0194888D01*
X0124040Y0195138D01*
X0123540Y0196139D02*
X0123039Y0195639D01*
X0122567Y0196139D02*
X0122317Y0196389D01*
X0121816Y0196389D01*
X0121566Y0196139D01*
X0121566Y0195138D01*
X0121816Y0194888D01*
X0122317Y0194888D01*
X0122567Y0195138D01*
X0123540Y0196139D02*
X0124040Y0196389D01*
X0071066Y0196915D02*
X0071066Y0197916D01*
X0071066Y0197415D02*
X0069565Y0197415D01*
X0070065Y0196915D01*
X0069815Y0196443D02*
X0070315Y0196443D01*
X0070566Y0196192D01*
X0070566Y0195442D01*
X0071066Y0195442D02*
X0069565Y0195442D01*
X0069565Y0196192D01*
X0069815Y0196443D01*
X0069565Y0194969D02*
X0069565Y0194469D01*
X0069565Y0194719D02*
X0070816Y0194719D01*
X0071066Y0194469D01*
X0071066Y0194219D01*
X0070816Y0193968D01*
D15*
X0113514Y0122283D02*
X0115316Y0120481D01*
X0115766Y0120932D01*
X0115766Y0121832D01*
X0115316Y0122283D01*
X0113514Y0122283D01*
X0113064Y0121832D01*
X0113064Y0120932D01*
X0113514Y0120481D01*
X0115316Y0120481D01*
X0115316Y0119336D02*
X0114865Y0119336D01*
X0114415Y0118886D01*
X0114415Y0117535D01*
X0115316Y0117535D01*
X0115766Y0117985D01*
X0115766Y0118886D01*
X0115316Y0119336D01*
X0114415Y0117535D02*
X0113514Y0118435D01*
X0113064Y0119336D01*
X0113064Y0116390D02*
X0113064Y0114588D01*
X0114415Y0114588D01*
X0113964Y0115489D01*
X0113964Y0115939D01*
X0114415Y0116390D01*
X0115316Y0116390D01*
X0115766Y0115939D01*
X0115766Y0115039D01*
X0115316Y0114588D01*
X0119064Y0114935D02*
X0121766Y0114935D01*
X0121766Y0114035D02*
X0121766Y0115836D01*
X0119964Y0114035D02*
X0119064Y0114935D01*
X0119514Y0112890D02*
X0120415Y0112890D01*
X0120865Y0112439D01*
X0120865Y0111088D01*
X0120865Y0111989D02*
X0121766Y0112890D01*
X0121766Y0111088D02*
X0119064Y0111088D01*
X0119064Y0112439D01*
X0119514Y0112890D01*
X0128064Y0115489D02*
X0130766Y0115489D01*
X0130766Y0114588D02*
X0130766Y0116390D01*
X0130316Y0117535D02*
X0128514Y0119336D01*
X0130316Y0119336D01*
X0130766Y0118886D01*
X0130766Y0117985D01*
X0130316Y0117535D01*
X0128514Y0117535D01*
X0128064Y0117985D01*
X0128064Y0118886D01*
X0128514Y0119336D01*
X0128064Y0120481D02*
X0130766Y0120481D01*
X0129865Y0120481D02*
X0128964Y0121832D01*
X0129865Y0120481D02*
X0130766Y0121832D01*
X0128064Y0115489D02*
X0128964Y0114588D01*
X0117166Y0103695D02*
X0117166Y0100692D01*
X0114163Y0103695D01*
X0113413Y0103695D01*
X0112662Y0102944D01*
X0112662Y0101443D01*
X0113413Y0100692D01*
X0113413Y0099091D02*
X0112662Y0098340D01*
X0112662Y0096088D01*
X0117166Y0096088D01*
X0117166Y0098340D01*
X0116415Y0099091D01*
X0113413Y0099091D01*
X0106766Y0111088D02*
X0104064Y0111088D01*
X0104064Y0112439D01*
X0104514Y0112890D01*
X0105415Y0112890D01*
X0105865Y0112439D01*
X0105865Y0111088D01*
X0105865Y0111989D02*
X0106766Y0112890D01*
X0106316Y0114035D02*
X0106766Y0114485D01*
X0106766Y0115386D01*
X0106316Y0115836D01*
X0105415Y0115836D01*
X0104964Y0115386D01*
X0104964Y0114935D01*
X0105415Y0114035D01*
X0104064Y0114035D01*
X0104064Y0115836D01*
X0119766Y0073092D02*
X0122018Y0073092D01*
X0122769Y0072341D01*
X0122769Y0070840D01*
X0122018Y0070089D01*
X0119766Y0070089D01*
X0119766Y0068588D02*
X0119766Y0073092D01*
X0121267Y0070089D02*
X0122769Y0068588D01*
X0124370Y0068588D02*
X0127372Y0068588D01*
X0128974Y0069339D02*
X0129724Y0068588D01*
X0131226Y0068588D01*
X0131976Y0069339D01*
X0131976Y0070089D01*
X0131226Y0070840D01*
X0129724Y0070840D01*
X0128974Y0071591D01*
X0128974Y0072341D01*
X0129724Y0073092D01*
X0131226Y0073092D01*
X0131976Y0072341D01*
X0133578Y0073092D02*
X0133578Y0068588D01*
X0136580Y0068588D01*
X0135079Y0070840D02*
X0133578Y0070840D01*
X0133578Y0073092D02*
X0136580Y0073092D01*
X0138182Y0073092D02*
X0141184Y0073092D01*
X0139683Y0073092D02*
X0139683Y0068588D01*
X0127372Y0073092D02*
X0124370Y0073092D01*
X0124370Y0068588D01*
X0124370Y0070840D02*
X0125871Y0070840D01*
X0148013Y0040799D02*
X0147262Y0040048D01*
X0147262Y0038547D01*
X0148013Y0037796D01*
X0148013Y0036195D02*
X0149514Y0036195D01*
X0150265Y0035444D01*
X0150265Y0033192D01*
X0151766Y0033192D02*
X0147262Y0033192D01*
X0147262Y0035444D01*
X0148013Y0036195D01*
X0151766Y0037796D02*
X0148763Y0040799D01*
X0148013Y0040799D01*
X0151766Y0040799D02*
X0151766Y0037796D01*
X0151015Y0030840D02*
X0147262Y0030840D01*
X0147262Y0030089D02*
X0147262Y0031591D01*
X0151015Y0030840D02*
X0151766Y0030089D01*
X0151766Y0029339D01*
X0151015Y0028588D01*
X0108165Y0010592D02*
X0106663Y0009841D01*
X0105162Y0008340D01*
X0107414Y0008340D01*
X0108165Y0007589D01*
X0108165Y0006839D01*
X0107414Y0006088D01*
X0105913Y0006088D01*
X0105162Y0006839D01*
X0105162Y0008340D01*
X0103561Y0008340D02*
X0102810Y0007589D01*
X0100558Y0007589D01*
X0100558Y0006088D02*
X0100558Y0010592D01*
X0102810Y0010592D01*
X0103561Y0009841D01*
X0103561Y0008340D01*
X0098957Y0010592D02*
X0097455Y0010592D01*
X0098206Y0010592D02*
X0098206Y0006839D01*
X0097455Y0006088D01*
X0096705Y0006088D01*
X0095954Y0006839D01*
X0232562Y0014789D02*
X0232562Y0016291D01*
X0232562Y0015540D02*
X0236315Y0015540D01*
X0237066Y0014789D01*
X0237066Y0014039D01*
X0236315Y0013288D01*
X0235565Y0017892D02*
X0235565Y0020144D01*
X0234814Y0020895D01*
X0233313Y0020895D01*
X0232562Y0020144D01*
X0232562Y0017892D01*
X0237066Y0017892D01*
X0236315Y0022496D02*
X0235565Y0022496D01*
X0234814Y0023247D01*
X0234814Y0024748D01*
X0235565Y0025499D01*
X0236315Y0025499D01*
X0237066Y0024748D01*
X0237066Y0023247D01*
X0236315Y0022496D01*
X0234814Y0023247D02*
X0234063Y0022496D01*
X0233313Y0022496D01*
X0232562Y0023247D01*
X0232562Y0024748D01*
X0233313Y0025499D01*
X0234063Y0025499D01*
X0234814Y0024748D01*
X0236315Y0073288D02*
X0237066Y0074039D01*
X0237066Y0074789D01*
X0236315Y0075540D01*
X0232562Y0075540D01*
X0232562Y0074789D02*
X0232562Y0076291D01*
X0232562Y0077892D02*
X0232562Y0080144D01*
X0233313Y0080895D01*
X0234814Y0080895D01*
X0235565Y0080144D01*
X0235565Y0077892D01*
X0237066Y0077892D02*
X0232562Y0077892D01*
X0232562Y0082496D02*
X0232562Y0085499D01*
X0233313Y0085499D01*
X0236315Y0082496D01*
X0237066Y0082496D01*
X0184766Y0115882D02*
X0182514Y0115882D01*
X0181013Y0117383D01*
X0180262Y0117383D01*
X0181763Y0118984D02*
X0180262Y0120486D01*
X0184766Y0120486D01*
X0184766Y0121987D02*
X0184766Y0118984D01*
X0182514Y0115882D02*
X0181013Y0114380D01*
X0180262Y0114380D01*
X0179070Y0190788D02*
X0179070Y0195292D01*
X0181322Y0195292D01*
X0182072Y0194541D01*
X0182072Y0193040D01*
X0181322Y0192289D01*
X0179070Y0192289D01*
X0176718Y0191539D02*
X0176718Y0195292D01*
X0175967Y0195292D02*
X0177469Y0195292D01*
X0176718Y0191539D02*
X0175967Y0190788D01*
X0175217Y0190788D01*
X0174466Y0191539D01*
X0183674Y0191539D02*
X0184424Y0190788D01*
X0185926Y0190788D01*
X0186676Y0191539D01*
X0186676Y0192289D01*
X0185926Y0193040D01*
X0185175Y0193040D01*
X0185926Y0193040D02*
X0186676Y0193791D01*
X0186676Y0194541D01*
X0185926Y0195292D01*
X0184424Y0195292D01*
X0183674Y0194541D01*
D16*
X0105016Y0133338D02*
X0105016Y0084338D01*
X0101516Y0084338D01*
X0101516Y0078338D01*
X0105016Y0078338D01*
X0105016Y0070838D01*
X0064016Y0070838D01*
X0064016Y0078338D01*
X0067516Y0078338D01*
X0067516Y0084338D01*
X0064016Y0084338D01*
X0064016Y0133338D01*
X0105016Y0133338D01*
X0077416Y0084338D02*
X0077418Y0084512D01*
X0077425Y0084686D01*
X0077435Y0084860D01*
X0077450Y0085034D01*
X0077469Y0085207D01*
X0077493Y0085380D01*
X0077521Y0085552D01*
X0077552Y0085723D01*
X0077589Y0085894D01*
X0077629Y0086063D01*
X0077673Y0086232D01*
X0077722Y0086399D01*
X0077774Y0086565D01*
X0077831Y0086730D01*
X0077892Y0086893D01*
X0077956Y0087055D01*
X0078025Y0087215D01*
X0078098Y0087374D01*
X0078174Y0087530D01*
X0078254Y0087685D01*
X0078338Y0087838D01*
X0078426Y0087988D01*
X0078518Y0088136D01*
X0078613Y0088283D01*
X0078711Y0088426D01*
X0078813Y0088567D01*
X0078919Y0088706D01*
X0079028Y0088842D01*
X0079140Y0088976D01*
X0079255Y0089106D01*
X0079374Y0089234D01*
X0079496Y0089358D01*
X0079620Y0089480D01*
X0079748Y0089599D01*
X0079878Y0089714D01*
X0080012Y0089826D01*
X0080148Y0089935D01*
X0080287Y0090041D01*
X0080428Y0090143D01*
X0080571Y0090241D01*
X0080718Y0090336D01*
X0080866Y0090428D01*
X0081016Y0090516D01*
X0081169Y0090600D01*
X0081324Y0090680D01*
X0081480Y0090756D01*
X0081639Y0090829D01*
X0081799Y0090898D01*
X0081961Y0090962D01*
X0082124Y0091023D01*
X0082289Y0091080D01*
X0082455Y0091132D01*
X0082622Y0091181D01*
X0082791Y0091225D01*
X0082960Y0091265D01*
X0083131Y0091302D01*
X0083302Y0091333D01*
X0083474Y0091361D01*
X0083647Y0091385D01*
X0083820Y0091404D01*
X0083994Y0091419D01*
X0084168Y0091429D01*
X0084342Y0091436D01*
X0084516Y0091438D01*
X0084690Y0091436D01*
X0084864Y0091429D01*
X0085038Y0091419D01*
X0085212Y0091404D01*
X0085385Y0091385D01*
X0085558Y0091361D01*
X0085730Y0091333D01*
X0085901Y0091302D01*
X0086072Y0091265D01*
X0086241Y0091225D01*
X0086410Y0091181D01*
X0086577Y0091132D01*
X0086743Y0091080D01*
X0086908Y0091023D01*
X0087071Y0090962D01*
X0087233Y0090898D01*
X0087393Y0090829D01*
X0087552Y0090756D01*
X0087708Y0090680D01*
X0087863Y0090600D01*
X0088016Y0090516D01*
X0088166Y0090428D01*
X0088314Y0090336D01*
X0088461Y0090241D01*
X0088604Y0090143D01*
X0088745Y0090041D01*
X0088884Y0089935D01*
X0089020Y0089826D01*
X0089154Y0089714D01*
X0089284Y0089599D01*
X0089412Y0089480D01*
X0089536Y0089358D01*
X0089658Y0089234D01*
X0089777Y0089106D01*
X0089892Y0088976D01*
X0090004Y0088842D01*
X0090113Y0088706D01*
X0090219Y0088567D01*
X0090321Y0088426D01*
X0090419Y0088283D01*
X0090514Y0088136D01*
X0090606Y0087988D01*
X0090694Y0087838D01*
X0090778Y0087685D01*
X0090858Y0087530D01*
X0090934Y0087374D01*
X0091007Y0087215D01*
X0091076Y0087055D01*
X0091140Y0086893D01*
X0091201Y0086730D01*
X0091258Y0086565D01*
X0091310Y0086399D01*
X0091359Y0086232D01*
X0091403Y0086063D01*
X0091443Y0085894D01*
X0091480Y0085723D01*
X0091511Y0085552D01*
X0091539Y0085380D01*
X0091563Y0085207D01*
X0091582Y0085034D01*
X0091597Y0084860D01*
X0091607Y0084686D01*
X0091614Y0084512D01*
X0091616Y0084338D01*
X0091614Y0084164D01*
X0091607Y0083990D01*
X0091597Y0083816D01*
X0091582Y0083642D01*
X0091563Y0083469D01*
X0091539Y0083296D01*
X0091511Y0083124D01*
X0091480Y0082953D01*
X0091443Y0082782D01*
X0091403Y0082613D01*
X0091359Y0082444D01*
X0091310Y0082277D01*
X0091258Y0082111D01*
X0091201Y0081946D01*
X0091140Y0081783D01*
X0091076Y0081621D01*
X0091007Y0081461D01*
X0090934Y0081302D01*
X0090858Y0081146D01*
X0090778Y0080991D01*
X0090694Y0080838D01*
X0090606Y0080688D01*
X0090514Y0080540D01*
X0090419Y0080393D01*
X0090321Y0080250D01*
X0090219Y0080109D01*
X0090113Y0079970D01*
X0090004Y0079834D01*
X0089892Y0079700D01*
X0089777Y0079570D01*
X0089658Y0079442D01*
X0089536Y0079318D01*
X0089412Y0079196D01*
X0089284Y0079077D01*
X0089154Y0078962D01*
X0089020Y0078850D01*
X0088884Y0078741D01*
X0088745Y0078635D01*
X0088604Y0078533D01*
X0088461Y0078435D01*
X0088314Y0078340D01*
X0088166Y0078248D01*
X0088016Y0078160D01*
X0087863Y0078076D01*
X0087708Y0077996D01*
X0087552Y0077920D01*
X0087393Y0077847D01*
X0087233Y0077778D01*
X0087071Y0077714D01*
X0086908Y0077653D01*
X0086743Y0077596D01*
X0086577Y0077544D01*
X0086410Y0077495D01*
X0086241Y0077451D01*
X0086072Y0077411D01*
X0085901Y0077374D01*
X0085730Y0077343D01*
X0085558Y0077315D01*
X0085385Y0077291D01*
X0085212Y0077272D01*
X0085038Y0077257D01*
X0084864Y0077247D01*
X0084690Y0077240D01*
X0084516Y0077238D01*
X0084342Y0077240D01*
X0084168Y0077247D01*
X0083994Y0077257D01*
X0083820Y0077272D01*
X0083647Y0077291D01*
X0083474Y0077315D01*
X0083302Y0077343D01*
X0083131Y0077374D01*
X0082960Y0077411D01*
X0082791Y0077451D01*
X0082622Y0077495D01*
X0082455Y0077544D01*
X0082289Y0077596D01*
X0082124Y0077653D01*
X0081961Y0077714D01*
X0081799Y0077778D01*
X0081639Y0077847D01*
X0081480Y0077920D01*
X0081324Y0077996D01*
X0081169Y0078076D01*
X0081016Y0078160D01*
X0080866Y0078248D01*
X0080718Y0078340D01*
X0080571Y0078435D01*
X0080428Y0078533D01*
X0080287Y0078635D01*
X0080148Y0078741D01*
X0080012Y0078850D01*
X0079878Y0078962D01*
X0079748Y0079077D01*
X0079620Y0079196D01*
X0079496Y0079318D01*
X0079374Y0079442D01*
X0079255Y0079570D01*
X0079140Y0079700D01*
X0079028Y0079834D01*
X0078919Y0079970D01*
X0078813Y0080109D01*
X0078711Y0080250D01*
X0078613Y0080393D01*
X0078518Y0080540D01*
X0078426Y0080688D01*
X0078338Y0080838D01*
X0078254Y0080991D01*
X0078174Y0081146D01*
X0078098Y0081302D01*
X0078025Y0081461D01*
X0077956Y0081621D01*
X0077892Y0081783D01*
X0077831Y0081946D01*
X0077774Y0082111D01*
X0077722Y0082277D01*
X0077673Y0082444D01*
X0077629Y0082613D01*
X0077589Y0082782D01*
X0077552Y0082953D01*
X0077521Y0083124D01*
X0077493Y0083296D01*
X0077469Y0083469D01*
X0077450Y0083642D01*
X0077435Y0083816D01*
X0077425Y0083990D01*
X0077418Y0084164D01*
X0077416Y0084338D01*
X0109516Y0083338D02*
X0109519Y0083583D01*
X0109528Y0083829D01*
X0109543Y0084074D01*
X0109564Y0084318D01*
X0109591Y0084562D01*
X0109624Y0084805D01*
X0109663Y0085048D01*
X0109708Y0085289D01*
X0109759Y0085529D01*
X0109816Y0085768D01*
X0109878Y0086005D01*
X0109947Y0086241D01*
X0110021Y0086475D01*
X0110101Y0086707D01*
X0110186Y0086937D01*
X0110277Y0087165D01*
X0110374Y0087390D01*
X0110476Y0087614D01*
X0110584Y0087834D01*
X0110697Y0088052D01*
X0110815Y0088267D01*
X0110939Y0088479D01*
X0111067Y0088688D01*
X0111201Y0088894D01*
X0111340Y0089096D01*
X0111484Y0089295D01*
X0111633Y0089490D01*
X0111786Y0089682D01*
X0111944Y0089870D01*
X0112106Y0090054D01*
X0112274Y0090233D01*
X0112445Y0090409D01*
X0112621Y0090580D01*
X0112800Y0090748D01*
X0112984Y0090910D01*
X0113172Y0091068D01*
X0113364Y0091221D01*
X0113559Y0091370D01*
X0113758Y0091514D01*
X0113960Y0091653D01*
X0114166Y0091787D01*
X0114375Y0091915D01*
X0114587Y0092039D01*
X0114802Y0092157D01*
X0115020Y0092270D01*
X0115240Y0092378D01*
X0115464Y0092480D01*
X0115689Y0092577D01*
X0115917Y0092668D01*
X0116147Y0092753D01*
X0116379Y0092833D01*
X0116613Y0092907D01*
X0116849Y0092976D01*
X0117086Y0093038D01*
X0117325Y0093095D01*
X0117565Y0093146D01*
X0117806Y0093191D01*
X0118049Y0093230D01*
X0118292Y0093263D01*
X0118536Y0093290D01*
X0118780Y0093311D01*
X0119025Y0093326D01*
X0119271Y0093335D01*
X0119516Y0093338D01*
X0119761Y0093335D01*
X0120007Y0093326D01*
X0120252Y0093311D01*
X0120496Y0093290D01*
X0120740Y0093263D01*
X0120983Y0093230D01*
X0121226Y0093191D01*
X0121467Y0093146D01*
X0121707Y0093095D01*
X0121946Y0093038D01*
X0122183Y0092976D01*
X0122419Y0092907D01*
X0122653Y0092833D01*
X0122885Y0092753D01*
X0123115Y0092668D01*
X0123343Y0092577D01*
X0123568Y0092480D01*
X0123792Y0092378D01*
X0124012Y0092270D01*
X0124230Y0092157D01*
X0124445Y0092039D01*
X0124657Y0091915D01*
X0124866Y0091787D01*
X0125072Y0091653D01*
X0125274Y0091514D01*
X0125473Y0091370D01*
X0125668Y0091221D01*
X0125860Y0091068D01*
X0126048Y0090910D01*
X0126232Y0090748D01*
X0126411Y0090580D01*
X0126587Y0090409D01*
X0126758Y0090233D01*
X0126926Y0090054D01*
X0127088Y0089870D01*
X0127246Y0089682D01*
X0127399Y0089490D01*
X0127548Y0089295D01*
X0127692Y0089096D01*
X0127831Y0088894D01*
X0127965Y0088688D01*
X0128093Y0088479D01*
X0128217Y0088267D01*
X0128335Y0088052D01*
X0128448Y0087834D01*
X0128556Y0087614D01*
X0128658Y0087390D01*
X0128755Y0087165D01*
X0128846Y0086937D01*
X0128931Y0086707D01*
X0129011Y0086475D01*
X0129085Y0086241D01*
X0129154Y0086005D01*
X0129216Y0085768D01*
X0129273Y0085529D01*
X0129324Y0085289D01*
X0129369Y0085048D01*
X0129408Y0084805D01*
X0129441Y0084562D01*
X0129468Y0084318D01*
X0129489Y0084074D01*
X0129504Y0083829D01*
X0129513Y0083583D01*
X0129516Y0083338D01*
X0129513Y0083093D01*
X0129504Y0082847D01*
X0129489Y0082602D01*
X0129468Y0082358D01*
X0129441Y0082114D01*
X0129408Y0081871D01*
X0129369Y0081628D01*
X0129324Y0081387D01*
X0129273Y0081147D01*
X0129216Y0080908D01*
X0129154Y0080671D01*
X0129085Y0080435D01*
X0129011Y0080201D01*
X0128931Y0079969D01*
X0128846Y0079739D01*
X0128755Y0079511D01*
X0128658Y0079286D01*
X0128556Y0079062D01*
X0128448Y0078842D01*
X0128335Y0078624D01*
X0128217Y0078409D01*
X0128093Y0078197D01*
X0127965Y0077988D01*
X0127831Y0077782D01*
X0127692Y0077580D01*
X0127548Y0077381D01*
X0127399Y0077186D01*
X0127246Y0076994D01*
X0127088Y0076806D01*
X0126926Y0076622D01*
X0126758Y0076443D01*
X0126587Y0076267D01*
X0126411Y0076096D01*
X0126232Y0075928D01*
X0126048Y0075766D01*
X0125860Y0075608D01*
X0125668Y0075455D01*
X0125473Y0075306D01*
X0125274Y0075162D01*
X0125072Y0075023D01*
X0124866Y0074889D01*
X0124657Y0074761D01*
X0124445Y0074637D01*
X0124230Y0074519D01*
X0124012Y0074406D01*
X0123792Y0074298D01*
X0123568Y0074196D01*
X0123343Y0074099D01*
X0123115Y0074008D01*
X0122885Y0073923D01*
X0122653Y0073843D01*
X0122419Y0073769D01*
X0122183Y0073700D01*
X0121946Y0073638D01*
X0121707Y0073581D01*
X0121467Y0073530D01*
X0121226Y0073485D01*
X0120983Y0073446D01*
X0120740Y0073413D01*
X0120496Y0073386D01*
X0120252Y0073365D01*
X0120007Y0073350D01*
X0119761Y0073341D01*
X0119516Y0073338D01*
X0119271Y0073341D01*
X0119025Y0073350D01*
X0118780Y0073365D01*
X0118536Y0073386D01*
X0118292Y0073413D01*
X0118049Y0073446D01*
X0117806Y0073485D01*
X0117565Y0073530D01*
X0117325Y0073581D01*
X0117086Y0073638D01*
X0116849Y0073700D01*
X0116613Y0073769D01*
X0116379Y0073843D01*
X0116147Y0073923D01*
X0115917Y0074008D01*
X0115689Y0074099D01*
X0115464Y0074196D01*
X0115240Y0074298D01*
X0115020Y0074406D01*
X0114802Y0074519D01*
X0114587Y0074637D01*
X0114375Y0074761D01*
X0114166Y0074889D01*
X0113960Y0075023D01*
X0113758Y0075162D01*
X0113559Y0075306D01*
X0113364Y0075455D01*
X0113172Y0075608D01*
X0112984Y0075766D01*
X0112800Y0075928D01*
X0112621Y0076096D01*
X0112445Y0076267D01*
X0112274Y0076443D01*
X0112106Y0076622D01*
X0111944Y0076806D01*
X0111786Y0076994D01*
X0111633Y0077186D01*
X0111484Y0077381D01*
X0111340Y0077580D01*
X0111201Y0077782D01*
X0111067Y0077988D01*
X0110939Y0078197D01*
X0110815Y0078409D01*
X0110697Y0078624D01*
X0110584Y0078842D01*
X0110476Y0079062D01*
X0110374Y0079286D01*
X0110277Y0079511D01*
X0110186Y0079739D01*
X0110101Y0079969D01*
X0110021Y0080201D01*
X0109947Y0080435D01*
X0109878Y0080671D01*
X0109816Y0080908D01*
X0109759Y0081147D01*
X0109708Y0081387D01*
X0109663Y0081628D01*
X0109624Y0081871D01*
X0109591Y0082114D01*
X0109564Y0082358D01*
X0109543Y0082602D01*
X0109528Y0082847D01*
X0109519Y0083093D01*
X0109516Y0083338D01*
D17*
X0095522Y0101688D02*
X0097624Y0103790D01*
X0097624Y0107994D01*
X0093420Y0107994D02*
X0093420Y0103790D01*
X0095522Y0101688D01*
X0091179Y0102739D02*
X0090128Y0101688D01*
X0088026Y0101688D01*
X0086975Y0102739D01*
X0084803Y0102739D02*
X0084803Y0101688D01*
X0083752Y0101688D01*
X0083752Y0102739D01*
X0084803Y0102739D01*
X0081510Y0102739D02*
X0080459Y0101688D01*
X0078358Y0101688D01*
X0077307Y0102739D01*
X0079408Y0104841D02*
X0080459Y0104841D01*
X0081510Y0103790D01*
X0081510Y0102739D01*
X0080459Y0104841D02*
X0081510Y0105892D01*
X0081510Y0106943D01*
X0080459Y0107994D01*
X0078358Y0107994D01*
X0077307Y0106943D01*
X0086975Y0106943D02*
X0088026Y0107994D01*
X0090128Y0107994D01*
X0091179Y0106943D01*
X0091179Y0105892D01*
X0090128Y0104841D01*
X0091179Y0103790D01*
X0091179Y0102739D01*
X0090128Y0104841D02*
X0089077Y0104841D01*
D18*
X0087793Y0097141D02*
X0085458Y0097141D01*
X0085458Y0095390D01*
X0086625Y0095974D01*
X0087209Y0095974D01*
X0087793Y0095390D01*
X0087793Y0094222D01*
X0087209Y0093638D01*
X0086041Y0093638D01*
X0085458Y0094222D01*
X0084202Y0093638D02*
X0081867Y0093638D01*
X0083034Y0093638D02*
X0083034Y0097141D01*
X0081867Y0095974D01*
X0080611Y0095974D02*
X0080611Y0093638D01*
X0080611Y0095390D02*
X0078276Y0095390D01*
X0078276Y0095974D02*
X0079443Y0097141D01*
X0080611Y0095974D01*
X0078276Y0095974D02*
X0078276Y0093638D01*
X0089049Y0092471D02*
X0090216Y0093638D01*
X0089633Y0093638D01*
X0089633Y0094222D01*
X0090216Y0094222D01*
X0090216Y0093638D01*
X0091443Y0093638D02*
X0093778Y0095974D01*
X0093778Y0096557D01*
X0093194Y0097141D01*
X0092027Y0097141D01*
X0091443Y0096557D01*
X0095034Y0095974D02*
X0095618Y0095974D01*
X0096201Y0095390D01*
X0096785Y0095974D01*
X0097369Y0095390D01*
X0097369Y0093638D01*
X0096201Y0093638D02*
X0096201Y0095390D01*
X0095034Y0095974D02*
X0095034Y0093638D01*
X0093778Y0093638D02*
X0091443Y0093638D01*
X0098625Y0093638D02*
X0098625Y0095974D01*
X0099209Y0095974D01*
X0099793Y0095390D01*
X0100376Y0095974D01*
X0100960Y0095390D01*
X0100960Y0093638D01*
X0099793Y0093638D02*
X0099793Y0095390D01*
D19*
X0094516Y0135088D03*
X0084516Y0135088D03*
X0074516Y0135088D03*
D20*
X0078016Y0084338D02*
X0078018Y0084499D01*
X0078024Y0084659D01*
X0078034Y0084820D01*
X0078048Y0084980D01*
X0078066Y0085140D01*
X0078087Y0085299D01*
X0078113Y0085458D01*
X0078143Y0085616D01*
X0078176Y0085773D01*
X0078214Y0085930D01*
X0078255Y0086085D01*
X0078300Y0086239D01*
X0078349Y0086392D01*
X0078402Y0086544D01*
X0078458Y0086695D01*
X0078519Y0086844D01*
X0078582Y0086992D01*
X0078650Y0087138D01*
X0078721Y0087282D01*
X0078795Y0087424D01*
X0078873Y0087565D01*
X0078955Y0087703D01*
X0079040Y0087840D01*
X0079128Y0087974D01*
X0079220Y0088106D01*
X0079315Y0088236D01*
X0079413Y0088364D01*
X0079514Y0088489D01*
X0079618Y0088611D01*
X0079725Y0088731D01*
X0079835Y0088848D01*
X0079948Y0088963D01*
X0080064Y0089074D01*
X0080183Y0089183D01*
X0080304Y0089288D01*
X0080428Y0089391D01*
X0080554Y0089491D01*
X0080682Y0089587D01*
X0080813Y0089680D01*
X0080947Y0089770D01*
X0081082Y0089857D01*
X0081220Y0089940D01*
X0081359Y0090020D01*
X0081501Y0090096D01*
X0081644Y0090169D01*
X0081789Y0090238D01*
X0081936Y0090304D01*
X0082084Y0090366D01*
X0082234Y0090424D01*
X0082385Y0090479D01*
X0082538Y0090530D01*
X0082692Y0090577D01*
X0082847Y0090620D01*
X0083003Y0090659D01*
X0083159Y0090695D01*
X0083317Y0090726D01*
X0083475Y0090754D01*
X0083634Y0090778D01*
X0083794Y0090798D01*
X0083954Y0090814D01*
X0084114Y0090826D01*
X0084275Y0090834D01*
X0084436Y0090838D01*
X0084596Y0090838D01*
X0084757Y0090834D01*
X0084918Y0090826D01*
X0085078Y0090814D01*
X0085238Y0090798D01*
X0085398Y0090778D01*
X0085557Y0090754D01*
X0085715Y0090726D01*
X0085873Y0090695D01*
X0086029Y0090659D01*
X0086185Y0090620D01*
X0086340Y0090577D01*
X0086494Y0090530D01*
X0086647Y0090479D01*
X0086798Y0090424D01*
X0086948Y0090366D01*
X0087096Y0090304D01*
X0087243Y0090238D01*
X0087388Y0090169D01*
X0087531Y0090096D01*
X0087673Y0090020D01*
X0087812Y0089940D01*
X0087950Y0089857D01*
X0088085Y0089770D01*
X0088219Y0089680D01*
X0088350Y0089587D01*
X0088478Y0089491D01*
X0088604Y0089391D01*
X0088728Y0089288D01*
X0088849Y0089183D01*
X0088968Y0089074D01*
X0089084Y0088963D01*
X0089197Y0088848D01*
X0089307Y0088731D01*
X0089414Y0088611D01*
X0089518Y0088489D01*
X0089619Y0088364D01*
X0089717Y0088236D01*
X0089812Y0088106D01*
X0089904Y0087974D01*
X0089992Y0087840D01*
X0090077Y0087703D01*
X0090159Y0087565D01*
X0090237Y0087424D01*
X0090311Y0087282D01*
X0090382Y0087138D01*
X0090450Y0086992D01*
X0090513Y0086844D01*
X0090574Y0086695D01*
X0090630Y0086544D01*
X0090683Y0086392D01*
X0090732Y0086239D01*
X0090777Y0086085D01*
X0090818Y0085930D01*
X0090856Y0085773D01*
X0090889Y0085616D01*
X0090919Y0085458D01*
X0090945Y0085299D01*
X0090966Y0085140D01*
X0090984Y0084980D01*
X0090998Y0084820D01*
X0091008Y0084659D01*
X0091014Y0084499D01*
X0091016Y0084338D01*
X0091014Y0084177D01*
X0091008Y0084017D01*
X0090998Y0083856D01*
X0090984Y0083696D01*
X0090966Y0083536D01*
X0090945Y0083377D01*
X0090919Y0083218D01*
X0090889Y0083060D01*
X0090856Y0082903D01*
X0090818Y0082746D01*
X0090777Y0082591D01*
X0090732Y0082437D01*
X0090683Y0082284D01*
X0090630Y0082132D01*
X0090574Y0081981D01*
X0090513Y0081832D01*
X0090450Y0081684D01*
X0090382Y0081538D01*
X0090311Y0081394D01*
X0090237Y0081252D01*
X0090159Y0081111D01*
X0090077Y0080973D01*
X0089992Y0080836D01*
X0089904Y0080702D01*
X0089812Y0080570D01*
X0089717Y0080440D01*
X0089619Y0080312D01*
X0089518Y0080187D01*
X0089414Y0080065D01*
X0089307Y0079945D01*
X0089197Y0079828D01*
X0089084Y0079713D01*
X0088968Y0079602D01*
X0088849Y0079493D01*
X0088728Y0079388D01*
X0088604Y0079285D01*
X0088478Y0079185D01*
X0088350Y0079089D01*
X0088219Y0078996D01*
X0088085Y0078906D01*
X0087950Y0078819D01*
X0087812Y0078736D01*
X0087673Y0078656D01*
X0087531Y0078580D01*
X0087388Y0078507D01*
X0087243Y0078438D01*
X0087096Y0078372D01*
X0086948Y0078310D01*
X0086798Y0078252D01*
X0086647Y0078197D01*
X0086494Y0078146D01*
X0086340Y0078099D01*
X0086185Y0078056D01*
X0086029Y0078017D01*
X0085873Y0077981D01*
X0085715Y0077950D01*
X0085557Y0077922D01*
X0085398Y0077898D01*
X0085238Y0077878D01*
X0085078Y0077862D01*
X0084918Y0077850D01*
X0084757Y0077842D01*
X0084596Y0077838D01*
X0084436Y0077838D01*
X0084275Y0077842D01*
X0084114Y0077850D01*
X0083954Y0077862D01*
X0083794Y0077878D01*
X0083634Y0077898D01*
X0083475Y0077922D01*
X0083317Y0077950D01*
X0083159Y0077981D01*
X0083003Y0078017D01*
X0082847Y0078056D01*
X0082692Y0078099D01*
X0082538Y0078146D01*
X0082385Y0078197D01*
X0082234Y0078252D01*
X0082084Y0078310D01*
X0081936Y0078372D01*
X0081789Y0078438D01*
X0081644Y0078507D01*
X0081501Y0078580D01*
X0081359Y0078656D01*
X0081220Y0078736D01*
X0081082Y0078819D01*
X0080947Y0078906D01*
X0080813Y0078996D01*
X0080682Y0079089D01*
X0080554Y0079185D01*
X0080428Y0079285D01*
X0080304Y0079388D01*
X0080183Y0079493D01*
X0080064Y0079602D01*
X0079948Y0079713D01*
X0079835Y0079828D01*
X0079725Y0079945D01*
X0079618Y0080065D01*
X0079514Y0080187D01*
X0079413Y0080312D01*
X0079315Y0080440D01*
X0079220Y0080570D01*
X0079128Y0080702D01*
X0079040Y0080836D01*
X0078955Y0080973D01*
X0078873Y0081111D01*
X0078795Y0081252D01*
X0078721Y0081394D01*
X0078650Y0081538D01*
X0078582Y0081684D01*
X0078519Y0081832D01*
X0078458Y0081981D01*
X0078402Y0082132D01*
X0078349Y0082284D01*
X0078300Y0082437D01*
X0078255Y0082591D01*
X0078214Y0082746D01*
X0078176Y0082903D01*
X0078143Y0083060D01*
X0078113Y0083218D01*
X0078087Y0083377D01*
X0078066Y0083536D01*
X0078048Y0083696D01*
X0078034Y0083856D01*
X0078024Y0084017D01*
X0078018Y0084177D01*
X0078016Y0084338D01*
D21*
X0069516Y0033338D02*
X0069516Y0013338D01*
X0074516Y0013338D01*
X0082016Y0013338D01*
X0087016Y0013338D01*
X0092016Y0013338D01*
X0097016Y0013338D01*
X0102016Y0013338D01*
X0109516Y0013338D01*
X0109516Y0033338D01*
X0069516Y0033338D01*
X0122016Y0158338D02*
X0142016Y0158338D01*
X0142016Y0168338D01*
X0122016Y0168338D01*
X0122016Y0163338D01*
X0119516Y0163338D01*
X0122016Y0163338D02*
X0122016Y0158338D01*
X0142016Y0158338D02*
X0147016Y0158338D01*
X0147016Y0163338D01*
X0149516Y0163338D01*
X0147016Y0163338D02*
X0147016Y0168338D01*
X0142016Y0168338D01*
D22*
X0147837Y0152015D02*
X0147385Y0147569D01*
X0146380Y0147278D01*
X0145413Y0146877D01*
X0144496Y0146372D01*
X0141032Y0149196D01*
X0138658Y0146822D01*
X0141482Y0143358D01*
X0140977Y0142441D01*
X0140577Y0141474D01*
X0140285Y0140469D01*
X0135839Y0140017D01*
X0135839Y0136659D01*
X0140285Y0136207D01*
X0140577Y0135202D01*
X0140977Y0134235D01*
X0141482Y0133318D01*
X0138658Y0129855D01*
X0141032Y0127480D01*
X0144496Y0130304D01*
X0145178Y0129916D01*
X0145890Y0129586D01*
X0147868Y0134360D01*
X0147225Y0134692D01*
X0146646Y0135127D01*
X0146149Y0135653D01*
X0145747Y0136255D01*
X0145451Y0136916D01*
X0145270Y0137617D01*
X0145210Y0138338D01*
X0145285Y0139142D01*
X0145510Y0139918D01*
X0145875Y0140638D01*
X0146369Y0141277D01*
X0140519Y0141277D01*
X0140349Y0140688D02*
X0145914Y0140688D01*
X0145602Y0140099D02*
X0136644Y0140099D01*
X0135839Y0139510D02*
X0145392Y0139510D01*
X0145265Y0138921D02*
X0135839Y0138921D01*
X0135839Y0138332D02*
X0145210Y0138332D01*
X0145260Y0137743D02*
X0135839Y0137743D01*
X0135839Y0137154D02*
X0145390Y0137154D01*
X0145608Y0136565D02*
X0136767Y0136565D01*
X0140352Y0135976D02*
X0145934Y0135976D01*
X0146401Y0135387D02*
X0140523Y0135387D01*
X0140744Y0134798D02*
X0147085Y0134798D01*
X0147805Y0134209D02*
X0140992Y0134209D01*
X0141316Y0133619D02*
X0147561Y0133619D01*
X0147317Y0133030D02*
X0141247Y0133030D01*
X0140767Y0132441D02*
X0147073Y0132441D01*
X0146829Y0131852D02*
X0140286Y0131852D01*
X0139806Y0131263D02*
X0146585Y0131263D01*
X0146341Y0130674D02*
X0139326Y0130674D01*
X0138846Y0130085D02*
X0144227Y0130085D01*
X0144881Y0130085D02*
X0146097Y0130085D01*
X0143505Y0129496D02*
X0139016Y0129496D01*
X0139605Y0128907D02*
X0142783Y0128907D01*
X0142060Y0128318D02*
X0140195Y0128318D01*
X0140784Y0127729D02*
X0141338Y0127729D01*
X0151959Y0132441D02*
X0158265Y0132441D01*
X0158745Y0131852D02*
X0152203Y0131852D01*
X0152447Y0131263D02*
X0159226Y0131263D01*
X0159706Y0130674D02*
X0152691Y0130674D01*
X0152935Y0130085D02*
X0154151Y0130085D01*
X0153854Y0129916D02*
X0154536Y0130304D01*
X0157999Y0127480D01*
X0160374Y0129855D01*
X0157550Y0133318D01*
X0158055Y0134235D01*
X0158455Y0135202D01*
X0158747Y0136207D01*
X0163193Y0136659D01*
X0163193Y0140017D01*
X0158747Y0140469D01*
X0158455Y0141474D01*
X0158055Y0142441D01*
X0157550Y0143358D01*
X0160374Y0146822D01*
X0157999Y0149196D01*
X0154536Y0146372D01*
X0153619Y0146877D01*
X0152652Y0147278D01*
X0151647Y0147569D01*
X0151195Y0152015D01*
X0147837Y0152015D01*
X0147823Y0151880D02*
X0151209Y0151880D01*
X0151269Y0151291D02*
X0147763Y0151291D01*
X0147703Y0150702D02*
X0151329Y0150702D01*
X0151388Y0150113D02*
X0147644Y0150113D01*
X0147584Y0149524D02*
X0151448Y0149524D01*
X0151508Y0148935D02*
X0147524Y0148935D01*
X0147464Y0148346D02*
X0151568Y0148346D01*
X0151628Y0147757D02*
X0147404Y0147757D01*
X0146115Y0147168D02*
X0152917Y0147168D01*
X0154161Y0146579D02*
X0144871Y0146579D01*
X0144243Y0146579D02*
X0138856Y0146579D01*
X0139004Y0147168D02*
X0143520Y0147168D01*
X0142798Y0147757D02*
X0139593Y0147757D01*
X0140182Y0148346D02*
X0142076Y0148346D01*
X0141353Y0148935D02*
X0140771Y0148935D01*
X0139336Y0145990D02*
X0159696Y0145990D01*
X0160176Y0146579D02*
X0154789Y0146579D01*
X0155512Y0147168D02*
X0160028Y0147168D01*
X0159439Y0147757D02*
X0156234Y0147757D01*
X0156956Y0148346D02*
X0158850Y0148346D01*
X0158261Y0148935D02*
X0157679Y0148935D01*
X0159216Y0145401D02*
X0139816Y0145401D01*
X0140297Y0144812D02*
X0158735Y0144812D01*
X0158255Y0144223D02*
X0140777Y0144223D01*
X0141257Y0143634D02*
X0157775Y0143634D01*
X0157723Y0143044D02*
X0141309Y0143044D01*
X0140985Y0142455D02*
X0148292Y0142455D01*
X0148425Y0142504D02*
X0149222Y0142634D01*
X0150029Y0142614D01*
X0150818Y0142443D01*
X0151562Y0142127D01*
X0152233Y0141679D01*
X0152809Y0141113D01*
X0153269Y0140449D01*
X0153597Y0139711D01*
X0153782Y0138925D01*
X0153816Y0138118D01*
X0153700Y0137319D01*
X0153436Y0136556D01*
X0153034Y0135855D01*
X0152509Y0135242D01*
X0151878Y0134738D01*
X0151164Y0134360D01*
X0153142Y0129586D01*
X0153854Y0129916D01*
X0154804Y0130085D02*
X0160186Y0130085D01*
X0160016Y0129496D02*
X0155527Y0129496D01*
X0156249Y0128907D02*
X0159426Y0128907D01*
X0158837Y0128318D02*
X0156972Y0128318D01*
X0157694Y0127729D02*
X0158248Y0127729D01*
X0157785Y0133030D02*
X0151715Y0133030D01*
X0151471Y0133619D02*
X0157716Y0133619D01*
X0158040Y0134209D02*
X0151227Y0134209D01*
X0151953Y0134798D02*
X0158288Y0134798D01*
X0158509Y0135387D02*
X0152633Y0135387D01*
X0153103Y0135976D02*
X0158680Y0135976D01*
X0162265Y0136565D02*
X0153439Y0136565D01*
X0153643Y0137154D02*
X0163193Y0137154D01*
X0163193Y0137743D02*
X0153762Y0137743D01*
X0153807Y0138332D02*
X0163193Y0138332D01*
X0163193Y0138921D02*
X0153782Y0138921D01*
X0153645Y0139510D02*
X0163193Y0139510D01*
X0162388Y0140099D02*
X0153425Y0140099D01*
X0153103Y0140688D02*
X0158683Y0140688D01*
X0158512Y0141277D02*
X0152642Y0141277D01*
X0151953Y0141866D02*
X0158293Y0141866D01*
X0158047Y0142455D02*
X0150760Y0142455D01*
X0148425Y0142504D02*
X0147666Y0142227D01*
X0146973Y0141813D01*
X0146369Y0141277D01*
X0147062Y0141866D02*
X0140739Y0141866D01*
M02*
